<?xml version="1.0" encoding="UTF-8" standalone="no"?>
<!-- @author Natan Felles <natanfelles@gmail.com> -->

<svg
   xmlns:dc="http://purl.org/dc/elements/1.1/"
   xmlns:cc="http://creativecommons.org/ns#"
   xmlns:rdf="http://www.w3.org/1999/02/22-rdf-syntax-ns#"
   xmlns:svg="http://www.w3.org/2000/svg"
   xmlns="http://www.w3.org/2000/svg"
   xmlns:sodipodi="http://sodipodi.sourceforge.net/DTD/sodipodi-0.dtd"
   xmlns:inkscape="http://www.inkscape.org/namespaces/inkscape"
   height="426.66666"
   width="1066.6666"
   version="1.1"
   id="svg2"
   inkscape:version="0.92.1 r15371"
   sodipodi:docname="db_helper.svg"
   inkscape:export-filename="/home/natanfelles/Repositório/Jekyll/natanfelles.github.io/assets/img_posts/post.png"
   inkscape:export-xdpi="90"
   inkscape:export-ydpi="90"
   viewBox="0 0 1000 400">
  <metadata
     id="metadata8">
    <rdf:RDF>
      <cc:Work
         rdf:about="">
        <dc:format>image/svg+xml</dc:format>
        <dc:type
           rdf:resource="http://purl.org/dc/dcmitype/StillImage" />
        <dc:title />
      </cc:Work>
    </rdf:RDF>
  </metadata>
  <defs
     id="defs6" />
  <sodipodi:namedview
     pagecolor="#ffffff"
     bordercolor="#666666"
     borderopacity="1"
     objecttolerance="10"
     gridtolerance="10"
     guidetolerance="10"
     inkscape:pageopacity="0"
     inkscape:pageshadow="2"
     inkscape:window-width="1366"
     inkscape:window-height="713"
     id="namedview4"
     showgrid="false"
     inkscape:showpageshadow="false"
     inkscape:zoom="0.70710678"
     inkscape:cx="521.45918"
     inkscape:cy="46.194269"
     inkscape:window-x="0"
     inkscape:window-y="27"
     inkscape:window-maximized="1"
     inkscape:current-layer="svg2">
    <sodipodi:guide
       position="0,0"
       orientation="0,1066.6666"
       id="guide812"
       inkscape:locked="false" />
    <sodipodi:guide
       position="999.99999,0"
       orientation="-426.66666,0"
       id="guide814"
       inkscape:locked="false" />
    <sodipodi:guide
       position="999.99999,400"
       orientation="0,-1066.6666"
       id="guide816"
       inkscape:locked="false" />
    <sodipodi:guide
       position="0,400"
       orientation="426.66666,0"
       id="guide818"
       inkscape:locked="false" />
  </sodipodi:namedview>
  <rect
     style="fill:#2e313a;fill-opacity:1;stroke:none;stroke-opacity:1"
     id="rect4136"
     width="1000"
     height="400"
     x="0"
     y="0" />
  <g
     id="g891"
     transform="matrix(0.36292487,0,0,0.36292487,-34.525743,19.940386)">
    <path
       inkscape:connector-curvature="0"
       id="path885"
       d="m 307.67452,334.59007 c -44.4156,-11.77751 -80.44764,-45.18286 -97.22507,-90.1375 -5.22237,-13.99316 -5.34992,-15.07789 -5.40011,-45.92448 -0.0565,-34.7519 0.77562,-38.963 12.48626,-63.1856 16.77563,-34.69913 45.94924,-59.554545 85.75103,-73.058421 10.77716,-3.656452 15.51951,-4.168415 38.61342,-4.168415 22.71139,0 28.12491,0.564496 39.4154,4.109947 34.11575,10.713076 58.9628,29.188488 78.85898,58.636869 l 5.63272,8.33698 H 610.6938 755.58047 l 12.34046,11.8473 c 23.08114,22.15875 39.97289,42.13137 39.97289,47.26358 0,3.7832 -6.23137,10.99731 -31.10549,36.01111 l -31.10551,31.28013 -15.87788,-15.81187 c -9.18507,-9.14684 -17.32976,-15.81186 -19.32225,-15.81186 -1.99726,0 -10.24252,6.76992 -19.62535,16.11373 l -16.18102,16.11371 -16.43141,-16.11371 c -9.03729,-8.86255 -17.19499,-16.11373 -18.12822,-16.11373 -0.93322,0 -6.8078,5.19337 -13.05458,11.54083 -6.2468,6.34745 -13.584,13.1533 -16.3049,15.12407 l -4.94708,3.58327 -16.31714,-16.00166 c -8.97444,-8.80092 -16.91414,-16.00167 -17.64378,-16.00167 -0.72964,0 -12.17146,10.24755 -25.42622,22.77232 l -24.09957,22.77229 -28.64586,0.48351 -28.64586,0.4835 -10.69325,13.82823 c -18.83264,24.35385 -42.8979,41.56461 -70.31467,50.28699 -18.06408,5.74693 -57.82223,6.65329 -76.34926,1.74055 z m -6.89015,-102.59204 c 20.45873,-13.53894 25.65376,-38.42323 12.12626,-58.08479 -6.23422,-9.06111 -13.94258,-14.11169 -25.66891,-16.81845 -25.37631,-5.85756 -50.20143,17.21764 -47.6041,44.24845 0.91468,9.51929 8.23644,22.88292 15.48373,28.26078 12.90903,9.57914 33.19818,10.64287 45.66302,2.39401 z"
       style="fill:#dd4814;fill-opacity:1;stroke-width:1.75515544" />
    <circle
       style="fill:#dd4814;fill-opacity:1;stroke:none;stroke-width:1.85576963;stroke-opacity:1"
       id="circle887"
       cx="337.78406"
       cy="200"
       r="145.6779" />
    <path
       inkscape:connector-curvature="0"
       id="path889"
       d="m 292.05261,288.75767 c -7.53044,-3.62153 -11.69291,-6.51171 -17.46545,-12.12702 -8.10947,-7.88866 -13.33434,-16.68848 -16.14536,-27.19235 -6.83968,-25.55761 1.27685,-53.43187 23.49254,-80.6795 2.85057,-3.49625 12.53443,-13.81915 21.51967,-22.9398 10.28529,-10.44025 17.38312,-18.11866 19.16141,-20.72872 7.3103,-10.7295 10.43549,-21.22725 8.44904,-28.381074 -0.32448,-1.168597 -0.42003,-2.287954 -0.21237,-2.487464 0.54447,-0.523015 7.08781,6.732318 9.98836,11.075188 5.66577,8.48316 8.65922,17.84035 8.63092,26.9793 -0.0174,5.46625 -0.46864,8.00506 -3.39281,19.07044 -3.15627,11.94371 -2.7874,18.74506 1.35619,25.00534 2.82065,4.26154 5.59634,5.89215 10.43239,6.12865 3.45673,0.16911 4.27689,0.003 6.95,-1.39961 3.89216,-2.0435 6.14698,-5.14736 6.514,-8.96678 0.14803,-1.5415 0.52107,-2.8027 0.82878,-2.8027 2.14266,0 13.24903,8.50384 19.23834,14.73024 8.30524,8.63406 14.17282,18.8243 16.8928,29.33773 1.7336,6.70096 2.32246,17.18825 1.34619,23.97564 -2.46052,17.10652 -13.50636,33.53276 -29.90988,44.47894 -4.97315,3.31863 -14.05961,7.98146 -17.11187,8.78118 -1.31134,0.34362 -1.29722,0.29957 0.27639,-0.86248 3.31039,-2.44455 10.54608,-10.24339 12.33819,-13.29845 6.28777,-10.71898 6.76036,-24.41333 1.24899,-36.19088 -2.2829,-4.87842 -5.64838,-9.64219 -10.20065,-14.43873 -4.8932,-5.15578 -10.20584,-9.30359 -21.9042,-17.10155 -5.01633,-3.34382 -10.73746,-7.3692 -12.7136,-8.94524 -6.90067,-5.50358 -10.54661,-11.09402 -10.95969,-16.8048 -0.30221,-4.17803 -1.24016,-4.05853 -4.33181,0.55183 -3.77933,5.6359 -4.81959,8.94442 -4.82926,15.35954 -0.008,4.72919 0.20016,6.02157 1.43513,8.94681 1.66013,3.93234 4.20134,7.90172 8.49252,13.26525 3.65324,4.56619 5.21821,8.4431 5.21821,12.92708 0,5.29771 -2.02151,8.95172 -6.08043,10.99083 -4.7035,2.36296 -9.55377,1.76349 -13.44505,-1.66174 -3.41389,-3.00507 -4.39078,-5.71559 -4.15542,-11.53018 0.13857,-3.42195 8.6e-4,-4.71584 -0.51833,-4.88964 -1.08279,-0.36209 -9.04443,7.93208 -11.99053,12.49137 -8.24403,12.75819 -9.31626,26.74387 -2.93096,38.2294 2.37023,4.26341 6.0424,8.91235 9.13087,11.55954 1.44536,1.23886 2.25482,2.2505 1.79878,2.24809 -0.45602,-0.002 -3.35495,-1.21906 -6.44204,-2.70368 z"
       style="fill:#ffffff;stroke-width:0.55276608" />
  </g>
  <g
     transform="matrix(0.65780442,0,0,0.65780442,-26.890906,155.85705)"
     id="g899">
    <path
       style="fill:#dd4814;fill-opacity:1;stroke-width:1.75515544"
       d="m 307.67452,334.59007 c -44.4156,-11.77751 -80.44764,-45.18286 -97.22507,-90.1375 -5.22237,-13.99316 -5.34992,-15.07789 -5.40011,-45.92448 -0.0565,-34.7519 0.77562,-38.963 12.48626,-63.1856 16.77563,-34.69913 45.94924,-59.554545 85.75103,-73.058421 10.77716,-3.656452 15.51951,-4.168415 38.61342,-4.168415 22.71139,0 28.12491,0.564496 39.4154,4.109947 34.11575,10.713076 58.9628,29.188488 78.85898,58.636869 l 5.63272,8.33698 H 610.6938 755.58047 l 12.34046,11.8473 c 23.08114,22.15875 39.97289,42.13137 39.97289,47.26358 0,3.7832 -6.23137,10.99731 -31.10549,36.01111 l -31.10551,31.28013 -15.87788,-15.81187 c -9.18507,-9.14684 -17.32976,-15.81186 -19.32225,-15.81186 -1.99726,0 -10.24252,6.76992 -19.62535,16.11373 l -16.18102,16.11371 -16.43141,-16.11371 c -9.03729,-8.86255 -17.19499,-16.11373 -18.12822,-16.11373 -0.93322,0 -6.8078,5.19337 -13.05458,11.54083 -6.2468,6.34745 -13.584,13.1533 -16.3049,15.12407 l -4.94708,3.58327 -16.31714,-16.00166 c -8.97444,-8.80092 -16.91414,-16.00167 -17.64378,-16.00167 -0.72964,0 -12.17146,10.24755 -25.42622,22.77232 l -24.09957,22.77229 -28.64586,0.48351 -28.64586,0.4835 -10.69325,13.82823 c -18.83264,24.35385 -42.8979,41.56461 -70.31467,50.28699 -18.06408,5.74693 -57.82223,6.65329 -76.34926,1.74055 z m -6.89015,-102.59204 c 20.45873,-13.53894 25.65376,-38.42323 12.12626,-58.08479 -6.23422,-9.06111 -13.94258,-14.11169 -25.66891,-16.81845 -25.37631,-5.85756 -50.20143,17.21764 -47.6041,44.24845 0.91468,9.51929 8.23644,22.88292 15.48373,28.26078 12.90903,9.57914 33.19818,10.64287 45.66302,2.39401 z"
       id="path893"
       inkscape:connector-curvature="0" />
    <circle
       r="145.6779"
       cy="200"
       cx="337.78406"
       id="circle895"
       style="fill:#dd4814;fill-opacity:1;stroke:none;stroke-width:1.85576963;stroke-opacity:1" />
    <path
       style="fill:#ffffff;stroke-width:0.55276608"
       d="m 292.05261,288.75767 c -7.53044,-3.62153 -11.69291,-6.51171 -17.46545,-12.12702 -8.10947,-7.88866 -13.33434,-16.68848 -16.14536,-27.19235 -6.83968,-25.55761 1.27685,-53.43187 23.49254,-80.6795 2.85057,-3.49625 12.53443,-13.81915 21.51967,-22.9398 10.28529,-10.44025 17.38312,-18.11866 19.16141,-20.72872 7.3103,-10.7295 10.43549,-21.22725 8.44904,-28.381074 -0.32448,-1.168597 -0.42003,-2.287954 -0.21237,-2.487464 0.54447,-0.523015 7.08781,6.732318 9.98836,11.075188 5.66577,8.48316 8.65922,17.84035 8.63092,26.9793 -0.0174,5.46625 -0.46864,8.00506 -3.39281,19.07044 -3.15627,11.94371 -2.7874,18.74506 1.35619,25.00534 2.82065,4.26154 5.59634,5.89215 10.43239,6.12865 3.45673,0.16911 4.27689,0.003 6.95,-1.39961 3.89216,-2.0435 6.14698,-5.14736 6.514,-8.96678 0.14803,-1.5415 0.52107,-2.8027 0.82878,-2.8027 2.14266,0 13.24903,8.50384 19.23834,14.73024 8.30524,8.63406 14.17282,18.8243 16.8928,29.33773 1.7336,6.70096 2.32246,17.18825 1.34619,23.97564 -2.46052,17.10652 -13.50636,33.53276 -29.90988,44.47894 -4.97315,3.31863 -14.05961,7.98146 -17.11187,8.78118 -1.31134,0.34362 -1.29722,0.29957 0.27639,-0.86248 3.31039,-2.44455 10.54608,-10.24339 12.33819,-13.29845 6.28777,-10.71898 6.76036,-24.41333 1.24899,-36.19088 -2.2829,-4.87842 -5.64838,-9.64219 -10.20065,-14.43873 -4.8932,-5.15578 -10.20584,-9.30359 -21.9042,-17.10155 -5.01633,-3.34382 -10.73746,-7.3692 -12.7136,-8.94524 -6.90067,-5.50358 -10.54661,-11.09402 -10.95969,-16.8048 -0.30221,-4.17803 -1.24016,-4.05853 -4.33181,0.55183 -3.77933,5.6359 -4.81959,8.94442 -4.82926,15.35954 -0.008,4.72919 0.20016,6.02157 1.43513,8.94681 1.66013,3.93234 4.20134,7.90172 8.49252,13.26525 3.65324,4.56619 5.21821,8.4431 5.21821,12.92708 0,5.29771 -2.02151,8.95172 -6.08043,10.99083 -4.7035,2.36296 -9.55377,1.76349 -13.44505,-1.66174 -3.41389,-3.00507 -4.39078,-5.71559 -4.15542,-11.53018 0.13857,-3.42195 8.6e-4,-4.71584 -0.51833,-4.88964 -1.08279,-0.36209 -9.04443,7.93208 -11.99053,12.49137 -8.24403,12.75819 -9.31626,26.74387 -2.93096,38.2294 2.37023,4.26341 6.0424,8.91235 9.13087,11.55954 1.44536,1.23886 2.25482,2.2505 1.79878,2.24809 -0.45602,-0.002 -3.35495,-1.21906 -6.44204,-2.70368 z"
       id="path897"
       inkscape:connector-curvature="0" />
  </g>
  <g
     id="g907"
     transform="matrix(0.83072481,0,0,0.83072481,304.07574,-20.590335)">
    <path
       inkscape:connector-curvature="0"
       id="path901"
       d="m 307.67452,334.59007 c -44.4156,-11.77751 -80.44764,-45.18286 -97.22507,-90.1375 -5.22237,-13.99316 -5.34992,-15.07789 -5.40011,-45.92448 -0.0565,-34.7519 0.77562,-38.963 12.48626,-63.1856 16.77563,-34.69913 45.94924,-59.554545 85.75103,-73.058421 10.77716,-3.656452 15.51951,-4.168415 38.61342,-4.168415 22.71139,0 28.12491,0.564496 39.4154,4.109947 34.11575,10.713076 58.9628,29.188488 78.85898,58.636869 l 5.63272,8.33698 H 610.6938 755.58047 l 12.34046,11.8473 c 23.08114,22.15875 39.97289,42.13137 39.97289,47.26358 0,3.7832 -6.23137,10.99731 -31.10549,36.01111 l -31.10551,31.28013 -15.87788,-15.81187 c -9.18507,-9.14684 -17.32976,-15.81186 -19.32225,-15.81186 -1.99726,0 -10.24252,6.76992 -19.62535,16.11373 l -16.18102,16.11371 -16.43141,-16.11371 c -9.03729,-8.86255 -17.19499,-16.11373 -18.12822,-16.11373 -0.93322,0 -6.8078,5.19337 -13.05458,11.54083 -6.2468,6.34745 -13.584,13.1533 -16.3049,15.12407 l -4.94708,3.58327 -16.31714,-16.00166 c -8.97444,-8.80092 -16.91414,-16.00167 -17.64378,-16.00167 -0.72964,0 -12.17146,10.24755 -25.42622,22.77232 l -24.09957,22.77229 -28.64586,0.48351 -28.64586,0.4835 -10.69325,13.82823 c -18.83264,24.35385 -42.8979,41.56461 -70.31467,50.28699 -18.06408,5.74693 -57.82223,6.65329 -76.34926,1.74055 z m -6.89015,-102.59204 c 20.45873,-13.53894 25.65376,-38.42323 12.12626,-58.08479 -6.23422,-9.06111 -13.94258,-14.11169 -25.66891,-16.81845 -25.37631,-5.85756 -50.20143,17.21764 -47.6041,44.24845 0.91468,9.51929 8.23644,22.88292 15.48373,28.26078 12.90903,9.57914 33.19818,10.64287 45.66302,2.39401 z"
       style="fill:#dd4814;fill-opacity:1;stroke-width:1.75515544" />
    <circle
       style="fill:#dd4814;fill-opacity:1;stroke:none;stroke-width:1.85576963;stroke-opacity:1"
       id="circle903"
       cx="337.78406"
       cy="200"
       r="145.6779" />
    <path
       inkscape:connector-curvature="0"
       id="path905"
       d="m 292.05261,288.75767 c -7.53044,-3.62153 -11.69291,-6.51171 -17.46545,-12.12702 -8.10947,-7.88866 -13.33434,-16.68848 -16.14536,-27.19235 -6.83968,-25.55761 1.27685,-53.43187 23.49254,-80.6795 2.85057,-3.49625 12.53443,-13.81915 21.51967,-22.9398 10.28529,-10.44025 17.38312,-18.11866 19.16141,-20.72872 7.3103,-10.7295 10.43549,-21.22725 8.44904,-28.381074 -0.32448,-1.168597 -0.42003,-2.287954 -0.21237,-2.487464 0.54447,-0.523015 7.08781,6.732318 9.98836,11.075188 5.66577,8.48316 8.65922,17.84035 8.63092,26.9793 -0.0174,5.46625 -0.46864,8.00506 -3.39281,19.07044 -3.15627,11.94371 -2.7874,18.74506 1.35619,25.00534 2.82065,4.26154 5.59634,5.89215 10.43239,6.12865 3.45673,0.16911 4.27689,0.003 6.95,-1.39961 3.89216,-2.0435 6.14698,-5.14736 6.514,-8.96678 0.14803,-1.5415 0.52107,-2.8027 0.82878,-2.8027 2.14266,0 13.24903,8.50384 19.23834,14.73024 8.30524,8.63406 14.17282,18.8243 16.8928,29.33773 1.7336,6.70096 2.32246,17.18825 1.34619,23.97564 -2.46052,17.10652 -13.50636,33.53276 -29.90988,44.47894 -4.97315,3.31863 -14.05961,7.98146 -17.11187,8.78118 -1.31134,0.34362 -1.29722,0.29957 0.27639,-0.86248 3.31039,-2.44455 10.54608,-10.24339 12.33819,-13.29845 6.28777,-10.71898 6.76036,-24.41333 1.24899,-36.19088 -2.2829,-4.87842 -5.64838,-9.64219 -10.20065,-14.43873 -4.8932,-5.15578 -10.20584,-9.30359 -21.9042,-17.10155 -5.01633,-3.34382 -10.73746,-7.3692 -12.7136,-8.94524 -6.90067,-5.50358 -10.54661,-11.09402 -10.95969,-16.8048 -0.30221,-4.17803 -1.24016,-4.05853 -4.33181,0.55183 -3.77933,5.6359 -4.81959,8.94442 -4.82926,15.35954 -0.008,4.72919 0.20016,6.02157 1.43513,8.94681 1.66013,3.93234 4.20134,7.90172 8.49252,13.26525 3.65324,4.56619 5.21821,8.4431 5.21821,12.92708 0,5.29771 -2.02151,8.95172 -6.08043,10.99083 -4.7035,2.36296 -9.55377,1.76349 -13.44505,-1.66174 -3.41389,-3.00507 -4.39078,-5.71559 -4.15542,-11.53018 0.13857,-3.42195 8.6e-4,-4.71584 -0.51833,-4.88964 -1.08279,-0.36209 -9.04443,7.93208 -11.99053,12.49137 -8.24403,12.75819 -9.31626,26.74387 -2.93096,38.2294 2.37023,4.26341 6.0424,8.91235 9.13087,11.55954 1.44536,1.23886 2.25482,2.2505 1.79878,2.24809 -0.45602,-0.002 -3.35495,-1.21906 -6.44204,-2.70368 z"
       style="fill:#ffffff;stroke-width:0.55276608" />
  </g>
</svg>
