<?xml version="1.0" encoding="UTF-8" standalone="no"?>
<!-- Created with Inkscape (http://www.inkscape.org/) -->

<svg
   version="1.1"
   id="svg2"
   width="1066.6667"
   height="426.66666"
   viewBox="0 0 1066.6667 426.66666"
   sodipodi:docname="mariadb-database-backup.svg"
   inkscape:version="1.1.2 (0a00cf5339, 2022-02-04)"
   inkscape:export-filename="/home/natanfelles/Online/GitHub/natanfelles/natanfelles.github.io/assets/img_posts/mariadb-database-backup.png"
   inkscape:export-xdpi="96"
   inkscape:export-ydpi="96"
   xmlns:inkscape="http://www.inkscape.org/namespaces/inkscape"
   xmlns:sodipodi="http://sodipodi.sourceforge.net/DTD/sodipodi-0.dtd"
   xmlns="http://www.w3.org/2000/svg"
   xmlns:svg="http://www.w3.org/2000/svg">
  <defs
     id="defs6">
    <filter
       style="color-interpolation-filters:sRGB"
       inkscape:label="Invert"
       id="filter69"
       x="0"
       y="0"
       width="1"
       height="1">
      <feColorMatrix
         type="hueRotate"
         values="180"
         result="color1"
         id="feColorMatrix65" />
      <feColorMatrix
         values="-1 0 0 0 1 0 -1 0 0 1 0 0 -1 0 1 -0.21 -0.72 -0.07 2 0 "
         result="color2"
         id="feColorMatrix67" />
    </filter>
    <filter
       style="color-interpolation-filters:sRGB"
       inkscape:label="Invert"
       id="filter69-3"
       x="0"
       y="0"
       width="1"
       height="1">
      <feColorMatrix
         type="hueRotate"
         values="180"
         result="color1"
         id="feColorMatrix65-6" />
      <feColorMatrix
         values="-1 0 0 0 1 0 -1 0 0 1 0 0 -1 0 1 -0.21 -0.72 -0.07 2 0 "
         result="color2"
         id="feColorMatrix67-7" />
    </filter>
    <filter
       style="color-interpolation-filters:sRGB"
       inkscape:label="Invert"
       id="filter69-5"
       x="0"
       y="0"
       width="1"
       height="1">
      <feColorMatrix
         type="hueRotate"
         values="180"
         result="color1"
         id="feColorMatrix65-3" />
      <feColorMatrix
         values="-1 0 0 0 1 0 -1 0 0 1 0 0 -1 0 1 -0.21 -0.72 -0.07 2 0 "
         result="color2"
         id="feColorMatrix67-5" />
    </filter>
  </defs>
  <sodipodi:namedview
     id="namedview4"
     pagecolor="#ffffff"
     bordercolor="#999999"
     borderopacity="1"
     inkscape:pageshadow="0"
     inkscape:pageopacity="0"
     inkscape:pagecheckerboard="0"
     showgrid="false"
     inkscape:zoom="0.56343746"
     inkscape:cx="533.33337"
     inkscape:cy="213.8658"
     inkscape:window-width="1440"
     inkscape:window-height="840"
     inkscape:window-x="0"
     inkscape:window-y="32"
     inkscape:window-maximized="1"
     inkscape:current-layer="g8"
     fit-margin-top="0"
     fit-margin-left="0"
     fit-margin-right="0"
     fit-margin-bottom="0" />
  <g
     inkscape:groupmode="layer"
     inkscape:label="Image"
     id="g8"
     transform="translate(66.666718,-24.438616)">
    <rect
       style="fill:#000000;fill-opacity:1;stroke:none;stroke-width:1.28333;stroke-opacity:1"
       id="rect12"
       width="1066.667"
       height="426.66666"
       x="-66.666718"
       y="24.438616" />
    <g
       id="g949"
       transform="matrix(0.9416026,0,0,0.9416026,27.175413,-46.216589)">
      <path
         style="fill:#ffffff;stroke:none;stroke-width:1.37264"
         d="m 287.29399,322.70815 c 0,-0.15099 0.12199,-0.27452 0.27108,-0.27452 0.26545,0 1.40596,-1.56703 2.17575,-2.98944 0.21334,-0.39418 0.61483,-0.87813 0.89222,-1.07542 0.27739,-0.1973 0.50648,-0.50615 0.50909,-0.68632 0.003,-0.18018 0.31145,-0.61853 0.68632,-0.9741 0.37487,-0.35558 0.68158,-0.81966 0.68158,-1.0313 0,-0.21164 0.30884,-0.65333 0.68632,-0.98154 0.37748,-0.32822 0.68632,-0.75277 0.68632,-0.94347 0,-0.19069 0.22935,-0.50815 0.50967,-0.70545 0.28032,-0.19729 0.59876,-0.64066 0.70763,-0.98526 0.10888,-0.34459 0.49722,-0.94944 0.86297,-1.3441 0.36576,-0.39466 0.66501,-0.88048 0.66501,-1.0796 0,-0.19913 0.24708,-0.49428 0.54906,-0.6559 0.30198,-0.16161 0.54906,-0.46532 0.54906,-0.67491 0,-0.20959 0.29194,-0.73028 0.64876,-1.15709 0.35681,-0.42681 0.73213,-1.04256 0.83403,-1.36834 0.1019,-0.32578 0.35941,-0.65915 0.57223,-0.74082 0.21283,-0.0817 0.52923,-0.67684 0.70311,-1.3226 0.17389,-0.64577 0.55098,-1.33859 0.83798,-1.53961 0.287,-0.20103 0.52181,-0.6493 0.52181,-0.99617 0,-0.34686 0.30885,-0.96391 0.68633,-1.37122 0.42716,-0.46091 0.68632,-1.06395 0.68632,-1.597 0,-0.47106 0.21099,-1.08961 0.46888,-1.37457 0.63587,-0.70263 0.27483,-1.21284 -1.55936,-2.20363 -1.33331,-0.72023 -1.77217,-0.80295 -4.92229,-0.92773 -2.61286,-0.1035 -3.73079,-0.26495 -4.57227,-0.66032 -0.82889,-0.38946 -2.02275,-0.56771 -4.66699,-0.6968 -2.58393,-0.12615 -3.85271,-0.31168 -4.65128,-0.68015 -0.78889,-0.364 -2.10311,-0.56086 -4.66699,-0.69905 -2.47986,-0.13366 -3.76754,-0.32159 -4.21996,-0.61586 -0.49854,-0.32428 -1.97799,-0.4779 -6.31415,-0.65564 -4.33831,-0.17783 -5.91799,-0.34193 -6.75283,-0.70149 -0.97622,-0.42046 -2.42075,-0.46936 -13.86369,-0.46936 -11.40561,0 -12.87684,0.0495 -13.73476,0.4618 -0.53316,0.25625 -2.2153,0.57511 -3.77912,0.71635 -1.80116,0.16267 -2.99008,0.40382 -3.29434,0.6682 -0.26184,0.22751 -1.27907,0.49105 -2.26051,0.58563 -1.35388,0.13047 -1.87531,0.30493 -2.16108,0.72306 -0.20715,0.3031 -0.67439,0.55109 -1.0383,0.55109 -0.82784,0 -2.56572,0.70983 -2.56572,1.04796 0,0.13881 -0.50629,0.3203 -1.12509,0.4033 -0.61881,0.083 -1.39888,0.4081 -1.7335,0.72246 -0.33462,0.31436 -0.80715,0.57156 -1.05007,0.57156 -0.24291,0 -0.80871,0.30885 -1.25731,0.68633 -0.44861,0.37747 -0.94523,0.68632 -1.10361,0.68632 -0.15838,0 -0.44939,0.2259 -0.64669,0.50201 -0.1973,0.27612 -0.77975,0.6471 -1.29432,0.82443 -0.51457,0.17732 -1.10838,0.5691 -1.31957,0.87062 -0.2112,0.30152 -0.54315,0.54822 -0.73767,0.54822 -0.19452,0 -0.57094,0.24007 -0.83648,0.5335 -0.26555,0.29342 -0.84164,0.61231 -1.28021,0.70863 -0.43857,0.0963 -0.92426,0.41218 -1.07931,0.70188 -0.15505,0.28971 -0.45339,0.52675 -0.66298,0.52675 -0.20958,0 -0.73027,0.28277 -1.15708,0.62837 -0.42681,0.34561 -1.11921,0.77692 -1.53867,0.95848 -0.41947,0.18155 -0.83418,0.51647 -0.92159,0.74426 -0.0874,0.2278 -0.46046,0.41417 -0.82899,0.41417 -0.36854,0 -0.95629,0.30885 -1.30612,0.68632 -0.34984,0.37748 -0.81894,0.68632 -1.04246,0.68632 -0.22352,0 -0.62579,0.24243 -0.89393,0.53872 -0.26815,0.2963 -0.90498,0.6765 -1.41519,0.84488 -0.51021,0.16839 -0.92766,0.4245 -0.92766,0.56915 0,0.14464 -0.55592,0.50129 -1.23537,0.79254 -0.67946,0.29125 -1.23538,0.64765 -1.23538,0.79201 0,0.14436 -0.37164,0.3441 -0.82587,0.44387 -0.45423,0.0998 -0.95272,0.41842 -1.10777,0.70813 -0.15505,0.28971 -0.56797,0.52674 -0.9176,0.52674 -0.91811,0 -2.29837,0.52901 -2.45668,0.94157 -0.0747,0.19477 -0.76004,0.43693 -1.5229,0.53813 -0.78756,0.10447 -1.48669,0.36214 -1.61768,0.59621 -0.12688,0.22672 -0.71775,0.47675 -1.31303,0.55562 -2.47424,0.32785 -2.82431,0.42431 -3.42254,0.94316 -0.49813,0.43202 -1.0274,0.54324 -2.58528,0.54324 -1.52621,0 -2.19913,0.13644 -3.04643,0.61769 -1.06743,0.60627 -1.25577,0.61769 -10.18696,0.61769 -8.27078,0 -9.14762,-0.0436 -9.62856,-0.47902 -0.29102,-0.26346 -1.13779,-0.5602 -1.88171,-0.65942 -0.74392,-0.0992 -1.68459,-0.43957 -2.09038,-0.75636 -0.4058,-0.31677 -1.05437,-0.79792 -1.44128,-1.0692 -0.57579,-0.40372 -0.70346,-0.71514 -0.70346,-1.7158 0,-0.93562 0.10268,-1.22256 0.43749,-1.22256 0.24062,0 0.50211,-0.24708 0.58108,-0.54906 0.079,-0.30198 0.31163,-0.54906 0.51702,-0.54906 0.2054,0 0.57581,-0.30884 0.82314,-0.68632 0.24733,-0.37748 0.61975,-0.68632 0.82759,-0.68632 0.20784,0 0.53219,-0.24708 0.72078,-0.54906 0.18859,-0.30198 0.47227,-0.54905 0.63039,-0.54905 0.15812,0 0.71521,-0.3656 1.23797,-0.81243 0.52277,-0.44684 1.05282,-0.81745 1.1779,-0.82359 0.30281,-0.0149 2.3806,-2.18704 2.3806,-2.48875 0,-0.66127 -1.30554,-1.09127 -3.31325,-1.09127 -1.25816,0 -2.4109,-0.15634 -2.89009,-0.39198 -0.43842,-0.21558 -1.59566,-0.53465 -2.57164,-0.70904 -1.17893,-0.21066 -1.89823,-0.49373 -2.14316,-0.84341 -0.20276,-0.28948 -0.49307,-0.52633 -0.64513,-0.52633 -0.15205,0 -0.61677,-0.33539 -1.03271,-0.74531 l -0.75624,-0.7453 0.90186,-0.90187 c 0.49603,-0.49602 1.02518,-0.90186 1.17589,-0.90186 0.15071,0 0.40625,-0.24708 0.56786,-0.54906 0.16162,-0.30198 0.45782,-0.54905 0.65823,-0.54905 0.20042,0 0.83075,-0.37062 1.40074,-0.82359 0.56999,-0.45297 1.20032,-0.82358 1.40073,-0.82358 0.20041,0 0.48757,-0.23018 0.63814,-0.51151 0.17235,-0.32205 0.69436,-0.56793 1.40928,-0.66382 0.62454,-0.0838 1.40135,-0.39427 1.72624,-0.69 0.41647,-0.37909 1.12918,-0.57819 2.41628,-0.675 1.00407,-0.0755 2.23945,-0.35549 2.74529,-0.62215 0.72194,-0.38057 1.92755,-0.52589 5.60666,-0.67576 3.62307,-0.14759 4.90052,-0.29922 5.62783,-0.66801 0.74352,-0.37701 2.06476,-0.52186 6.29875,-0.69053 3.91124,-0.15581 5.57901,-0.32632 6.17689,-0.63153 0.45046,-0.22996 1.91207,-0.50721 3.24802,-0.61612 1.83767,-0.14982 2.55613,-0.32515 2.95118,-0.7202 0.2872,-0.28719 0.80014,-0.52286 1.13987,-0.5237 0.94264,-0.002 2.67665,-0.54086 2.67665,-0.83127 0,-0.14187 0.43238,-0.43861 0.96085,-0.65941 0.52846,-0.22081 0.96085,-0.59308 0.96085,-0.82727 0,-0.24913 0.23847,-0.4258 0.57476,-0.4258 0.33144,0 0.63183,-0.21827 0.70958,-0.5156 0.0742,-0.28357 0.43321,-0.65154 0.79789,-0.8177 0.36468,-0.16616 0.66305,-0.46034 0.66305,-0.65374 0,-0.19341 0.24708,-0.50595 0.54906,-0.69454 0.30198,-0.18859 0.54905,-0.51294 0.54905,-0.72078 0,-0.20784 0.30885,-0.58026 0.68633,-0.82759 0.37747,-0.24733 0.68632,-0.58344 0.68632,-0.7469 0,-0.16346 0.30884,-0.66424 0.68632,-1.11285 0.37747,-0.4486 0.68632,-0.98712 0.68632,-1.19671 0,-0.20959 0.23871,-0.50883 0.53046,-0.66497 0.29176,-0.15614 0.61019,-0.53507 0.70762,-0.84206 0.0974,-0.307 0.47642,-0.85743 0.84218,-1.22319 0.36576,-0.36576 0.66502,-0.8516 0.66502,-1.07964 0,-0.22803 0.24562,-0.54606 0.54582,-0.70672 0.3002,-0.16066 0.62243,-0.59739 0.71608,-0.97051 0.0937,-0.37312 0.27886,-0.6784 0.41159,-0.6784 0.24,0 1.40428,-1.62096 2.14721,-2.98943 0.214,-0.39418 0.55887,-0.84234 0.76638,-0.9959 0.20752,-0.15357 0.52657,-0.53017 0.70903,-0.83691 1.14752,-1.9292 1.53357,-2.46368 2.43191,-3.36692 0.55114,-0.55415 1.46193,-1.37815 2.02398,-1.83112 0.56204,-0.45298 1.35852,-1.13243 1.76995,-1.50991 0.41143,-0.37748 1.39528,-1.24224 2.18634,-1.9217 0.79106,-0.67946 1.71973,-1.51334 2.06371,-1.85307 0.34397,-0.33972 0.70687,-0.61769 0.80644,-0.61769 0.32578,0 3.04484,-1.96063 3.26988,-2.35781 0.12075,-0.21311 0.3917,-0.38747 0.60213,-0.38747 0.21042,0 0.54401,-0.21619 0.74131,-0.48042 0.1973,-0.26424 0.82199,-0.69462 1.38821,-0.95641 0.56621,-0.26179 1.02948,-0.58813 1.02948,-0.72519 0,-0.13707 0.3342,-0.33309 0.74267,-0.43561 0.40848,-0.10252 0.90278,-0.41498 1.09846,-0.69435 0.19568,-0.27937 0.72726,-0.58953 1.1813,-0.68926 0.45404,-0.0997 0.95239,-0.41835 1.10744,-0.70806 0.15504,-0.28971 0.51515,-0.52674 0.80023,-0.52674 0.28509,0 0.88538,-0.30884 1.33398,-0.68632 0.44861,-0.37748 0.96529,-0.68632 1.14818,-0.68632 0.1829,0 0.69958,-0.30885 1.14818,-0.68632 0.44861,-0.37748 1.0598,-0.68632 1.35821,-0.68632 0.29841,0 0.99706,-0.30885 1.55257,-0.68632 0.5555,-0.37748 1.20441,-0.68633 1.442,-0.68633 0.2376,0 0.85061,-0.30884 1.36225,-0.68632 0.51165,-0.37747 1.19596,-0.68632 1.5207,-0.68632 0.32474,0 0.80477,-0.23684 1.06675,-0.52632 0.27713,-0.30623 1.03192,-0.60273 1.80501,-0.70906 0.77309,-0.10632 1.52788,-0.40282 1.80501,-0.70906 0.26197,-0.28947 0.81974,-0.52631 1.23948,-0.52631 0.94411,0 2.16595,-0.44854 2.56097,-0.94013 0.16371,-0.20373 1.06352,-0.43324 2.0058,-0.51161 1.04495,-0.0869 2.07081,-0.3658 2.64042,-0.71783 0.64938,-0.40134 1.38744,-0.57572 2.43677,-0.57572 1.07837,0 1.87131,-0.19464 2.79604,-0.68632 0.90337,-0.48032 1.7222,-0.68632 2.72813,-0.68632 0.90022,0 1.84373,-0.20725 2.52486,-0.5546 0.59814,-0.30504 1.76699,-0.62169 2.59743,-0.70368 2.12857,-0.21015 2.65621,-0.33922 3.06925,-0.75075 0.1993,-0.19857 1.46665,-0.49464 2.81634,-0.65794 1.66843,-0.20185 2.55693,-0.43767 2.77555,-0.73666 0.19484,-0.26646 0.74239,-0.44622 1.38942,-0.45613 1.92088,-0.0294 3.7404,-0.44173 4.0005,-0.9065 0.17573,-0.31401 0.6412,-0.45339 1.54207,-0.46174 1.93299,-0.0179 3.67559,-0.42325 3.95335,-0.91958 0.16818,-0.30053 0.63051,-0.4411 1.45072,-0.4411 1.29819,0 2.62559,-0.40098 2.92359,-0.88315 0.10189,-0.16486 0.90399,-0.39728 1.78245,-0.51649 0.91508,-0.12418 1.7306,-0.39918 1.90956,-0.64392 0.17179,-0.23495 0.91643,-0.50147 1.65474,-0.59227 0.73831,-0.0908 1.66526,-0.39089 2.05989,-0.66686 0.39464,-0.27598 1.19763,-0.58386 1.78444,-0.68417 0.58681,-0.10031 1.4137,-0.42683 1.83754,-0.72559 0.42384,-0.29876 1.20083,-0.61301 1.72663,-0.69833 0.5258,-0.0853 1.10598,-0.36926 1.28928,-0.63096 0.18329,-0.26169 0.87295,-0.56699 1.53257,-0.67843 0.80743,-0.13641 1.241,-0.36207 1.32692,-0.69061 0.0834,-0.31877 0.49715,-0.54709 1.19322,-0.65839 0.66146,-0.10577 1.17668,-0.37794 1.35846,-0.7176 0.16107,-0.30096 0.5261,-0.5472 0.81119,-0.5472 0.28508,0 0.88537,-0.30884 1.33398,-0.68632 0.4486,-0.37748 0.99979,-0.68632 1.22487,-0.68632 0.22506,0 0.61158,-0.30884 0.85891,-0.68632 0.24733,-0.37748 0.60886,-0.68632 0.80339,-0.68632 0.19454,0 0.60097,-0.23037 0.90319,-0.51193 0.30221,-0.28155 0.85054,-0.67177 1.21851,-0.86715 0.36796,-0.19537 0.83045,-0.5827 1.02775,-0.86072 0.1973,-0.27801 0.52871,-0.50549 0.73646,-0.50549 0.20775,0 0.45019,-0.22832 0.53876,-0.50739 0.0886,-0.27907 0.46751,-0.64703 0.84209,-0.8177 0.37457,-0.17067 0.68104,-0.48385 0.68104,-0.69597 0,-0.21211 0.25625,-0.45266 0.56943,-0.53456 0.31319,-0.0819 0.63345,-0.39374 0.7117,-0.69296 0.0782,-0.29923 0.3871,-0.60807 0.68633,-0.68632 0.29922,-0.0782 0.60807,-0.3871 0.68632,-0.68632 0.0782,-0.29923 0.37792,-0.60568 0.66594,-0.681 0.28802,-0.0753 0.52368,-0.31961 0.52368,-0.54286 0,-0.22326 0.30884,-0.60829 0.68632,-0.85562 0.37748,-0.24733 0.68632,-0.54898 0.68632,-0.67034 0,-0.12135 0.56754,-0.82885 1.26121,-1.57221 0.69366,-0.74336 1.38089,-1.67891 1.52717,-2.07901 0.14629,-0.4001 0.50528,-0.79003 0.79776,-0.86652 0.31241,-0.0817 0.53179,-0.37617 0.53179,-0.71382 0,-0.33148 0.17679,-0.57476 0.41768,-0.57476 0.22972,0 0.56945,-0.33386 0.75495,-0.7419 0.1855,-0.40805 0.61523,-1.02012 0.95496,-1.36017 0.33973,-0.34004 0.61769,-0.85773 0.61769,-1.15042 0,-0.29269 0.19117,-0.60552 0.42481,-0.69518 0.23365,-0.0897 0.55458,-0.53526 0.71318,-0.99022 0.1586,-0.45497 0.40612,-0.82721 0.55005,-0.82721 0.14392,0 0.4544,-0.46124 0.68994,-1.02498 0.23555,-0.56374 0.66163,-1.18844 0.94684,-1.38821 0.28522,-0.19977 0.51858,-0.55458 0.51858,-0.78845 0,-0.23388 0.30884,-0.79227 0.68632,-1.24088 0.37748,-0.4486 0.68632,-1.04492 0.68632,-1.32514 0,-0.28022 0.23849,-0.58519 0.52998,-0.6777 0.29728,-0.0944 0.60816,-0.5242 0.70806,-0.97901 0.0979,-0.44594 0.39765,-0.96537 0.66601,-1.1543 0.26837,-0.18892 0.57702,-0.62543 0.68589,-0.97001 0.10887,-0.34458 0.49721,-0.92577 0.86297,-1.29153 0.36576,-0.36576 0.66502,-0.91337 0.66502,-1.2169 0,-0.30353 0.23286,-0.6765 0.51748,-0.82882 0.28461,-0.15232 0.59581,-0.58905 0.69155,-0.97051 0.0957,-0.38146 0.29964,-0.69356 0.45312,-0.69356 0.15349,0 0.50971,-0.53809 0.79161,-1.19575 0.28191,-0.65765 0.7099,-1.27147 0.9511,-1.36402 0.24119,-0.0926 0.44067,-0.38835 0.44328,-0.65733 0.003,-0.26897 0.31145,-0.77996 0.68632,-1.13554 0.37487,-0.35558 0.68158,-0.94238 0.68158,-1.30401 0,-0.40555 0.16005,-0.65751 0.41768,-0.65751 0.22972,0 0.56464,-0.33973 0.74426,-0.75495 0.17963,-0.41522 0.60936,-1.10416 0.95497,-1.53097 0.3456,-0.42681 0.62837,-0.94623 0.62837,-1.15427 0,-0.20803 0.30885,-0.68709 0.68632,-1.06457 0.37748,-0.37747 0.68632,-0.87724 0.68632,-1.11059 0,-0.23335 0.10947,-0.42427 0.24325,-0.42427 0.13379,0 0.44764,-0.43071 0.69744,-0.95715 0.24981,-0.52642 0.69627,-1.08669 0.99213,-1.24503 0.29587,-0.15834 0.53794,-0.4238 0.53794,-0.58992 0,-0.16611 0.27796,-0.57876 0.61769,-0.91701 0.33973,-0.33824 0.89849,-0.9701 1.2417,-1.40412 0.3432,-0.43402 0.99177,-1.23782 1.44127,-1.78622 0.4495,-0.5484 0.81727,-1.12688 0.81727,-1.28551 0,-0.15863 0.24678,-0.36675 0.54842,-0.46248 0.30163,-0.0957 0.62386,-0.47468 0.71608,-0.84209 0.0922,-0.36741 0.35114,-0.66802 0.57539,-0.66802 0.22426,0 0.47483,-0.25656 0.55682,-0.57012 0.082,-0.31357 0.44105,-0.68112 0.79789,-0.81679 0.35684,-0.13567 0.64879,-0.41521 0.64879,-0.6212 0,-0.20598 0.30885,-0.51524 0.68633,-0.68723 0.37747,-0.17199 0.68632,-0.50066 0.68632,-0.73038 0,-0.22973 0.18246,-0.41768 0.40546,-0.41768 0.22301,0 0.60467,-0.30403 0.84815,-0.67562 0.24347,-0.37159 0.6787,-0.75052 0.96717,-0.84208 0.28848,-0.0916 0.5245,-0.33513 0.5245,-0.54126 0,-0.20614 0.27796,-0.46179 0.61769,-0.56813 0.33973,-0.10633 0.95675,-0.47673 1.37116,-0.82311 0.41441,-0.34638 1.00121,-0.70842 1.30401,-0.80452 0.3028,-0.0961 0.55054,-0.32794 0.55054,-0.5152 0,-0.18725 0.49415,-0.55847 1.09811,-0.82494 0.60396,-0.26647 1.09812,-0.58534 1.09812,-0.7086 0,-0.12327 0.41542,-0.30205 0.92315,-0.3973 0.50774,-0.0953 1.13175,-0.40367 1.38668,-0.68537 0.25493,-0.2817 0.85276,-0.59002 1.3285,-0.68517 0.47575,-0.0951 1.118,-0.40285 1.42724,-0.68377 0.30924,-0.28093 1.13075,-0.57063 1.82557,-0.64379 0.69482,-0.0732 1.62135,-0.38527 2.05896,-0.69358 0.57285,-0.40358 1.39647,-0.60095 2.9412,-0.70481 1.33883,-0.09 2.41175,-0.31869 2.85354,-0.60816 0.51187,-0.33539 1.64358,-0.51959 4.08529,-0.66494 2.42412,-0.1443 3.57487,-0.33049 4.07736,-0.65974 0.5021,-0.32898 1.70743,-0.52439 4.26233,-0.691 2.33945,-0.15256 3.77689,-0.37212 4.1875,-0.63961 0.37894,-0.24686 1.70669,-0.48256 3.37052,-0.59832 1.97818,-0.13763 2.93812,-0.32976 3.43537,-0.68758 0.37955,-0.27312 1.42963,-0.58713 2.3335,-0.6978 0.94138,-0.11527 1.87794,-0.4103 2.19245,-0.69065 0.33095,-0.29502 1.1894,-0.55151 2.16109,-0.64572 1.08985,-0.10567 1.80703,-0.33946 2.21394,-0.72173 0.49407,-0.46416 0.96038,-0.56543 2.60351,-0.56543 1.73456,0 2.11047,0.0916 2.8173,0.68632 0.4486,0.37747 0.98586,0.68632 1.19392,0.68632 0.60212,0 0.71704,1.39644 0.6259,7.6068 -0.0763,5.19513 -0.13784,5.86063 -0.57168,6.17744 -0.29171,0.21304 -0.58033,0.95047 -0.72152,1.84366 -0.12941,0.81873 -0.41769,1.62195 -0.64058,1.78494 -0.22289,0.16299 -0.49462,0.57782 -0.6038,0.92183 -0.10918,0.34402 -0.49777,0.94839 -0.86353,1.34305 -0.36575,0.39465 -0.66501,0.93827 -0.66501,1.20803 0,0.26975 -0.23481,0.56499 -0.52177,0.65607 -0.28697,0.0911 -0.59817,0.47002 -0.69154,0.84208 -0.0934,0.37207 -0.36433,0.67649 -0.60207,0.67649 -0.23774,0 -0.49934,0.25655 -0.58134,0.57011 -0.082,0.31357 -0.44106,0.68113 -0.79789,0.8168 -0.35683,0.13566 -0.64879,0.4152 -0.64879,0.62119 0,0.20599 -0.30885,0.51524 -0.68632,0.68723 -0.37748,0.17199 -0.68632,0.48727 -0.68632,0.70062 0,0.21336 -0.30885,0.46544 -0.68633,0.56018 -0.37747,0.0947 -0.68632,0.35908 -0.68632,0.58743 0,0.22835 -0.21619,0.49475 -0.48042,0.592 -0.26423,0.0973 -0.74097,0.43311 -1.05941,0.74634 -0.31844,0.31323 -0.87436,0.78958 -1.23538,1.05855 -0.80281,0.59812 -2.56876,2.13587 -4.24839,3.69941 -0.69047,0.64275 -1.49277,1.29567 -1.78288,1.45093 -0.29012,0.15527 -0.52748,0.44987 -0.52748,0.65468 0,0.2048 -0.30885,0.44988 -0.68632,0.54462 -0.37748,0.0947 -0.68632,0.28751 -0.68632,0.42837 0,0.14086 -0.55963,0.64114 -1.24361,1.11173 -1.4504,0.9979 -3.48699,3.0328 -4.65876,4.65488 -0.45297,0.62705 -1.10154,1.40145 -1.44127,1.72089 -0.33973,0.31944 -0.61769,0.7355 -0.61769,0.92458 0,0.18908 -0.24075,0.4202 -0.53501,0.51359 -0.29426,0.0934 -0.62083,0.44145 -0.72571,0.77346 -0.10488,0.332 -0.41026,0.75822 -0.67862,0.94714 -0.26837,0.18893 -0.57609,0.74485 -0.68382,1.23537 -0.10774,0.49052 -0.40985,1.04173 -0.67136,1.22489 -0.2615,0.18317 -0.55663,0.84065 -0.65584,1.46107 -0.0992,0.62042 -0.41214,1.45887 -0.69539,1.86321 -0.30563,0.43629 -0.58238,1.4522 -0.68071,2.49887 -0.10081,1.073 -0.34751,1.9646 -0.62995,2.27669 -0.31541,0.34853 -0.52165,1.23535 -0.64326,2.76602 -0.12028,1.51398 -0.37297,2.60977 -0.77032,3.34056 -0.4311,0.79284 -0.59133,1.56514 -0.59133,2.85014 0,1.32652 -0.14659,1.9998 -0.59247,2.72126 -0.42111,0.68136 -0.63128,1.56332 -0.72664,3.04923 -0.0943,1.469 -0.29069,2.3023 -0.66061,2.80264 -0.36675,0.49606 -0.57603,1.37135 -0.68992,2.88553 -0.10869,1.44512 -0.32929,2.40349 -0.65827,2.85981 -0.32155,0.44602 -0.5617,1.4553 -0.68588,2.88255 -0.11992,1.37839 -0.36954,2.4518 -0.67033,2.88255 -0.30405,0.43543 -0.54543,1.48831 -0.66031,2.88022 -0.11313,1.37089 -0.33977,2.36928 -0.60416,2.66142 -0.24996,0.27621 -0.52698,1.396 -0.67695,2.73641 -0.13961,1.24788 -0.35525,2.33569 -0.47919,2.41735 -0.51045,0.33631 -0.8566,1.42793 -0.8566,2.70142 0,0.9816 -0.16706,1.56605 -0.60782,2.12639 -0.44885,0.57062 -0.63607,1.24446 -0.71581,2.57641 -0.0787,1.31491 -0.25694,1.96595 -0.65765,2.40247 -0.39616,0.43156 -0.58905,1.12158 -0.6907,2.47076 -0.0976,1.29518 -0.2994,2.04618 -0.65498,2.43738 -0.33229,0.36559 -0.57758,1.19029 -0.69403,2.3335 -0.10505,1.03126 -0.38295,2.02994 -0.66687,2.39646 -0.28499,0.36791 -0.56833,1.38998 -0.68353,2.46571 -0.10872,1.01523 -0.41306,2.14666 -0.68019,2.52869 -0.27373,0.39146 -0.5565,1.46542 -0.65187,2.4758 -0.0926,0.98144 -0.33665,2.27859 -0.54224,2.88255 -0.82673,2.42862 -0.74585,8.72002 0.12334,9.59477 0.14253,0.14344 0.26957,1.19351 0.28231,2.33349 0.0343,3.0715 0.36435,5.25628 0.84734,5.60945 0.24404,0.17844 0.50623,0.983 0.62181,1.90808 0.13143,1.05195 0.38011,1.75387 0.72641,2.05038 0.28961,0.24798 0.52824,0.70136 0.5303,1.00754 0.007,1.02111 0.32505,1.77228 0.81679,1.92835 0.2677,0.085 0.55823,0.51199 0.64562,0.94894 0.0874,0.43695 0.39117,1.0201 0.67506,1.29589 0.28389,0.27578 0.59834,0.72934 0.69877,1.00791 0.10043,0.27857 0.42905,0.57094 0.73027,0.64971 0.30122,0.0788 0.54767,0.30977 0.54767,0.51333 0,0.20357 0.27796,0.51679 0.61769,0.69606 0.55236,0.29147 1.85307,1.50678 1.85307,1.73139 0,0.0484 -0.49025,0.16643 -1.08945,0.26225 -0.68313,0.10924 -1.19867,0.37829 -1.3823,0.72141 -0.20503,0.3831 -0.57489,0.54719 -1.23335,0.54719 -0.59584,0 -1.13341,0.20707 -1.46691,0.56504 -0.36306,0.3897 -1.107,0.64727 -2.39734,0.83 -1.02901,0.14573 -2.2366,0.44738 -2.68354,0.67034 -1.11063,0.55406 -5.26687,0.5457 -6.60469,-0.0133 -0.56935,-0.23789 -2.33223,-0.49276 -4.08282,-0.59029 -2.68658,-0.14968 -3.18015,-0.25419 -3.85686,-0.81673 -0.4268,-0.35478 -1.118,-0.64507 -1.53598,-0.64507 -0.41799,0 -0.97724,-0.24007 -1.24278,-0.53349 -0.26555,-0.29343 -0.8715,-0.61799 -1.34656,-0.72125 -0.47507,-0.10327 -1.15856,-0.48088 -1.51888,-0.83915 -0.36032,-0.35826 -0.80938,-0.65139 -0.99791,-0.65139 -0.18853,0 -0.54514,-0.30884 -0.79247,-0.68632 -0.24734,-0.37748 -0.63216,-0.68632 -0.85516,-0.68632 -0.22301,0 -0.40547,-0.18837 -0.40547,-0.41859 0,-0.23022 -0.30133,-0.53315 -0.66963,-0.67318 -0.36829,-0.14002 -0.801,-0.50006 -0.96156,-0.80008 -0.56267,-1.05135 -5.24327,-0.98111 -5.84138,0.0877 -0.1422,0.25409 -0.55741,0.57562 -0.9227,0.7145 -0.36529,0.13888 -0.66417,0.44088 -0.66417,0.6711 0,0.23022 -0.19988,0.41859 -0.44418,0.41859 -0.2443,0 -0.85456,0.36032 -1.35614,0.80071 -0.50157,0.44039 -1.08795,0.90365 -1.30306,1.02948 -0.2151,0.12582 -0.5996,0.63662 -0.85444,1.13511 -0.25484,0.49849 -0.64218,0.97497 -0.86078,1.05886 -0.21859,0.0839 -0.39744,0.32541 -0.39744,0.53674 0,0.21134 -0.30884,0.65278 -0.68632,0.98099 -0.37747,0.32821 -0.68632,0.71589 -0.68632,0.86151 0,0.14562 -0.25672,0.52484 -0.5705,0.84271 -0.79836,0.80879 -2.17478,2.66744 -2.17478,2.93671 0,0.12336 -0.29481,0.5528 -0.65513,0.9543 -1.32902,1.4809 -1.56967,1.8031 -1.89085,2.53148 -0.18046,0.40928 -0.54621,0.90557 -0.81277,1.10287 -0.26656,0.1973 -0.48465,0.51475 -0.48465,0.70544 0,0.1907 -0.27796,0.60875 -0.61769,0.929 -0.33973,0.32025 -0.9883,1.01942 -1.44127,1.55372 -0.45297,0.53429 -0.92848,0.97401 -1.05669,0.97714 -0.1282,0.003 -0.75821,0.56161 -1.40002,1.24107 -0.64181,0.67945 -1.32825,1.23537 -1.52542,1.23537 -0.19718,0 -0.76342,0.30885 -1.25832,0.68633 -0.49489,0.37747 -1.08635,0.68632 -1.31435,0.68632 -0.228,0 -0.57902,0.23481 -0.78004,0.52181 -0.20102,0.287 -0.88192,0.66088 -1.51312,0.83084 -0.63119,0.16997 -1.33222,0.49363 -1.55785,0.71926 -0.22563,0.22562 -0.9966,0.51977 -1.71327,0.65366 -0.71666,0.13389 -1.43855,0.42876 -1.60418,0.65527 -0.16563,0.22652 -0.88412,0.49927 -1.59664,0.60612 -0.71253,0.10685 -1.57202,0.41008 -1.90998,0.67383 -0.33796,0.26377 -1.3557,0.56927 -2.26164,0.6789 -0.94793,0.11471 -1.88025,0.40709 -2.19623,0.68875 -0.33095,0.29501 -1.18941,0.55151 -2.1611,0.64572 -1.03808,0.10065 -1.82004,0.34558 -2.19623,0.68791 -0.45278,0.41205 -1.13154,0.56371 -3.01769,0.67428 -1.89027,0.11081 -2.60788,0.27157 -3.21459,0.72013 -0.70965,0.52467 -1.14616,0.57748 -4.77286,0.57748 -2.47817,0 -3.99178,-0.10409 -3.99178,-0.27453 z m 14.34005,-4.87287 c 0.45826,-0.43076 0.99368,-0.61769 1.76916,-0.61769 0.7072,0 1.37381,-0.20592 1.83111,-0.56563 0.39549,-0.31109 1.18426,-0.6302 1.75282,-0.70912 1.26255,-0.17527 2.54366,-0.63973 2.54366,-0.9222 0,-0.11475 0.56097,-0.34988 1.2466,-0.52252 0.68562,-0.17265 1.31524,-0.4928 1.39914,-0.71145 0.0839,-0.21865 0.56494,-0.47491 1.06895,-0.56947 0.50402,-0.0945 1.12259,-0.39975 1.37461,-0.67822 0.25201,-0.27847 0.80319,-0.58209 1.22485,-0.6747 0.42166,-0.0926 0.98392,-0.40846 1.24947,-0.70188 0.26554,-0.29342 0.64896,-0.5335 0.85205,-0.5335 0.20308,0 0.64491,-0.27796 0.98184,-0.61768 0.63995,-0.64526 0.87506,-0.81323 2.40167,-1.71581 0.51076,-0.30198 1.19839,-0.82701 1.52806,-1.16674 0.32968,-0.33973 0.72546,-0.61769 0.87951,-0.61769 0.15406,0 0.48247,-0.30885 0.7298,-0.68632 0.24734,-0.37748 0.62383,-0.68632 0.83666,-0.68632 0.21283,0 0.46539,-0.24708 0.56123,-0.54906 0.0958,-0.30198 0.3539,-0.54906 0.57344,-0.54906 0.21955,0 0.53882,-0.30647 0.70949,-0.68104 0.17066,-0.37458 0.53863,-0.75351 0.8177,-0.84209 0.27906,-0.0886 0.50739,-0.34067 0.50739,-0.56022 0,-0.21954 0.30885,-0.53989 0.68632,-0.71188 0.37748,-0.17199 0.68632,-0.46398 0.68632,-0.64887 0,-0.18488 0.30885,-0.53851 0.68632,-0.78584 0.37748,-0.24734 0.68633,-0.63216 0.68633,-0.85516 0,-0.22301 0.18795,-0.40547 0.41767,-0.40547 0.22973,0 0.56946,-0.33385 0.75496,-0.7419 0.1855,-0.40804 0.61523,-1.02012 0.95496,-1.36016 0.33973,-0.34004 0.61769,-0.84124 0.61769,-1.11376 0,-0.27253 0.24708,-0.6498 0.54906,-0.83839 0.30198,-0.18859 0.54905,-0.50801 0.54905,-0.70981 0,-0.20181 0.23579,-0.5803 0.52397,-0.84111 0.28819,-0.2608 0.68347,-0.86675 0.87842,-1.34655 0.19493,-0.47981 0.57684,-1.0338 0.84866,-1.2311 0.27183,-0.1973 0.49424,-0.48831 0.49424,-0.6467 0,-0.15838 0.30884,-0.655 0.68632,-1.1036 0.37748,-0.44861 0.68632,-1.0082 0.68632,-1.24353 0,-0.23534 0.30884,-0.71411 0.68632,-1.06394 0.43944,-0.40726 0.68632,-0.93357 0.68632,-1.4631 0,-0.54513 0.18652,-0.92685 0.5472,-1.11989 0.34131,-0.18266 0.61199,-0.69802 0.71939,-1.36967 0.0947,-0.59226 0.40626,-1.28866 0.69234,-1.54756 0.28608,-0.2589 0.59462,-0.93642 0.68563,-1.50558 0.091,-0.56917 0.3293,-1.09772 0.52953,-1.17455 0.20022,-0.0768 0.51549,-0.67127 0.70058,-1.32096 0.1851,-0.64969 0.54736,-1.42833 0.80504,-1.73032 0.25767,-0.30198 0.54794,-0.99536 0.64505,-1.54084 0.0971,-0.54549 0.42121,-1.21321 0.72024,-1.48383 0.29902,-0.27061 0.54368,-0.77443 0.54368,-1.1196 0,-1.31239 0.48071,-0.85245 0.63101,0.60375 0.0865,0.83825 0.33374,1.79338 0.5494,2.12251 0.23665,0.36118 0.47255,1.77883 0.59504,3.57595 0.24194,3.54961 0.53299,4.01895 2.49222,4.01895 0.96501,0 1.40343,-0.15556 1.93418,-0.68632 0.37748,-0.37747 0.8014,-0.68632 0.94204,-0.68632 0.14065,0 0.45809,-0.30884 0.70542,-0.68632 0.24733,-0.37748 0.61644,-0.68632 0.82025,-0.68632 0.20381,0 0.49832,-0.23871 0.65446,-0.53047 0.15614,-0.29175 0.52478,-0.60692 0.8192,-0.70036 0.29442,-0.0934 0.61172,-0.41066 0.70511,-0.70491 0.0934,-0.29426 0.31532,-0.53502 0.49316,-0.53502 0.42955,0 3.48305,-3.29249 3.48305,-3.75566 0,-0.19924 0.18795,-0.36226 0.41768,-0.36226 0.22972,0 0.55839,-0.30885 0.73038,-0.68632 0.17199,-0.37748 0.48976,-0.68632 0.70614,-0.68632 0.21638,0 0.45653,-0.24133 0.53367,-0.53628 0.0771,-0.29495 0.43617,-0.73018 0.79788,-0.96717 0.3617,-0.237 0.65765,-0.60389 0.65765,-0.81531 0,-0.21142 0.30884,-0.75144 0.68632,-1.20005 0.37747,-0.44861 0.68632,-0.96528 0.68632,-1.14818 0,-0.18289 0.30884,-0.69957 0.68632,-1.14818 0.37748,-0.4486 0.68632,-1.00819 0.68632,-1.24352 0,-0.23534 0.30884,-0.71411 0.68632,-1.06395 0.37748,-0.34983 0.68632,-0.88903 0.68632,-1.19822 0,-0.30919 0.12554,-0.56217 0.27897,-0.56217 0.15344,0 0.49317,-0.46326 0.75496,-1.02948 0.26179,-0.56621 0.67521,-1.17903 0.91873,-1.36182 0.24351,-0.18279 0.51619,-0.78491 0.60595,-1.33806 0.0898,-0.55314 0.36494,-1.22863 0.6115,-1.50108 0.24656,-0.27245 0.56784,-1.02741 0.71395,-1.6777 0.14611,-0.65028 0.45495,-1.39151 0.68632,-1.64717 0.23137,-0.25566 0.53386,-0.96862 0.67221,-1.58438 0.13835,-0.61574 0.49782,-1.36581 0.79882,-1.66681 0.301,-0.301 0.54727,-0.89389 0.54727,-1.31753 0,-0.42363 0.30885,-1.18886 0.68633,-1.7005 0.45187,-0.61248 0.68632,-1.29095 0.68632,-1.98615 0,-0.64845 0.22676,-1.36261 0.58766,-1.85075 0.35342,-0.47803 0.64348,-1.37575 0.72769,-2.25219 0.0774,-0.80496 0.37387,-1.77361 0.6624,-2.16386 0.30513,-0.41271 0.58912,-1.38377 0.6829,-2.33505 0.10098,-1.02437 0.33945,-1.80075 0.64281,-2.09277 0.29794,-0.28682 0.55741,-1.11167 0.67886,-2.15809 0.11833,-1.01956 0.3855,-1.88275 0.67115,-2.16839 0.3277,-0.3277 0.53082,-1.1401 0.65635,-2.62512 0.11698,-1.38387 0.34036,-2.32578 0.62657,-2.64204 0.28007,-0.30947 0.52825,-1.31948 0.67019,-2.72746 0.14294,-1.41792 0.38957,-2.41738 0.6741,-2.73178 0.29568,-0.32672 0.5229,-1.30996 0.66629,-2.88319 0.11968,-1.31306 0.35944,-2.47504 0.53279,-2.58217 0.45734,-0.28266 0.8542,-1.86989 0.8542,-3.41632 0,-0.89223 0.19694,-1.66071 0.58758,-2.29278 0.39845,-0.64469 0.63251,-1.5787 0.72717,-2.90164 0.094,-1.3136 0.29403,-2.11669 0.61237,-2.45838 0.45843,-0.49207 0.81817,-2.17958 0.81817,-3.83799 0,-0.44583 0.23462,-1.10887 0.52138,-1.47343 0.33739,-0.42893 0.59076,-1.3537 0.71799,-2.62069 0.10815,-1.07682 0.41531,-2.34226 0.68258,-2.81208 0.26728,-0.46982 0.56717,-1.70623 0.66642,-2.74758 0.11892,-1.24767 0.36369,-2.12631 0.71774,-2.57641 0.29551,-0.37568 0.53728,-1.02752 0.53728,-1.44854 0,-0.42103 0.30885,-1.13255 0.68633,-1.58115 0.37747,-0.44861 0.68632,-1.12334 0.68632,-1.4994 0,-0.42639 0.25832,-0.853 0.68632,-1.13344 0.37747,-0.24733 0.68632,-0.58827 0.68632,-0.75764 0,-0.30573 0.38009,-0.74137 2.16406,-2.48029 3.92327,-3.82422 4.78028,-4.60013 5.24324,-4.74706 0.28926,-0.0918 0.60235,-0.40769 0.69575,-0.70194 0.0934,-0.29426 0.39559,-0.53502 0.67154,-0.53502 0.27596,0 0.79267,-0.30671 1.14825,-0.68158 0.35558,-0.37486 0.79808,-0.68371 0.98334,-0.68632 0.18525,-0.003 0.53919,-0.31359 0.78652,-0.69106 0.24733,-0.37748 0.69413,-0.68632 0.99288,-0.68632 0.31231,0 0.60421,-0.23338 0.68677,-0.54906 0.079,-0.30198 0.31018,-0.54906 0.5138,-0.54906 0.20362,0 0.79233,-0.37061 1.30823,-0.82358 0.51591,-0.45297 1.07178,-0.82359 1.23527,-0.82359 0.1635,0 0.43266,-0.25299 0.59814,-0.5622 0.16549,-0.3092 0.60222,-0.67676 0.97051,-0.81679 0.3683,-0.14002 0.66963,-0.44295 0.66963,-0.67318 0,-0.23022 0.18613,-0.41858 0.41361,-0.41858 0.22748,0 0.68214,-0.30885 1.01036,-0.68632 0.32821,-0.37748 0.74975,-0.68632 0.93676,-0.68632 0.44825,0 3.8927,-3.49458 4.39712,-4.46109 0.21668,-0.41523 0.50227,-0.75495 0.63462,-0.75495 0.13233,0 0.3757,-0.38748 0.54077,-0.86107 0.1651,-0.47358 0.50217,-1.00876 0.74905,-1.18929 0.28076,-0.20529 0.50135,-0.88532 0.58895,-1.81559 0.0777,-0.82552 0.36095,-1.77081 0.63652,-2.12437 0.64607,-0.82896 0.95775,-2.91383 0.56457,-3.77674 -0.22893,-0.50245 -0.51823,-0.66502 -1.18341,-0.66502 -0.50675,0 -1.13205,-0.23639 -1.47326,-0.55696 -0.3696,-0.3472 -1.15165,-0.62224 -2.07667,-0.73032 -0.98221,-0.11476 -1.60506,-0.3441 -1.84252,-0.67842 -0.19731,-0.27778 -0.54008,-0.50506 -0.76177,-0.50506 -0.22165,0 -0.52042,-0.30884 -0.66394,-0.68632 -0.14353,-0.37748 -0.4493,-0.68632 -0.67953,-0.68632 -0.2315,0 -0.41859,-0.23845 -0.41859,-0.53349 0,-1.05638 -0.87696,-1.32575 -3.15344,-0.96863 -1.13785,0.1785 -2.28392,0.5192 -2.5468,0.75711 -0.38635,0.34963 -1.68838,0.48194 -6.79147,0.6901 -4.7602,0.19418 -6.57501,0.3677 -7.37649,0.70528 -0.76014,0.32017 -1.93341,0.45115 -4.11793,0.4597 -3.46727,0.0136 -5.36013,0.30122 -5.78393,0.87895 -0.18254,0.24884 -1.00417,0.45353 -2.20695,0.5498 -1.53829,0.12312 -1.99153,0.26688 -2.29835,0.72897 -0.23009,0.34653 -0.6754,0.57561 -1.11895,0.57561 -0.40522,0 -1.15538,0.30884 -1.66702,0.68632 -0.51164,0.37747 -1.1911,0.68632 -1.50991,0.68632 -0.31881,0 -0.99826,0.30884 -1.50991,0.68632 -0.51164,0.37748 -1.06928,0.68632 -1.2392,0.68632 -0.16993,0 -0.57749,0.30884 -0.9057,0.68632 -0.32821,0.37748 -0.78183,0.68632 -1.00803,0.68632 -0.22621,0 -0.56558,0.24708 -0.75417,0.54906 -0.18859,0.30198 -0.49961,0.54906 -0.69115,0.54906 -0.19154,0 -0.73607,0.37061 -1.21006,0.82358 -0.47399,0.45297 -1.02046,0.82359 -1.21438,0.82359 -0.19391,0 -0.42899,0.24075 -0.52238,0.53501 -0.0934,0.29426 -0.41056,0.61143 -0.70482,0.70482 -0.29426,0.0934 -0.53501,0.34944 -0.53501,0.56899 0,0.21954 -0.30885,0.53989 -0.68633,0.71188 -0.37747,0.17199 -0.68632,0.41743 -0.68632,0.54542 0,0.12799 -0.89565,1.15277 -1.99033,2.27729 -2.88601,2.96467 -3.50024,3.69057 -3.50024,4.13667 0,0.21906 -0.24707,0.55259 -0.54905,0.74118 -0.30198,0.18859 -0.54906,0.4993 -0.54906,0.69046 0,0.19117 -0.30884,0.61611 -0.68632,0.94432 -0.37748,0.32821 -0.68632,0.75543 -0.68632,0.94938 0,0.19394 -0.23013,0.47579 -0.51141,0.62632 -0.28127,0.15053 -0.67655,0.67991 -0.87841,1.1764 -0.20185,0.49649 -0.5894,1.06414 -0.86123,1.26144 -0.27183,0.1973 -0.49424,0.54527 -0.49424,0.77327 0,0.228 -0.30884,0.81946 -0.68632,1.31435 -0.37747,0.4949 -0.68632,1.0593 -0.68632,1.25422 0,0.19492 -0.30884,0.64062 -0.68632,0.99046 -0.37748,0.34983 -0.68632,0.93758 -0.68632,1.30612 0,0.36853 -0.18637,0.74157 -0.41417,0.82899 -0.22779,0.0874 -0.56752,0.50043 -0.75495,0.91782 -0.18743,0.41739 -0.55383,0.97364 -0.81423,1.2361 -0.26039,0.26246 -0.55832,0.82008 -0.66206,1.23914 -0.10374,0.41907 -0.40595,0.91651 -0.67157,1.10544 -0.26562,0.18893 -0.56453,0.71499 -0.66426,1.16903 -0.0997,0.45404 -0.41835,0.95238 -0.70806,1.10743 -0.28971,0.15505 -0.52674,0.47591 -0.52674,0.71304 0,0.23712 -0.30884,0.79818 -0.68632,1.24678 -0.37748,0.44861 -0.68632,1.0489 -0.68632,1.33398 0,0.28509 -0.23871,0.64609 -0.53047,0.80223 -0.29175,0.15615 -0.6175,0.56199 -0.72388,0.90188 -0.10638,0.33989 -0.48536,0.96719 -0.84218,1.394 -0.35681,0.4268 -0.64876,0.94749 -0.64876,1.15708 0,0.20959 -0.24707,0.51331 -0.54905,0.67492 -0.30198,0.16162 -0.54906,0.46533 -0.54906,0.67492 0,0.20959 -0.29194,0.73028 -0.64876,1.15708 -0.35681,0.42681 -0.73579,1.05411 -0.84217,1.394 -0.10639,0.33989 -0.42209,0.74036 -0.70157,0.88993 -0.27949,0.14958 -0.59001,0.64463 -0.69005,1.10011 -0.10004,0.45548 -0.41893,0.95501 -0.70863,1.11006 -0.28971,0.15504 -0.52675,0.52851 -0.52675,0.82991 0,0.30141 -0.19734,0.62374 -0.43853,0.7163 -0.2412,0.0926 -0.66919,0.70637 -0.9511,1.36403 -0.2819,0.65766 -0.63813,1.19574 -0.79161,1.19574 -0.15348,0 -0.35546,0.30442 -0.44884,0.67649 -0.0934,0.37206 -0.40458,0.751 -0.69155,0.84208 -0.28697,0.0911 -0.52176,0.27578 -0.52176,0.41045 0,0.13466 -0.30903,0.58961 -0.68673,1.01098 -1.47514,1.64572 -2.33309,2.77363 -2.33309,3.06724 0,0.1688 -0.12063,0.30691 -0.26808,0.30691 -0.14745,0 -1.35195,1.05607 -2.67666,2.34682 -3.34634,3.26055 -3.52502,3.41828 -3.8724,3.41828 -0.16937,0 -0.5103,0.30885 -0.75763,0.68632 -0.24733,0.37748 -0.61975,0.68632 -0.82759,0.68632 -0.20784,0 -0.53219,0.24708 -0.72078,0.54906 -0.18859,0.30198 -0.4815,0.54906 -0.6509,0.54906 -0.16941,0 -0.77436,0.37061 -1.34436,0.82358 -0.56999,0.45297 -1.20032,0.82359 -1.40073,0.82359 -0.20041,0 -0.49662,0.24707 -0.65823,0.54905 -0.16161,0.30199 -0.54219,0.54906 -0.84572,0.54906 -0.30354,0 -0.86072,0.30885 -1.2382,0.68632 -0.37748,0.37748 -0.87413,0.68632 -1.10368,0.68632 -0.56602,0 -1.56743,0.54588 -1.83619,1.00093 -0.12074,0.20444 -0.57453,0.37171 -1.00841,0.37171 -0.44095,0 -1.14862,0.3027 -1.60453,0.68633 -0.44861,0.37747 -1.13875,0.68632 -1.53366,0.68632 -0.3949,0 -0.93247,0.25047 -1.19458,0.5566 -0.26212,0.30613 -0.94494,0.63149 -1.51737,0.72303 -0.57243,0.0915 -1.19065,0.38039 -1.37381,0.64189 -0.18317,0.26151 -0.76541,0.56717 -1.29387,0.67925 -0.52846,0.11208 -1.20791,0.42752 -1.50989,0.70097 -0.30198,0.27346 -1.0134,0.58292 -1.58093,0.68769 -0.56753,0.10477 -1.30875,0.40517 -1.64717,0.66756 -0.33841,0.26238 -1.1593,0.54807 -1.82419,0.63485 -0.66488,0.0868 -1.52965,0.3938 -1.9217,0.68226 -0.39204,0.28846 -1.3235,0.60742 -2.06991,0.70881 -0.74641,0.10139 -1.61117,0.41433 -1.9217,0.69543 -0.32678,0.2958 -1.17965,0.57953 -2.0248,0.6736 -0.80311,0.0894 -1.86776,0.41441 -2.36589,0.72227 -0.64447,0.39831 -1.3745,0.55975 -2.53105,0.55975 -1.1099,0 -1.97024,0.18012 -2.71288,0.56795 -0.6665,0.34807 -1.96631,0.65222 -3.35747,0.78564 -1.4076,0.13499 -2.45053,0.38068 -2.74529,0.64673 -0.29127,0.2629 -1.41071,0.53157 -2.89084,0.69383 -1.41949,0.1556 -2.60808,0.43507 -2.88255,0.67775 -0.2845,0.25156 -1.35194,0.48919 -2.73112,0.608 -1.49003,0.12836 -2.47551,0.35882 -2.88255,0.67412 -0.40678,0.3151 -1.37017,0.54061 -2.8147,0.65886 -1.4684,0.1202 -2.42367,0.34653 -2.88255,0.68295 -0.37747,0.27674 -1.3634,0.58267 -2.19095,0.67984 -0.99524,0.11687 -1.64582,0.35397 -1.92169,0.70035 -0.28681,0.36011 -0.88523,0.56531 -1.91599,0.65699 -1.13109,0.10061 -1.59403,0.27659 -1.88655,0.71714 -0.29255,0.44061 -0.66938,0.58382 -1.53619,0.58382 -0.79404,0 -1.4357,0.21184 -2.07882,0.68632 -0.51164,0.37748 -1.27808,0.68632 -1.70319,0.68632 -0.43671,0 -0.98025,0.24213 -1.24952,0.5566 -0.26211,0.30613 -0.94493,0.6315 -1.51736,0.72303 -0.57243,0.0915 -1.19064,0.37819 -1.3738,0.63701 -0.18316,0.25882 -0.79906,0.55726 -1.36867,0.66321 -0.5696,0.10595 -1.18612,0.43358 -1.37004,0.72809 -0.20245,0.32418 -0.63824,0.53546 -1.10443,0.53546 -0.44438,0 -1.04559,0.27556 -1.42162,0.6516 -0.35838,0.35837 -1.08703,0.73328 -1.61922,0.83312 -0.61929,0.11618 -1.02927,0.37574 -1.13886,0.72104 -0.10639,0.33521 -0.41616,0.53952 -0.81799,0.53952 -0.35572,0 -1.01381,0.30885 -1.46241,0.68632 -0.44861,0.37748 -0.98312,0.68648 -1.18781,0.68666 -0.20469,1.8e-4 -0.7311,0.30903 -1.16981,0.68632 -0.43871,0.37729 -1.03708,0.68599 -1.32972,0.68599 -0.29333,0 -0.59375,0.23591 -0.66955,0.5258 -0.0756,0.2892 -0.42943,0.59908 -0.78623,0.68863 -0.3568,0.0896 -0.98086,0.47063 -1.38679,0.84683 -0.40594,0.37622 -0.90099,0.68402 -1.10012,0.68402 -0.19912,0 -0.49427,0.24708 -0.65589,0.54906 -0.16161,0.30198 -0.47562,0.54906 -0.69779,0.54906 -0.22217,0 -0.67249,0.30884 -1.0007,0.68632 -0.32821,0.37747 -0.75147,0.68632 -0.94058,0.68632 -0.18911,0 -1.04536,0.67946 -1.90278,1.5099 -0.85742,0.83045 -1.66039,1.50991 -1.78439,1.50991 -0.12399,0 -0.30386,0.24708 -0.3997,0.54906 -0.0958,0.30198 -0.30401,0.54905 -0.46259,0.54905 -0.29684,0 -2.41996,2.00798 -2.41996,2.28872 0,0.0864 -0.27796,0.45753 -0.61769,0.82474 -1.35311,1.46255 -2.11447,2.53765 -2.12087,2.9948 -0.004,0.26423 -0.19509,0.48043 -0.42531,0.48043 -0.23023,0 -0.53722,0.31201 -0.6822,0.69335 -0.14499,0.38135 -0.43947,0.76084 -0.6544,0.84331 -0.21492,0.0825 -0.54061,0.5117 -0.72374,0.95382 -0.18314,0.44212 -0.42065,0.80386 -0.52781,0.80386 -0.10715,0 -0.36809,0.33973 -0.57985,0.75495 -0.39054,0.76578 -0.79725,1.27879 -2.03818,2.57087 -0.37917,0.39479 -0.68939,0.83581 -0.68939,0.98003 0,0.14423 -0.37061,0.67735 -0.82359,1.18472 -0.45297,0.50736 -0.82358,1.04048 -0.82358,1.18471 0,0.14423 -0.27796,0.53898 -0.61769,0.87722 -0.33973,0.33825 -0.92653,0.9935 -1.30401,1.45612 -0.37748,0.46262 -0.96428,1.16382 -1.30401,1.55823 -0.33973,0.3944 -0.61769,0.82419 -0.61769,0.95508 0,0.76594 -5.21294,5.2243 -6.10851,5.2243 -0.37436,0 -1.01645,0.26414 -1.42686,0.58696 -0.62417,0.49098 -1.29499,0.62256 -4.10195,0.80461 -1.84567,0.1197 -3.84287,0.40443 -4.43823,0.63273 -0.75457,0.28935 -2.96249,0.49471 -7.28871,0.67794 -4.46806,0.18923 -6.42868,0.37548 -7.00048,0.66501 -0.56834,0.28777 -2.19143,0.44538 -5.7068,0.55413 -4.40754,0.13635 -4.99202,0.21071 -5.68535,0.72332 -0.42503,0.31424 -1.11751,0.57429 -1.53885,0.57789 -1.2773,0.0109 -2.92892,0.48679 -3.25974,0.93921 -0.17168,0.23479 -0.64637,0.42688 -1.05488,0.42688 -0.95492,0 -1.80475,0.457 -1.80475,0.97051 0,0.22511 -0.25302,0.40213 -0.57476,0.40213 -0.34065,0 -0.63227,0.21994 -0.71596,0.53997 -0.0777,0.29698 -0.36161,0.60992 -0.63098,0.69541 -0.54753,0.17378 -0.9002,1.14918 -0.60452,1.67195 0.106,0.18742 0.67298,0.72178 1.25996,1.18747 l 1.06723,0.84672 4.97239,0.002 c 2.73482,8.3e-4 5.42337,0.12679 5.97456,0.27989 1.78122,0.49475 1.61105,1.46652 -0.57566,3.28745 -0.63462,0.52847 -1.43675,1.23881 -1.78251,1.57854 -0.34576,0.33973 -0.74663,0.61769 -0.89083,0.61769 -0.14419,0 -0.53071,0.30884 -0.85892,0.68632 -0.32821,0.37748 -0.72672,0.68632 -0.88557,0.68632 -0.15885,0 -0.59767,0.30884 -0.97514,0.68632 -0.37748,0.37748 -0.77831,0.68632 -0.89073,0.68632 -0.11242,0 -0.7245,0.47068 -1.36016,1.04595 -1.30131,1.17767 -1.48052,2.06104 -0.63096,3.1102 l 0.5248,0.6481 h 10.98239 c 10.70384,0 11.00213,-0.0145 11.76035,-0.573 0.5264,-0.38771 1.39783,-0.63042 2.69495,-0.75059 1.20446,-0.11159 2.17385,-0.36729 2.60802,-0.68794 0.38006,-0.28068 1.28284,-0.57688 2.00617,-0.65821 0.72334,-0.0813 1.55628,-0.36609 1.85099,-0.63281 0.29472,-0.26671 1.17179,-0.58546 1.94905,-0.70832 0.84189,-0.13309 1.62392,-0.44959 1.93446,-0.78292 0.30181,-0.32395 0.86964,-0.55951 1.34873,-0.55951 0.4551,0 1.28196,-0.30885 1.83747,-0.68633 0.5555,-0.37747 1.2044,-0.68632 1.442,-0.68632 0.2376,0 0.85061,-0.30884 1.36225,-0.68632 0.51164,-0.37747 1.20874,-0.68632 1.5491,-0.68632 0.34036,0 0.95209,-0.30884 1.35939,-0.68632 0.40731,-0.37748 0.90082,-0.68632 1.09669,-0.68632 0.19588,0 0.51758,-0.23048 0.71488,-0.51217 0.19731,-0.2817 0.76126,-0.60059 1.25323,-0.70864 0.49197,-0.10805 1.02134,-0.4335 1.17639,-0.7232 0.15505,-0.28971 0.48209,-0.52675 0.72676,-0.52675 0.24467,0 0.84977,-0.30884 1.34467,-0.68632 0.49489,-0.37747 1.02523,-0.68632 1.17851,-0.68632 0.15329,0 0.61195,-0.30884 1.01925,-0.68632 0.40731,-0.37748 0.94806,-0.68632 1.20167,-0.68632 0.25361,0 0.75126,-0.30885 1.10588,-0.68632 0.35462,-0.37748 0.82159,-0.68632 1.03771,-0.68632 0.21612,0 0.75998,-0.30885 1.20859,-0.68632 0.4486,-0.37748 0.98447,-0.68633 1.1908,-0.68633 0.20634,0 0.5366,-0.23047 0.73391,-0.51217 0.1973,-0.28169 0.76007,-0.60032 1.2506,-0.70806 0.49052,-0.10773 1.04644,-0.41321 1.23537,-0.67883 0.18892,-0.26562 0.71411,-0.57384 1.16708,-0.68493 0.45297,-0.1111 1.07066,-0.42369 1.37264,-0.69467 0.30199,-0.27097 0.88537,-0.57215 1.29642,-0.66929 0.41104,-0.0971 0.96696,-0.4058 1.23537,-0.68591 0.26842,-0.28012 0.93433,-0.58988 1.47982,-0.68837 0.54548,-0.0985 1.21321,-0.42373 1.48382,-0.72276 0.32199,-0.35579 0.84403,-0.54369 1.51058,-0.54369 0.62375,0 1.30684,-0.22677 1.76236,-0.58508 0.43182,-0.33968 1.28219,-0.63432 2.02735,-0.70246 1.91609,-0.1752 2.43679,-0.31672 2.91136,-0.7913 0.34614,-0.34614 1.55089,-0.47883 6.12746,-0.6749 3.87382,-0.16597 6.17905,-0.38906 7.20433,-0.69722 1.51199,-0.45446 1.78161,-0.44831 5.76728,0.13151 0.98144,0.14278 4.74934,0.40509 8.37312,0.58293 4.94156,0.2425 6.79457,0.43063 7.41226,0.75255 0.61391,0.31995 2.15613,0.4802 6.0576,0.62946 3.94643,0.15097 5.56726,0.32107 6.58868,0.69146 1.19513,0.43339 2.6577,0.50444 12.41873,0.60332 6.08523,0.0616 11.34497,0.0416 11.68829,-0.0446 1.1803,-0.29635 4.56323,-4.1313 4.56323,-5.17308 0,-0.26829 0.12984,-0.48781 0.28854,-0.48781 0.36071,0 1.0841,-1.69031 1.0841,-2.53316 0,-0.34601 0.22972,-0.77257 0.51049,-0.94791 0.29477,-0.18409 0.58643,-0.79367 0.69019,-1.44254 0.0988,-0.61806 0.42503,-1.36907 0.72488,-1.66893 0.29986,-0.29986 0.5452,-0.90699 0.5452,-1.34917 0,-0.44219 0.16579,-0.96978 0.36843,-1.17242 0.53429,-0.53428 0.90265,-1.32755 1.1004,-2.3697 0.0954,-0.50296 0.42168,-1.22997 0.72499,-1.61556 0.3033,-0.38559 0.55146,-1.0467 0.55146,-1.46914 0,-0.50593 0.17317,-0.82302 0.5074,-0.9291 0.27907,-0.0886 0.64703,-0.46751 0.8177,-0.84209 0.17067,-0.37457 0.50224,-0.68104 0.73683,-0.68104 0.23459,0 0.53825,-0.27796 0.6748,-0.61769 0.1755,-0.43661 0.25338,0.14157 0.26568,1.97229 0.0137,2.03836 -0.0975,2.8277 -0.52199,3.70613 -0.41792,0.86479 -0.58171,1.98171 -0.72727,4.95956 -0.1501,3.07084 -0.28639,3.9704 -0.67799,4.47524 -0.26957,0.34752 -0.57787,1.33412 -0.68512,2.19246 -0.10724,0.85833 -0.41187,1.87115 -0.67695,2.2507 -0.26508,0.37955 -0.55893,1.43132 -0.653,2.33726 -0.10227,0.98493 -0.33905,1.77339 -0.58893,1.96112 -0.22984,0.17267 -0.49289,0.79036 -0.58455,1.37264 -0.0917,0.58228 -0.45664,1.4079 -0.81107,1.83471 -0.35442,0.42681 -0.64441,1.06656 -0.64441,1.42167 0,0.3551 -0.16579,0.81144 -0.36843,1.01408 -0.5513,0.5513 -1.00421,1.48983 -1.00421,2.08094 0,0.28851 -0.24466,0.74597 -0.54369,1.01659 -0.29903,0.27062 -0.6257,0.93834 -0.72594,1.48382 -0.10024,0.54549 -0.47327,1.341 -0.82895,1.76781 -0.35569,0.42681 -0.6467,0.92439 -0.6467,1.10573 0,0.18135 -0.25051,0.54422 -0.55669,0.80638 -0.30618,0.26216 -0.63047,0.84553 -0.72064,1.29639 -0.0902,0.45085 -0.33215,0.81973 -0.53774,0.81973 -0.20559,0 -0.54162,0.4015 -0.74674,0.89222 -0.20513,0.49072 -0.5774,1.06177 -0.82727,1.26899 -0.24988,0.20723 -0.45432,0.58645 -0.45432,0.84271 0,0.25627 -0.30884,0.73447 -0.68632,1.06269 -0.37748,0.32821 -0.68632,0.72934 -0.68632,0.89141 0,0.16206 -0.30885,0.69957 -0.68632,1.19447 -0.37748,0.4949 -0.68632,1.03696 -0.68632,1.20458 0,0.16762 -0.27796,0.60971 -0.61769,0.98241 -1.84566,2.0248 -2.45754,3.42323 -1.82913,4.18041 0.28963,0.34898 0.82661,0.41519 2.75418,0.33959 2.02899,-0.0796 2.49469,-0.18817 3.05155,-0.71159 z M 378.73,293.04943 c 0.86342,-0.46209 0.55578,-2.48665 -0.46992,-3.09243 -0.20444,-0.12075 -0.37171,-0.63942 -0.37171,-1.1526 0,-0.61477 -0.23413,-1.18569 -0.68632,-1.67362 -0.40486,-0.43684 -0.68633,-1.06785 -0.68633,-1.53861 0,-0.43894 -0.30884,-1.25257 -0.68632,-1.80808 -0.37747,-0.5555 -0.68632,-1.39706 -0.68632,-1.87011 0,-0.47306 -0.24489,-1.17143 -0.54421,-1.55195 -0.37678,-0.479 -0.59776,-1.31389 -0.71825,-2.71368 -0.0968,-1.12492 -0.38938,-2.40076 -0.65948,-2.87604 -0.267,-0.46982 -0.57422,-1.73813 -0.68272,-2.81848 -0.12073,-1.20218 -0.38172,-2.19205 -0.6727,-2.5514 -0.42002,-0.5187 -0.57871,-0.55114 -1.36142,-0.27828 -0.91094,0.31755 -4.42066,3.6072 -4.42066,4.14347 0,0.16497 -0.13639,0.29995 -0.30309,0.29995 -0.34391,0 -3.5403,3.18872 -3.5403,3.53179 0,0.12291 -0.30885,0.36419 -0.68632,0.53618 -0.37748,0.17199 -0.68633,0.49234 -0.68633,0.71189 0,0.21955 -0.23479,0.4737 -0.52176,0.56478 -0.28697,0.0911 -0.59896,0.47316 -0.6933,0.84907 -0.0943,0.3759 -0.41548,0.9274 -0.71362,1.22554 -0.29814,0.29814 -0.54207,0.83288 -0.54207,1.18831 0,0.35542 -0.30885,0.97948 -0.68632,1.38678 -0.56619,0.61093 -0.68581,1.01438 -0.6834,2.30495 0.003,1.41153 0.0927,1.65157 0.92142,2.45661 0.50517,0.49072 1.04556,0.89222 1.20088,0.89222 0.15531,0 0.48475,0.30884 0.73208,0.68632 0.27339,0.41724 0.70861,0.68632 1.11008,0.68632 0.36321,0 0.84521,0.18483 1.07111,0.41073 0.59242,0.59242 1.70566,0.96191 2.89815,0.96191 0.67901,0 1.20461,0.18444 1.52058,0.53358 0.26558,0.29346 0.80976,0.5838 1.20929,0.64519 1.64253,0.25236 10.5349,0.17962 11.03928,-0.0903 z"
         id="path1399" />
      <path
         style="fill:#ffffff;stroke:none;stroke-width:1.37264"
         d="m 384.24804,158.86956 c -1.49316,-0.4553 -1.56866,-2.57585 -0.15166,-4.25985 0.36036,-0.42826 0.6552,-0.89272 0.6552,-1.03212 0,-0.13941 0.22554,-0.25347 0.5012,-0.25347 0.27566,0 0.79135,-0.30884 1.14597,-0.68632 0.4508,-0.47986 0.94006,-0.68834 1.62639,-0.69303 0.53989,-0.004 1.53755,-0.1372 2.21701,-0.29669 0.67945,-0.15949 1.81639,-0.38418 2.52652,-0.49932 1.51852,-0.24619 1.5914,-0.15003 1.5914,2.09958 0,1.41575 -0.0912,1.6332 -1.2566,2.99736 -0.69114,0.80898 -1.42755,1.47088 -1.63648,1.47088 -0.20893,0 -0.63359,0.27233 -0.94368,0.60517 -0.49138,0.52743 -0.88953,0.61405 -3.09914,0.67419 -1.39443,0.038 -2.82369,-0.0189 -3.17613,-0.12638 z"
         id="path1438" />
      <path
         style="fill:#ffffff;stroke:none;stroke-width:0.343161"
         d="m 412.61831,161.16101 c -0.0658,-0.1004 -0.19281,-0.36055 -0.28228,-0.57811 -0.2103,-0.51138 -0.22088,-1.39882 -0.03,-2.51535 0.16228,-0.94923 0.27664,-1.24953 0.51766,-1.35935 0.0992,-0.0452 0.22558,-0.16973 0.28094,-0.27677 0.14112,-0.2729 0.23248,-1.48726 0.16149,-2.14646 -0.0325,-0.30198 -0.0608,-0.6335 -0.0628,-0.73671 -0.002,-0.10601 -0.0902,-0.28443 -0.20243,-0.41007 -0.18526,-0.20734 -0.21053,-0.2161 -0.37295,-0.12917 -0.24209,0.12956 -0.30297,0.32189 -0.42564,1.34458 -0.16445,1.37111 -0.20983,1.47909 -0.73091,1.73931 -0.34744,0.17351 -0.44469,0.46253 -0.56939,1.6923 -0.17421,1.71803 -0.55243,2.84823 -0.95314,2.84823 -0.25233,0 -0.57724,-0.13577 -0.62738,-0.26217 -0.0252,-0.0634 -0.0419,-0.74844 -0.0372,-1.52226 0.007,-1.14073 0.0344,-1.51746 0.14501,-1.99091 0.16126,-0.69003 0.46441,-1.25843 0.74989,-1.40606 0.31943,-0.16519 0.41441,-0.4377 0.51249,-1.47035 0.10655,-1.12201 0.18757,-1.31621 0.63914,-1.53197 0.41015,-0.19597 0.53003,-0.43078 0.73249,-1.43472 0.0873,-0.43282 0.19431,-0.78349 0.24987,-0.81866 0.0534,-0.0338 0.22984,-0.062 0.39198,-0.0626 0.57141,-0.002 0.76818,-0.4153 0.64316,-1.35086 -0.0792,-0.59281 -0.18212,-0.72874 -0.52617,-0.69502 -0.17806,0.0174 -0.23597,0.0805 -0.42831,0.46629 -0.1326,0.26597 -0.24816,0.63222 -0.28617,0.90701 -0.0351,0.2535 -0.0824,0.49107 -0.1052,0.52794 -0.0228,0.0369 -0.1874,0.0876 -0.36583,0.11275 -0.55228,0.0778 -0.68273,0.22849 -0.79924,0.92306 -0.0645,0.38477 -0.28715,0.68197 -0.62162,0.82992 -0.16694,0.0738 -0.36245,0.21845 -0.43446,0.32133 -0.15086,0.21556 -0.49373,1.05293 -0.49373,1.20584 0,0.16154 -0.33401,0.518 -0.62402,0.66595 -0.14498,0.074 -0.29683,0.19657 -0.33745,0.27246 -0.0406,0.0759 -0.148,0.52406 -0.23864,0.99594 -0.21243,1.10595 -0.42767,1.46519 -0.94266,1.57332 -0.27048,0.0568 -0.32703,0.21886 -0.40298,1.15483 -0.0747,0.92027 -0.12074,1.09131 -0.42588,1.58144 -0.18155,0.29161 -0.22716,0.3257 -0.38445,0.28736 -0.0982,-0.0239 -0.23578,-0.0997 -0.30584,-0.16845 -0.1752,-0.17188 -0.22122,-0.85201 -0.11483,-1.69722 0.11555,-0.91805 0.33197,-1.31629 0.77212,-1.4208 0.10272,-0.0244 0.22039,-0.10718 0.26149,-0.18399 0.0411,-0.0768 0.10336,-0.59132 0.13835,-1.14337 0.088,-1.38892 0.14267,-1.54765 0.60023,-1.74378 0.24998,-0.10716 0.32339,-0.1875 0.47718,-0.52229 0.21967,-0.47817 0.28177,-1.08706 0.13136,-1.28786 -0.12942,-0.17278 -0.6711,-0.19283 -0.83309,-0.0308 -0.0585,0.0585 -0.14084,0.3056 -0.18293,0.54905 -0.11435,0.66157 -0.20538,0.79721 -0.61705,0.91947 -0.42573,0.12643 -0.51911,0.19876 -0.64476,0.49948 -0.0739,0.17686 -0.30681,1.2111 -0.30681,1.36238 0,0.1054 -0.46596,0.51678 -0.65663,0.5797 -0.29946,0.0988 -0.38553,0.26695 -0.57898,1.13091 -0.18998,0.84844 -0.38555,1.16911 -0.78125,1.28097 -0.15527,0.0439 -0.3176,0.11336 -0.36072,0.15437 -0.0431,0.041 -0.12503,0.3062 -0.182,0.5893 -0.12119,0.60229 -0.34899,1.23619 -0.52021,1.44763 -0.11826,0.14605 -0.12622,0.1467 -0.37179,0.0302 -0.27163,-0.1289 -0.28187,-0.15742 -0.35317,-0.98399 -0.0264,-0.30643 -0.006,-0.50675 0.0684,-0.68632 0.12845,-0.30797 0.49444,-0.6997 0.65373,-0.6997 0.0639,0 0.18159,-0.054 0.26153,-0.12011 0.1209,-0.0999 0.16063,-0.25519 0.23637,-0.92401 0.10672,-0.94221 0.31075,-1.37297 0.74851,-1.58026 0.31108,-0.14731 0.34148,-0.20377 0.59389,-1.10268 0.24328,-0.86637 0.33873,-1.02624 0.72416,-1.21282 0.38149,-0.18468 0.49532,-0.31825 0.55699,-0.65364 0.0835,-0.45386 0.38329,-0.85721 0.79372,-1.06771 0.20739,-0.10637 0.30398,-0.24038 0.5754,-0.79832 0.2573,-0.52892 0.41737,-0.75775 0.75802,-1.08372 0.40899,-0.39135 0.57139,-0.66702 0.67737,-1.14976 0.0557,-0.25392 0.41973,-0.65553 0.70043,-0.77281 0.22337,-0.0933 0.29904,-0.20842 0.50835,-0.7732 0.10435,-0.28157 0.565,-0.76135 0.81449,-0.84832 0.11898,-0.0415 0.28935,-0.22057 0.45814,-0.48161 0.29634,-0.45827 0.72179,-0.81429 0.97308,-0.81429 0.21505,0 0.42808,-0.11847 0.42808,-0.23806 0,-0.0954 0.60136,-0.72279 0.69283,-0.72279 0.0926,0 0.47391,0.48658 0.47391,0.6048 0,0.24546 -0.19426,0.4102 -0.53974,0.45771 -0.26613,0.0366 -0.35115,0.0811 -0.41248,0.21566 -0.0982,0.21544 -0.0999,0.74744 -0.003,0.92838 0.1146,0.21412 0.47064,0.33482 0.78112,0.26479 0.28129,-0.0634 0.37715,-0.15895 0.37944,-0.37806 7.8e-4,-0.0755 0.0343,-0.25555 0.0744,-0.40012 0.0566,-0.20375 0.12629,-0.28512 0.31003,-0.3619 0.28243,-0.118 0.39417,-0.0726 0.71217,0.28962 0.18956,0.2159 0.2167,0.29006 0.18308,0.5002 -0.0507,0.3166 -0.26066,0.48694 -0.60032,0.48694 -0.39775,0 -0.54155,0.17784 -0.54107,0.66916 7.8e-4,0.80685 0.1647,1.04664 0.71546,1.04664 0.12457,0 0.30015,0.0575 0.39017,0.12783 0.09,0.0703 0.29788,0.19597 0.4619,0.27925 0.28315,0.14378 0.30482,0.14545 0.42895,0.0331 0.0719,-0.0651 0.13073,-0.15507 0.13073,-0.19999 0,-0.12731 -0.23513,-0.30884 -0.40004,-0.30884 -0.29502,0 -0.42354,-0.22909 -0.42354,-0.75496 0,-0.38891 0.0261,-0.50657 0.13726,-0.61769 0.22843,-0.22843 0.50542,-0.17676 0.8567,0.15982 0.17052,0.16339 0.31005,0.34646 0.31005,0.40681 0,0.13526 0.31776,0.39422 0.48374,0.39422 0.15011,0 0.54574,0.52246 0.54574,0.72069 0,0.26734 -0.3404,0.84266 -0.5834,0.98604 -0.27803,0.16404 -0.34509,0.37052 -0.43758,1.3474 -0.0358,0.37748 -0.1357,0.90252 -0.22212,1.16675 -0.1314,0.40172 -0.22172,0.5425 -0.55133,0.85938 -0.44194,0.42485 -0.4965,0.57454 -0.57481,1.57706 -0.0613,0.78432 -0.27037,1.83789 -0.49537,2.49604 -0.15667,0.45826 -0.21775,0.55582 -0.40345,0.64437 -0.2995,0.14282 -0.36874,0.33331 -0.44131,1.21407 -0.13396,1.62575 -0.18197,1.93653 -0.3569,2.31017 -0.0953,0.20358 -0.21891,0.42954 -0.27467,0.50214 -0.0985,0.12819 -0.10485,0.12673 -0.221,-0.0505 z m 0.29909,-1.72863 c -0.002,-0.43351 -0.0401,-0.85723 -0.0903,-0.99517 l -0.0876,-0.24021 -0.0788,0.3637 c -0.10277,0.47427 -0.10123,1.53665 0.003,1.76443 l 0.0814,0.17857 0.0878,-0.15819 c 0.057,-0.10262 0.0868,-0.42332 0.085,-0.91313 z m -2.61408,-0.10867 c 0.1744,-0.47567 0.31942,-1.67429 0.26184,-2.1642 -0.0497,-0.42268 -0.20728,-0.79136 -0.38598,-0.90297 -0.11024,-0.0688 -0.14582,-0.0263 -0.31911,0.38178 -0.18316,0.43129 -0.19504,0.51782 -0.19504,1.42076 0,0.96354 0.0441,1.20087 0.29757,1.59988 0.12226,0.1925 0.16131,0.15408 0.34072,-0.33525 z m -8.08287,-0.27487 c 0.13075,-0.39617 -0.0718,-0.70813 -0.26196,-0.40356 -0.0689,0.11041 -0.0702,0.19702 -0.006,0.41197 0.0449,0.1497 0.1026,0.27218 0.12833,0.27218 0.0257,0 0.0885,-0.12626 0.13939,-0.28059 z m 4.01177,-0.0603 c 0.0896,-0.17319 0.0941,-0.3035 0.0306,-0.87333 -0.0411,-0.36838 -0.0898,-0.69421 -0.10825,-0.72409 -0.0844,-0.1366 -0.15227,0.0667 -0.23259,0.69697 -0.0703,0.55165 -0.0702,0.72233 4.9e-4,0.89301 0.10932,0.26392 0.17631,0.26553 0.30977,0.007 z m -2.63278,-2.20871 0.12842,-0.70216 -0.14643,-0.15586 -0.14643,-0.15587 -0.13942,0.17723 c -0.13107,0.16664 -0.13492,0.21566 -0.0643,0.81922 0.11984,1.0241 0.1835,1.02712 0.36815,0.0174 z m 4.0346,-1.19291 c 0.0736,-0.30087 0.14169,-0.60882 0.15135,-0.68431 0.0296,-0.23149 -0.0769,-0.56254 -0.22373,-0.69545 -0.13574,-0.12285 -0.14242,-0.12258 -0.24364,0.01 -0.27655,0.36232 -0.30814,0.55839 -0.19082,1.18448 0.12086,0.64499 0.21676,0.88861 0.31222,0.79314 0.0335,-0.0335 0.12105,-0.30702 0.19462,-0.6079 z m 6.62287,-0.34176 c 0.0562,-0.22615 0.13296,-0.73277 0.17066,-1.12582 0.0738,-0.76899 0.0255,-1.01703 -0.24438,-1.25715 -0.12024,-0.10697 -0.14808,-0.10846 -0.28133,-0.0151 -0.22752,0.15936 -0.2837,0.48923 -0.21964,1.28962 0.0744,0.92931 0.2821,1.71013 0.41863,1.57361 0.0297,-0.0297 0.0999,-0.23898 0.15606,-0.46513 z m -2.66746,-0.24487 c 0.11651,-0.2253 0.30985,-1.47824 0.25322,-1.64092 -0.056,-0.16096 -0.30383,-0.41278 -0.40618,-0.41278 -0.0506,0 -0.1553,0.10038 -0.23267,0.22306 -0.12409,0.19674 -0.13761,0.30833 -0.11458,0.94602 0.0198,0.54793 0.0571,0.77551 0.15428,0.93996 0.14394,0.24367 0.19558,0.23541 0.34593,-0.0553 z m -6.70808,-0.008 c 0.1666,-0.1666 0.0788,-1.56481 -0.0982,-1.56481 -0.0517,0 -0.094,0.016 -0.094,0.0355 0,0.0195 -0.0641,0.33115 -0.14233,0.69247 -0.13506,0.62339 -0.13627,0.66366 -0.0237,0.78808 0.13682,0.15118 0.24151,0.16543 0.35818,0.0488 z m 3.95554,-1.58197 c 0.0178,-0.0849 0.0827,-0.37061 0.14407,-0.63485 0.16071,-0.69137 0.15828,-0.73344 -0.049,-0.85149 -0.16978,-0.0967 -0.19573,-0.0943 -0.33458,0.0302 -0.14217,0.12749 -0.14808,0.1729 -0.10638,0.81803 0.0407,0.63046 0.0931,0.78793 0.26338,0.79149 0.0276,5.5e-4 0.0647,-0.0684 0.0826,-0.15337 z m -2.42874,-1.15723 c 0.0754,-0.18207 0.0676,-0.2215 -0.0743,-0.37252 -0.20847,-0.22191 -0.29918,-0.21307 -0.46263,0.0451 -0.15191,0.23992 -0.13533,0.39128 0.0666,0.60803 0.1282,0.1376 0.14622,0.14004 0.26184,0.0354 0.0683,-0.0618 0.16212,-0.204 0.2085,-0.31599 z m 6.7887,-0.0234 c 0.11086,-0.13357 -0.18395,-1.46373 -0.34331,-1.54902 -0.18228,-0.0976 -0.24108,0.0286 -0.3684,0.7908 l -0.11465,0.68633 0.1741,0.15093 c 0.14708,0.12751 0.20545,0.14 0.37623,0.0805 0.11118,-0.0387 0.23539,-0.11053 0.27603,-0.1595 z m 1.02215,-0.45006 c 0.0396,-0.11362 0.0923,-0.38596 0.11712,-0.6052 0.0407,-0.36002 0.0286,-0.41776 -0.12504,-0.59641 -0.16686,-0.19398 -0.17362,-0.19551 -0.35061,-0.0795 -0.0993,0.065 -0.1806,0.17159 -0.18076,0.23678 -4.1e-4,0.17382 0.35905,1.25096 0.41745,1.25096 0.0274,0 0.0822,-0.093 0.12184,-0.20659 z m 1.39139,-0.35963 c 0.22725,-0.50272 0.22197,-1.19738 -0.0127,-1.66496 -0.16125,-0.32138 -0.19246,-0.34401 -0.81964,-0.59438 -0.3586,-0.14316 -0.67393,-0.26087 -0.70072,-0.26159 -0.0268,-7.1e-4 -0.0858,0.12263 -0.13123,0.27411 -0.0663,0.22113 -0.0645,0.30905 0.009,0.44611 0.0502,0.0939 0.134,0.1707 0.18611,0.1707 0.19218,0 0.48254,0.20495 0.55452,0.3914 0.0408,0.10558 0.0949,0.32781 0.12036,0.49383 0.0733,0.47815 0.40024,1.1051 0.57634,1.1051 0.0304,0 0.12849,-0.16214 0.21807,-0.36032 z m -6.42914,-0.40989 c 0.15492,-0.36844 -0.13074,-1.01423 -0.44863,-1.01423 -0.16895,0 -0.46091,0.37216 -0.51401,0.65517 -0.13521,0.72074 0.68235,1.02568 0.96264,0.35906 z m 1.09537,0.21586 c 0.0977,-0.11615 0.1973,-0.28927 0.22125,-0.38472 0.0567,-0.22605 -0.12838,-0.61356 -0.32254,-0.67519 -0.21274,-0.0675 -0.47631,0.21515 -0.52263,0.5605 -0.0302,0.2251 -0.005,0.30854 0.14849,0.4909 0.10168,0.12083 0.21026,0.2197 0.2413,0.2197 0.031,0 0.13639,-0.095 0.23413,-0.21119 z m -2.57041,-0.33267 c 0.11417,-0.21331 -0.15503,-0.84207 -0.31663,-0.73956 -0.0319,0.0203 -0.13527,0.18058 -0.22964,0.35627 l -0.17158,0.31945 0.19283,0.16681 c 0.21115,0.18266 0.39104,0.14738 0.52502,-0.10297 z m 3.83139,-1.32637 c 0.0389,-0.0472 0.0928,-0.40079 0.11995,-0.7858 l 0.0493,-0.70001 -0.1852,-0.0465 c -0.10704,-0.0269 -0.21728,-0.0144 -0.26122,0.0295 -0.0418,0.0418 -0.11065,0.37253 -0.15298,0.73495 -0.0735,0.62954 -0.0708,0.66328 0.062,0.75627 0.17128,0.11997 0.27615,0.12326 0.36815,0.0115 z m -1.3069,-0.0686 c 0.0373,-0.0472 0.0875,-0.37942 0.11156,-0.73831 0.0407,-0.60647 0.034,-0.65865 -0.0952,-0.73936 -0.0975,-0.0609 -0.17734,-0.0664 -0.26723,-0.0182 -0.10645,0.057 -0.1366,0.18649 -0.17798,0.76469 -0.0397,0.55499 -0.0308,0.70814 0.0439,0.75551 0.13523,0.0857 0.30664,0.0749 0.38494,-0.0243 z m -1.28714,-0.72064 c 0.0781,-0.25479 0.15651,-0.51067 0.17428,-0.56861 0.0198,-0.0644 -0.044,-0.15043 -0.16431,-0.22148 -0.18731,-0.11066 -0.20231,-0.10986 -0.31698,0.0168 -0.0958,0.10592 -0.111,0.19994 -0.0744,0.4617 0.0866,0.61904 0.12302,0.77481 0.1812,0.77481 0.032,0 0.12212,-0.20847 0.2002,-0.46327 z m 1.4519,-1.57218 c 0.24135,-0.27443 0.21202,-0.60931 -0.0725,-0.82776 -0.20993,-0.16118 -0.33971,-0.10217 -0.57855,0.26309 -0.13925,0.21295 -0.064,0.50263 0.17929,0.68999 0.16012,0.12333 0.28142,0.0911 0.47176,-0.12532 z m 1.29694,0.0424 c 0.30359,-0.30359 0.30599,-0.72425 0.005,-0.8853 -0.20605,-0.11028 -0.35993,-0.0883 -0.53528,0.0764 -0.21407,0.20111 -0.21001,0.53047 0.009,0.76728 0.20206,0.21802 0.33381,0.22855 0.52076,0.0416 z m 1.34064,-0.3625 c 0.0426,-0.12778 -0.13734,-0.38971 -0.26766,-0.38971 -0.11633,0 -0.32077,0.21959 -0.32077,0.34454 0,0.0646 0.0667,0.20222 0.14831,0.30592 l 0.14831,0.18854 0.12509,-0.16213 c 0.0688,-0.0892 0.14382,-0.21839 0.16672,-0.28716 z m -1.50808,-1.12856 c 0.0415,-0.0277 0.11113,-0.11807 0.15465,-0.20075 0.0669,-0.1271 0.0532,-0.18014 -0.0889,-0.34317 l -0.16802,-0.19282 -0.21258,0.21011 -0.21259,0.21012 0.14514,0.18452 c 0.14778,0.18786 0.2472,0.22219 0.38228,0.13199 z m 2.66977,-0.29541 c 0,-0.053 -0.0541,-0.1067 -0.12011,-0.11942 -0.1183,-0.0228 -0.16721,0.12284 -0.0729,0.21713 0.0719,0.0719 0.19303,0.0106 0.19303,-0.0977 z"
         id="path1711" />
      <path
         style="fill:#ffffff;stroke:none;stroke-width:1.37264"
         d="m 414.60654,281.61277 c -0.69357,-0.11056 -0.75495,-0.22052 -0.75495,-1.35255 0,-0.68077 0.26502,-1.80904 0.5922,-2.52115 0.48415,-1.05376 0.61215,-1.94016 0.70153,-4.85782 0.0883,-2.88137 0.21853,-3.79897 0.67626,-4.76331 0.45377,-0.956 0.59317,-1.91504 0.69835,-4.80425 0.10031,-2.75583 0.25388,-3.87187 0.64916,-4.71757 0.38864,-0.83149 0.56029,-2.02964 0.68826,-4.80425 0.12475,-2.7047 0.30476,-3.99111 0.67093,-4.7946 0.34863,-0.76502 0.55982,-2.13901 0.69622,-4.52971 0.13045,-2.28636 0.33198,-3.63967 0.60385,-4.05504 0.26927,-0.41139 0.49496,-1.89373 0.66356,-4.35837 0.17919,-2.61933 0.38757,-3.9365 0.69765,-4.40973 0.3192,-0.48717 0.49483,-1.68532 0.63163,-4.309 0.14395,-2.7607 0.30496,-3.81042 0.66992,-4.36741 0.32335,-0.4935 0.52937,-1.51769 0.63011,-3.13254 l 0.14969,-2.39931 0.37608,1.08627 c 0.20684,0.59745 0.54417,1.18034 0.74963,1.29532 0.20545,0.11498 0.45433,0.63962 0.55305,1.16587 0.0987,0.52625 0.40285,1.1148 0.67583,1.30788 0.27298,0.19307 0.58183,0.81076 0.68632,1.37264 0.1045,0.56187 0.41334,1.17956 0.68632,1.37264 0.27298,0.19308 0.58221,0.81282 0.68718,1.3772 0.10496,0.56438 0.4161,1.14669 0.69141,1.29403 0.29536,0.15808 0.57263,0.71858 0.67636,1.36732 0.11069,0.69219 0.37849,1.20789 0.72301,1.39227 0.31206,0.16701 0.54719,0.57456 0.54719,0.94845 0,0.36058 0.30885,1.02264 0.68633,1.47125 0.37747,0.4486 0.68632,1.07577 0.68632,1.3937 0,0.31793 0.24056,0.81862 0.53457,1.11264 0.29402,0.29401 0.67111,1.0416 0.83798,1.6613 0.16686,0.61971 0.47008,1.1907 0.67381,1.26888 0.20373,0.0782 0.45002,0.56646 0.54731,1.08506 0.0973,0.51861 0.40389,1.15862 0.68133,1.42226 0.27744,0.26364 0.5876,0.86803 0.68924,1.34309 0.10164,0.47506 0.41264,1.06994 0.69111,1.32196 0.27847,0.25201 0.58644,0.88528 0.68436,1.40727 0.0979,0.52199 0.419,1.09955 0.71351,1.28347 0.31677,0.19783 0.53546,0.63801 0.53546,1.0778 0,0.41247 0.30553,1.07308 0.68632,1.48396 0.37748,0.4073 0.68632,1.02499 0.68632,1.37264 0,0.34765 0.30884,0.96534 0.68632,1.37264 0.37748,0.40731 0.68632,0.98264 0.68632,1.27853 0,0.29588 0.30885,0.90501 0.68632,1.35362 0.37748,0.4486 0.68632,1.09586 0.68632,1.43835 0,0.34249 0.22812,0.82915 0.50693,1.08147 0.27881,0.25232 0.65634,0.95746 0.83896,1.56697 0.18261,0.60951 0.49584,1.17107 0.69607,1.24791 0.20023,0.0768 0.44182,0.62607 0.53688,1.22053 0.10295,0.64384 0.39353,1.21866 0.7187,1.42173 0.30022,0.18749 0.54586,0.56638 0.54586,0.84196 0,0.63877 0.51975,1.6357 1.00093,1.91989 0.20444,0.12075 0.37171,0.51277 0.37171,0.87115 0,0.3584 0.30885,1.01866 0.68633,1.46727 0.37747,0.44861 0.68632,1.04828 0.68632,1.33262 0,0.7766 0.72078,1.65193 1.52684,1.85424 1.20795,0.30318 1.74927,-0.0436 1.94114,-1.24347 0.10396,-0.65013 0.38018,-1.1999 0.68477,-1.36291 0.30585,-0.16369 0.58099,-0.71396 0.68632,-1.37264 0.10373,-0.64874 0.381,-1.20924 0.67636,-1.36731 0.27531,-0.14734 0.58645,-0.72966 0.69141,-1.29404 0.10497,-0.56438 0.4142,-1.18412 0.68718,-1.3772 0.27298,-0.19307 0.58182,-0.81076 0.68632,-1.37264 0.10449,-0.56187 0.40396,-1.17299 0.66547,-1.35803 0.26151,-0.18505 0.55209,-0.74485 0.64573,-1.24402 0.0937,-0.49916 0.41681,-1.11866 0.71813,-1.37667 0.30133,-0.258 0.54788,-0.77279 0.54788,-1.14396 0,-0.37118 0.30884,-1.00812 0.68632,-1.41542 0.37748,-0.4073 0.68632,-1.01332 0.68632,-1.3467 0,-0.33338 0.30884,-0.93939 0.68632,-1.3467 0.40556,-0.4376 0.68632,-1.06773 0.68632,-1.54033 0,-0.51295 0.19268,-0.9029 0.53725,-1.08731 0.31191,-0.16693 0.61728,-0.71791 0.72809,-1.31367 0.10496,-0.56438 0.41419,-1.18411 0.68717,-1.37719 0.27298,-0.19308 0.58183,-0.81077 0.68632,-1.37265 0.1045,-0.56187 0.40849,-1.17616 0.67555,-1.36509 0.26705,-0.18892 0.57149,-0.74484 0.67652,-1.23538 0.10504,-0.49053 0.41798,-1.10758 0.69542,-1.37121 0.27744,-0.26364 0.58749,-0.92208 0.68901,-1.4632 0.10151,-0.54111 0.35294,-1.04846 0.55872,-1.12742 0.20578,-0.079 0.51128,-0.65286 0.67889,-1.27533 0.16761,-0.62246 0.53957,-1.29622 0.82657,-1.49724 0.287,-0.20102 0.52182,-0.64333 0.52182,-0.98291 0,-0.33959 0.30884,-1.03604 0.68632,-1.54768 0.37747,-0.51164 0.68632,-1.15454 0.68632,-1.42866 0,-0.27413 0.25047,-0.71287 0.5566,-0.97499 0.30613,-0.26212 0.63148,-0.94485 0.723,-1.51719 0.0956,-0.5976 0.3795,-1.15466 0.66696,-1.30851 0.27531,-0.14734 0.58645,-0.72966 0.69141,-1.29404 0.10497,-0.56438 0.40935,-1.18072 0.6764,-1.36964 0.26705,-0.18893 0.57044,-0.74485 0.67419,-1.23538 0.10375,-0.49053 0.40617,-1.13895 0.67203,-1.44093 0.26586,-0.30198 0.5714,-0.91967 0.67896,-1.37265 0.10756,-0.45297 0.43261,-1.04458 0.72235,-1.3147 0.28973,-0.27012 0.52678,-0.73338 0.52678,-1.02948 0,-1.12768 0.48007,-0.47508 0.63926,0.869 0.0917,0.77405 0.34531,1.67999 0.56363,2.01319 0.25987,0.39661 0.46569,1.81243 0.59601,4.09995 0.1458,2.55928 0.33576,3.76225 0.70999,4.49628 0.32475,0.63698 0.51532,1.6062 0.52298,2.6599 0.0194,2.67437 0.44467,5.62901 0.88255,6.13237 0.29195,0.33561 0.45019,1.45264 0.56277,3.97248 0.12033,2.69336 0.28364,3.77467 0.70485,4.66698 0.42853,0.90781 0.57549,1.92143 0.67306,4.64212 0.0935,2.60802 0.24589,3.7093 0.60768,4.39245 0.35865,0.67723 0.53416,1.91709 0.68234,4.82034 0.15691,3.07402 0.30585,4.07053 0.69755,4.66699 0.39457,0.60082 0.5355,1.5679 0.67833,4.65478 0.14159,3.06005 0.28551,4.057 0.67049,4.64456 0.37706,0.57546 0.4976,1.35529 0.52224,3.37859 l 0.032,2.63046 -2.08879,0.0795 -2.0888,0.0795 -0.17606,-1.28454 c -0.0968,-0.7065 -0.17607,-1.72245 -0.17607,-2.25767 0,-0.53522 -0.23411,-1.47539 -0.52024,-2.08928 -0.40316,-0.86497 -0.55433,-1.99904 -0.67172,-5.03923 -0.11374,-2.9457 -0.2682,-4.1426 -0.61995,-4.80424 -0.34576,-0.65036 -0.51946,-1.9326 -0.66312,-4.895 -0.1477,-3.04589 -0.31321,-4.23753 -0.68632,-4.94151 -0.37363,-0.70497 -0.53869,-1.89804 -0.68751,-4.96929 -0.15406,-3.17959 -0.30029,-4.20101 -0.68559,-4.78906 -0.3854,-0.5882 -0.53074,-1.60438 -0.68209,-4.76908 -0.1336,-2.79342 -0.32231,-4.26526 -0.6179,-4.81943 -0.23406,-0.4388 -0.56241,-1.31007 -0.72967,-1.93616 -0.36982,-1.38428 -1.05988,-1.74441 -1.73797,-0.90701 -0.26556,0.32795 -0.48283,0.86171 -0.48283,1.18614 0,0.32443 -0.24096,0.74035 -0.53546,0.92427 -0.2945,0.18392 -0.62214,0.80044 -0.72809,1.37005 -0.10595,0.5696 -0.41598,1.19362 -0.68896,1.38669 -0.27298,0.19308 -0.5774,0.78323 -0.6765,1.31145 -0.0991,0.52822 -0.39849,1.07724 -0.66533,1.22005 -0.26684,0.14281 -0.57191,0.72206 -0.67793,1.28723 -0.10603,0.56517 -0.41494,1.18318 -0.68646,1.37336 -0.27153,0.19019 -0.58037,0.80788 -0.68632,1.37265 -0.10596,0.56477 -0.42911,1.19248 -0.71814,1.39492 -0.28902,0.20244 -0.52549,0.66043 -0.52549,1.01776 0,0.35733 -0.30885,1.01674 -0.68632,1.46534 -0.37748,0.44861 -0.68632,1.05773 -0.68632,1.35362 0,0.29588 -0.30885,0.87122 -0.68632,1.27852 -0.37748,0.40731 -0.68633,1.04424 -0.68633,1.41542 0,0.37118 -0.24654,0.88596 -0.54787,1.14397 -0.30133,0.258 -0.62897,0.90537 -0.72809,1.43858 -0.0991,0.53322 -0.40356,1.12746 -0.67654,1.32054 -0.27298,0.19308 -0.57863,0.78974 -0.67922,1.32593 -0.10059,0.53618 -0.35147,1.03956 -0.55751,1.11863 -0.20604,0.0791 -0.51824,0.62313 -0.69378,1.20904 -0.17554,0.5859 -0.54729,1.27172 -0.8261,1.52404 -0.27881,0.25232 -0.50693,0.66269 -0.50693,0.91194 0,0.24924 -0.30884,0.87179 -0.68632,1.38343 -0.37747,0.51164 -0.68632,1.13443 -0.68632,1.38397 0,0.24954 -0.25044,0.74247 -0.55653,1.0954 -0.30609,0.35293 -0.63115,0.95864 -0.72235,1.34602 -0.0912,0.38738 -0.38752,0.9514 -0.65849,1.25338 -0.27098,0.30198 -0.58102,0.91967 -0.68899,1.37264 -0.10797,0.45298 -0.41496,1.03433 -0.6822,1.29191 -0.26724,0.25758 -0.57527,0.87526 -0.68451,1.37263 -0.10924,0.49737 -0.42417,1.06229 -0.69983,1.25537 -0.27567,0.19309 -0.58352,0.78976 -0.68411,1.32594 -0.10058,0.53618 -0.35431,1.04066 -0.56382,1.12106 -0.20952,0.0804 -0.51532,0.67985 -0.67957,1.33212 -0.28179,1.11911 -0.33547,1.16916 -0.95247,0.88803 -0.42835,-0.19517 -0.71374,-0.61713 -0.82749,-1.22349 -0.0955,-0.50907 -0.38082,-1.07698 -0.63403,-1.26202 -0.25321,-0.18505 -0.61064,-0.8487 -0.79428,-1.47479 -0.18364,-0.62608 -0.50247,-1.20302 -0.70852,-1.28209 -0.20604,-0.0791 -0.45692,-0.58245 -0.5575,-1.11863 -0.10059,-0.53618 -0.40624,-1.13285 -0.67922,-1.32593 -0.27298,-0.19308 -0.58221,-0.81281 -0.68717,-1.37719 -0.11081,-0.59576 -0.41618,-1.14674 -0.72809,-1.31367 -0.31427,-0.16819 -0.53725,-0.57354 -0.53725,-0.97667 0,-0.37903 -0.30884,-0.99798 -0.68632,-1.37546 -0.37748,-0.37748 -0.68632,-0.99545 -0.68632,-1.37327 0,-0.38011 -0.30656,-0.97106 -0.68632,-1.32301 -0.37748,-0.34984 -0.68632,-0.89038 -0.68632,-1.20121 0,-0.31083 -0.30885,-0.93219 -0.68632,-1.38079 -0.37748,-0.44861 -0.68632,-1.06941 -0.68632,-1.37956 0,-0.31015 -0.30885,-0.89716 -0.68633,-1.30447 -0.37747,-0.4073 -0.68632,-1.01221 -0.68632,-1.34424 0,-0.33202 -0.22811,-0.81013 -0.50692,-1.06244 -0.27881,-0.25232 -0.65634,-0.95746 -0.83896,-1.56697 -0.18261,-0.60952 -0.49827,-1.172 -0.70146,-1.24998 -0.20319,-0.078 -0.44577,-0.54863 -0.53906,-1.04591 -0.0933,-0.49727 -0.41428,-1.12555 -0.71331,-1.39617 -0.29902,-0.27062 -0.54368,-0.69596 -0.54368,-0.9452 0,-0.24925 -0.30885,-0.87179 -0.68633,-1.38343 -0.37747,-0.51164 -0.68632,-1.15454 -0.68632,-1.42867 0,-0.27412 -0.24654,-0.7095 -0.54787,-0.96751 -0.30133,-0.258 -0.62449,-0.87751 -0.71813,-1.37667 -0.0937,-0.49916 -0.37744,-1.05897 -0.63065,-1.24401 -0.25321,-0.18505 -0.61064,-0.8487 -0.79428,-1.47478 -0.18364,-0.62609 -0.51126,-1.2064 -0.72803,-1.28959 -0.21678,-0.0832 -0.47704,-0.59314 -0.57836,-1.13323 -0.10133,-0.5401 -0.40638,-1.1376 -0.67791,-1.32778 -0.27152,-0.19019 -0.58043,-0.8082 -0.68646,-1.37337 -0.10837,-0.57766 -0.41918,-1.14875 -0.70988,-1.30433 -0.28441,-0.15221 -0.51711,-0.51258 -0.51711,-0.80083 0,-0.28825 -0.28041,-0.85009 -0.62313,-1.24853 -0.61585,-0.71597 -0.62882,-0.71815 -1.10985,-0.18662 -0.26769,0.2958 -0.55992,1.0164 -0.64938,1.60134 -0.0895,0.58495 -0.34819,1.27727 -0.57493,1.5385 -0.29785,0.34315 -0.48067,1.60023 -0.65875,4.52972 -0.17017,2.79923 -0.38128,4.29771 -0.68178,4.8394 -0.30472,0.5493 -0.50335,2.00712 -0.66221,4.86035 -0.16907,3.03657 -0.34287,4.25264 -0.68168,4.76974 -0.34482,0.52625 -0.50468,1.71166 -0.66124,4.90323 -0.1632,3.32681 -0.30904,4.3657 -0.69568,4.9558 -0.39151,0.59752 -0.51574,1.52594 -0.62209,4.64916 -0.10041,2.94894 -0.25394,4.17312 -0.62829,5.00979 -0.27247,0.60898 -0.59716,2.1532 -0.72154,3.4316 l -0.22615,2.32438 -1.37264,0.0335 c -0.75496,0.0184 -1.71237,-0.0207 -2.1276,-0.0869 z"
         id="path1750" />
      <path
         style="fill:#ffffff;stroke:none;stroke-width:1.37264"
         d="m 518.53141,282.38082 c -0.331,-0.27635 -1.23246,-0.58611 -2.00323,-0.68836 -0.84488,-0.11208 -1.46304,-0.34651 -1.5566,-0.59034 -0.0854,-0.22244 -0.69725,-0.54092 -1.35975,-0.70774 -0.66249,-0.16682 -1.20454,-0.40901 -1.20454,-0.5382 0,-0.12919 -0.4015,-0.44165 -0.89222,-0.69436 -0.49072,-0.25271 -1.07752,-0.6706 -1.30401,-0.92863 -0.22648,-0.25804 -0.67641,-0.55269 -0.99984,-0.65478 -0.32342,-0.1021 -0.65159,-0.42861 -0.72925,-0.72559 -0.0837,-0.32004 -0.37531,-0.53997 -0.71596,-0.53997 -0.40031,0 -0.57476,-0.17445 -0.57476,-0.57476 0,-0.34388 -0.22055,-0.63243 -0.54906,-0.71834 -0.30198,-0.079 -0.54905,-0.31018 -0.54905,-0.5138 0,-0.20362 -0.37062,-0.79232 -0.82359,-1.30823 -0.45297,-0.51591 -0.82358,-1.06912 -0.82358,-1.22937 0,-0.16024 -0.23482,-0.45582 -0.52182,-0.65684 -0.287,-0.20102 -0.65895,-0.87479 -0.82657,-1.49725 -0.16761,-0.62246 -0.47321,-1.1964 -0.67911,-1.27541 -0.2059,-0.079 -0.4579,-0.7007 -0.56,-1.38155 -0.1021,-0.68083 -0.45733,-1.58329 -0.7894,-2.00546 -0.58607,-0.74507 -0.60365,-0.97088 -0.59999,-7.70348 0.004,-6.81084 0.0146,-6.94345 0.60151,-7.35456 0.39066,-0.27364 0.66081,-0.8394 0.77985,-1.63322 0.10018,-0.66801 0.41631,-1.42648 0.70251,-1.68549 0.28621,-0.25901 0.52037,-0.68187 0.52037,-0.93969 0,-0.25782 0.37062,-0.93512 0.82359,-1.50511 0.45297,-0.56999 0.82359,-1.20467 0.82359,-1.41039 0,-0.20572 0.18918,-0.37404 0.4204,-0.37404 0.23123,0 0.49998,-0.21619 0.59724,-0.48043 0.0973,-0.26423 0.4331,-0.74746 0.74633,-1.07384 0.31324,-0.32638 0.98146,-1.03672 1.48494,-1.57854 0.50348,-0.54181 1.08196,-0.98512 1.28551,-0.98512 0.20355,0 0.44851,-0.24708 0.54435,-0.54906 0.0959,-0.30198 0.35206,-0.54905 0.56937,-0.54905 0.21731,0 0.66365,-0.30885 0.99186,-0.68632 0.32821,-0.37748 0.7503,-0.68633 0.93797,-0.68633 0.18767,0 0.70826,-0.30884 1.15687,-0.68632 0.4486,-0.37747 1.12088,-0.68632 1.49395,-0.68632 0.37306,0 1.00818,-0.25949 1.41138,-0.57664 0.54006,-0.42481 1.47487,-0.66744 3.55042,-0.9215 1.54954,-0.18968 3.08126,-0.48611 3.40382,-0.65874 0.82686,-0.44252 2.42494,-0.38968 3.39563,0.11228 0.45325,0.23439 1.86876,0.49988 3.14558,0.58998 1.83932,0.12981 2.50319,0.29788 3.19628,0.80923 0.48113,0.35497 1.17097,0.64539 1.53298,0.64539 0.62453,0 1.10744,0.29734 3.15725,1.94402 0.48517,0.38975 1.09832,0.78737 1.36255,0.8836 0.26423,0.0962 0.48042,0.36179 0.48042,0.59014 0,0.22835 0.30885,0.49269 0.68633,0.58744 0.37747,0.0947 0.68632,0.34722 0.68632,0.56108 0,0.21385 0.30884,0.50625 0.68632,0.64976 0.37747,0.14352 0.68632,0.45236 0.68632,0.68632 0,0.23396 0.28303,0.533 0.62897,0.66452 0.34593,0.13152 0.79344,0.43731 0.99446,0.67953 0.55453,0.66816 1.37226,0.53958 1.6777,-0.2638 0.14726,-0.38731 0.26774,-2.43088 0.26774,-4.54127 v -3.83708 l 2.12759,0.0802 2.1276,0.0802 v 24.15851 24.1585 h -2.05896 -2.05897 l -0.13726,-3.56887 c -0.0755,-1.96288 -0.23721,-3.72329 -0.35937,-3.91203 -0.12215,-0.18874 -0.56843,-0.34316 -0.99173,-0.34316 -0.85337,0 -2.21391,0.96891 -4.5295,3.22571 -0.34858,0.33972 -0.77669,0.61768 -0.95135,0.61768 -0.17466,0 -0.45828,0.30885 -0.63027,0.68633 -0.17199,0.37747 -0.53561,0.68632 -0.80804,0.68632 -0.27244,0 -0.62161,0.23594 -0.77594,0.52432 -0.17161,0.32065 -0.71983,0.59852 -1.41134,0.71536 -0.6219,0.10506 -1.35785,0.41815 -1.63544,0.69574 -0.27759,0.27759 -0.95944,0.59002 -1.51523,0.69428 -0.55579,0.10427 -1.20783,0.42 -1.44897,0.70164 -0.40195,0.46944 -0.90737,0.51129 -6.07389,0.50292 -5.05087,-0.008 -5.69788,-0.0613 -6.23728,-0.51158 z m 7.73957,-3.08116 c 0.60396,-0.16194 2.23644,-0.44471 3.62772,-0.62838 1.53064,-0.20206 2.7232,-0.50841 3.01982,-0.77574 0.26961,-0.24299 0.86081,-0.5294 1.31378,-0.63648 0.45297,-0.10707 1.07066,-0.41731 1.37264,-0.68942 0.30198,-0.27211 0.88879,-0.62345 1.30401,-0.78076 0.41523,-0.15731 0.75496,-0.4473 0.75496,-0.64442 0,-0.19712 0.37061,-0.49829 0.82358,-0.66927 0.45297,-0.17098 0.82359,-0.50691 0.82359,-0.74651 0,-0.2396 0.19687,-0.43564 0.43749,-0.43564 0.24062,0 0.5006,-0.24132 0.57773,-0.53627 0.0771,-0.29495 0.43618,-0.73018 0.79789,-0.96718 0.3617,-0.237 0.65764,-0.59916 0.65764,-0.8048 0,-0.20564 0.30885,-0.57625 0.68632,-0.82358 0.47274,-0.30975 0.68632,-0.69919 0.68632,-1.25139 0,-0.49602 0.21378,-0.95142 0.5607,-1.19441 0.32149,-0.22518 0.63393,-0.84403 0.73236,-1.45055 0.0944,-0.58179 0.4289,-1.49303 0.74331,-2.02496 0.52789,-0.89311 0.57165,-1.38746 0.57165,-6.45772 0,-5.2166 -0.0308,-5.54012 -0.61769,-6.48382 -0.33972,-0.54629 -0.61768,-1.33145 -0.61768,-1.7448 0,-0.41336 -0.30885,-1.1186 -0.68633,-1.5672 -0.37747,-0.44861 -0.68632,-1.0489 -0.68632,-1.33398 0,-0.28509 -0.25299,-0.65373 -0.56219,-0.81922 -0.30921,-0.16548 -0.67677,-0.60221 -0.8168,-0.9705 -0.14002,-0.3683 -0.44295,-0.66963 -0.67317,-0.66963 -0.23023,0 -0.41859,-0.17093 -0.41859,-0.37985 0,-0.41819 -2.0346,-2.36544 -2.47155,-2.36544 -0.15056,0 -0.27374,-0.18295 -0.27374,-0.40656 0,-0.22361 -0.30884,-0.48408 -0.68632,-0.57882 -0.37747,-0.0947 -0.68632,-0.27357 -0.68632,-0.39741 0,-0.42658 -0.86399,-1.08796 -1.42125,-1.08796 -0.30715,0 -0.92549,-0.30885 -1.3741,-0.68632 -0.5698,-0.47946 -1.14362,-0.68632 -1.90381,-0.68632 -0.67032,0 -1.3837,-0.2185 -1.85779,-0.56901 -0.71561,-0.52907 -1.07285,-0.56279 -5.09036,-0.48043 -3.5731,0.0733 -4.37619,0.16454 -4.6412,0.52752 -0.19453,0.26646 -0.89033,0.49368 -1.77069,0.57825 -0.96213,0.0924 -1.66107,0.33739 -2.07666,0.72781 -0.34453,0.32367 -0.81237,0.5885 -1.03965,0.5885 -0.22727,0 -0.68176,0.30884 -1.00997,0.68632 -0.32821,0.37747 -0.74169,0.68632 -0.91884,0.68632 -0.619,0 -4.28875,3.73473 -4.51835,4.59835 -0.0903,0.33973 -0.33919,0.61769 -0.55305,0.61769 -0.21385,0 -0.51177,0.32338 -0.66205,0.71863 -0.15027,0.39525 -0.51782,1.0296 -0.81679,1.40966 -0.29896,0.38007 -0.54356,0.96656 -0.54356,1.30331 0,0.33676 -0.27796,0.96535 -0.61769,1.39688 -0.59615,0.75724 -0.62056,1.01655 -0.69988,7.43574 -0.0783,6.33673 -0.0563,6.677 0.46511,7.19843 0.30102,0.30102 0.63028,0.98959 0.73169,1.53017 0.10142,0.54059 0.40055,1.13429 0.66475,1.31934 0.2642,0.18505 0.56946,0.74214 0.67837,1.23797 0.1089,0.49582 0.4832,1.08838 0.83179,1.31678 0.34858,0.2284 0.6969,0.65659 0.77403,0.95155 0.0771,0.29495 0.3227,0.53627 0.54571,0.53627 0.22301,0 0.47249,0.25624 0.55439,0.56943 0.0819,0.31318 0.40515,0.63644 0.71834,0.71834 0.31934,0.0835 0.56943,0.37368 0.56943,0.66071 0,0.31162 0.2583,0.57664 0.66038,0.67756 0.36321,0.0912 0.71883,0.38925 0.79026,0.66242 0.0729,0.27856 0.4937,0.57658 0.95833,0.67863 0.45564,0.10007 1.0457,0.42203 1.31124,0.71545 0.26555,0.29342 0.70593,0.5335 0.97862,0.5335 0.2727,0 0.74949,0.27228 1.05953,0.60507 0.43955,0.4718 1.01391,0.64808 2.60771,0.80031 1.12421,0.10739 2.32352,0.39102 2.66515,0.63031 0.71642,0.5018 2.08247,0.54945 3.65605,0.12753 z"
         id="path1789" />
      <path
         style="fill:#ffffff;stroke:none;stroke-width:1.37264"
         d="m 563.38895,281.63129 c -0.10665,-0.10665 -0.1939,-11.04464 -0.1939,-24.30665 v -24.11275 h 2.19623 2.19622 v 3.0002 c 0,2.36142 0.0919,3.09206 0.4314,3.43161 0.23728,0.23727 0.58375,0.4314 0.76994,0.4314 0.50664,0 2.36753,-1.79476 2.36753,-2.28338 0,-0.2337 0.24708,-0.50332 0.54906,-0.59917 0.30198,-0.0958 0.54906,-0.28947 0.54906,-0.43029 0,-0.33347 2.11879,-2.45226 2.45225,-2.45226 0.14082,0 0.32906,-0.23009 0.41832,-0.51132 0.12372,-0.3898 0.5263,-0.54889 1.694,-0.66941 0.84244,-0.087 1.7548,-0.35998 2.02747,-0.60675 0.44376,-0.40159 0.57797,-0.40615 1.2793,-0.0435 0.43095,0.22285 1.36871,0.49293 2.08393,0.60019 1.19091,0.17858 1.30039,0.25902 1.30039,0.9554 0,0.5183 -0.1674,0.80417 -0.5258,0.89789 -0.29002,0.0759 -0.567,0.42873 -0.61769,0.78697 -0.087,0.61463 -0.22201,0.65684 -2.51698,0.78674 -1.77439,0.10043 -2.51101,0.25376 -2.74529,0.57142 -0.1761,0.23878 -0.7359,0.5165 -1.244,0.61714 -0.58814,0.1165 -1.31593,0.60714 -2.00295,1.35029 -0.59353,0.642 -1.307,1.41436 -1.58549,1.71634 -0.2785,0.30198 -0.59938,0.8579 -0.71309,1.23538 -0.1137,0.37748 -0.43608,0.84775 -0.7164,1.04505 -0.28595,0.20126 -0.50967,0.69 -0.50967,1.11341 0,0.41507 -0.30885,1.1733 -0.68632,1.68494 -0.58972,0.79932 -0.68633,1.22279 -0.68633,3.00858 0,1.6298 -0.13075,2.31443 -0.60588,3.17237 -0.59715,1.07828 -0.60803,1.29988 -0.75495,15.36953 l -0.14907,14.27548 -1.93369,0.0795 c -1.06353,0.0437 -2.02095,-0.008 -2.1276,-0.11438 z"
         id="path1828" />
      <path
         style="fill:#ffffff;stroke:none;stroke-width:1.37264"
         d="m 595.31487,257.50766 v -24.31887 l 2.1276,0.0802 2.12759,0.0802 v 24.15851 24.1585 l -2.12759,0.0802 -2.1276,0.0802 z"
         id="path1867" />
      <path
         style="fill:#ffffff;stroke:none;stroke-width:1.37264"
         d="m 596.31371,222.36802 c -0.0869,-0.22649 -0.31969,-0.41179 -0.5173,-0.41179 -0.1976,0 -0.69563,-0.38332 -1.10672,-0.85182 -0.67858,-0.77332 -0.74746,-1.05159 -0.74746,-3.01981 0,-1.61242 0.0928,-2.168 0.36229,-2.168 0.19925,0 0.63082,-0.30884 0.95903,-0.68632 0.51372,-0.59084 0.82806,-0.68632 2.25934,-0.68632 1.50633,0 1.748,0.0839 2.57128,0.89222 1.37975,1.35475 1.65732,2.51898 1.08841,4.56523 -0.33802,1.21582 -0.59625,1.68029 -0.93418,1.68029 -0.25687,0 -0.78113,0.24707 -1.16504,0.54905 -0.83514,0.65692 -2.53786,0.74131 -2.76965,0.13727 z"
         id="path1906" />
      <path
         style="fill:#ffffff;stroke:none;stroke-width:1.37264"
         d="m 632.51207,282.47051 c -0.15022,-0.23706 -0.89081,-0.562 -1.64577,-0.72209 -0.75495,-0.16008 -1.66726,-0.52204 -2.02735,-0.80435 -0.36009,-0.28231 -0.81388,-0.51329 -1.00842,-0.51329 -0.19454,0 -0.70291,-0.29194 -1.12972,-0.64876 -0.42681,-0.35681 -1.05411,-0.7358 -1.394,-0.84218 -0.33989,-0.10638 -0.74573,-0.43213 -0.90188,-0.72388 -0.15614,-0.29176 -0.41594,-0.53047 -0.57733,-0.53047 -0.34444,0 -3.53064,-3.19812 -3.53064,-3.54384 0,-0.12954 -0.24708,-0.30013 -0.54906,-0.3791 -0.31087,-0.0813 -0.54905,-0.37446 -0.54905,-0.67579 0,-0.29271 -0.24243,-0.7516 -0.53873,-1.01975 -0.29629,-0.26814 -0.67649,-0.90498 -0.84487,-1.41519 -0.16839,-0.5102 -0.47431,-0.92765 -0.67984,-0.92765 -0.23142,0 -0.44296,-0.462 -0.55566,-1.21356 -0.10009,-0.66746 -0.41034,-1.45866 -0.68943,-1.75824 -0.34335,-0.36854 -0.61046,-1.32995 -0.826,-2.973 -0.1752,-1.33557 -0.49021,-2.8449 -0.70003,-3.35406 -0.49332,-1.19714 -0.49156,-4.3895 0.003,-5.41486 0.21145,-0.43843 0.53182,-1.86937 0.71192,-3.17988 0.23317,-1.69665 0.47818,-2.51916 0.85091,-2.85647 0.31151,-0.28191 0.52345,-0.83699 0.52345,-1.37095 0,-0.55653 0.26062,-1.20697 0.68632,-1.71289 0.37748,-0.4486 0.68632,-1.03072 0.68632,-1.29359 0,-0.26287 0.27796,-0.75852 0.61769,-1.10143 0.33973,-0.34292 0.92654,-1.03153 1.30401,-1.53024 0.85865,-1.13443 2.04923,-2.3023 3.29434,-3.23151 0.52847,-0.39438 1.12228,-0.93332 1.31958,-1.19763 0.1973,-0.26432 0.5287,-0.48057 0.73645,-0.48057 0.20775,0 0.45615,-0.24708 0.55199,-0.54906 0.0959,-0.30198 0.32725,-0.54906 0.51422,-0.54906 0.18698,0 0.75858,-0.30884 1.27022,-0.68632 0.51164,-0.37747 1.19844,-0.68632 1.52622,-0.68632 0.32778,0 0.94301,-0.27299 1.36718,-0.60664 0.53321,-0.41943 1.35218,-0.66872 2.65368,-0.80779 1.03534,-0.11062 2.26816,-0.39355 2.73958,-0.62873 1.16889,-0.58312 5.43059,-0.5884 6.55272,-0.008 0.44615,0.23071 1.67146,0.52749 2.72291,0.65952 1.24055,0.15577 2.16877,0.44222 2.64383,0.8159 0.40264,0.31673 1.08169,0.57586 1.50899,0.57586 0.48685,0 0.88289,0.19804 1.06079,0.53047 0.15615,0.29175 0.53509,0.61019 0.8421,0.70763 0.307,0.0974 0.88109,0.47642 1.27575,0.84217 0.39466,0.36576 0.93219,0.66502 1.19452,0.66502 0.26232,0 0.54396,0.25624 0.62586,0.56943 0.0819,0.31318 0.39373,0.63345 0.69295,0.7117 0.29923,0.0782 0.60808,0.38709 0.68632,0.68632 0.0783,0.29923 0.39852,0.61106 0.71171,0.69296 0.31318,0.0819 0.56943,0.3009 0.56943,0.48668 0,0.18577 0.23068,0.60374 0.51263,0.92883 0.57005,0.65728 2.05925,0.80974 2.42152,0.2479 0.12169,-0.18874 0.28341,-2.13446 0.35936,-4.32382 l 0.13809,-3.98067 h 1.78444 1.78443 l 0.0702,24.0041 c 0.0556,19.02177 -10e-4,24.04952 -0.27453,24.22293 -0.40744,0.25868 -2.44636,0.29896 -3.0675,0.0606 -0.36325,-0.13938 -0.43425,-0.71597 -0.43425,-3.52632 0,-2.90616 -0.0678,-3.42101 -0.50204,-3.81402 -0.70939,-0.64199 -2.25577,-0.603 -2.42948,0.0612 -0.0742,0.28357 -0.4332,0.65154 -0.79788,0.8177 -0.36468,0.16616 -0.66306,0.49006 -0.66306,0.71978 0,0.22973 -0.18246,0.41768 -0.40546,0.41768 -0.223,0 -0.59937,0.29594 -0.83637,0.65765 -0.237,0.3617 -0.67223,0.72075 -0.96718,0.79788 -0.29495,0.0771 -0.53627,0.32753 -0.53627,0.55644 0,0.22892 -0.40555,0.55005 -0.90122,0.71364 -0.49567,0.16358 -1.11214,0.54378 -1.36995,0.84487 -0.25781,0.3011 -0.71268,0.54745 -1.01082,0.54745 -0.29815,0 -0.66641,0.2323 -0.81837,0.51623 -0.20801,0.38867 -0.72517,0.5643 -2.09309,0.71079 -1.22658,0.13136 -1.98724,0.36499 -2.3414,0.71915 -0.4819,0.48189 -0.97709,0.52458 -6.08519,0.52458 -4.75402,0 -5.60022,-0.0625 -5.83373,-0.43102 z m 8.85899,-3.28823 c 0.37111,-0.25993 1.52537,-0.48974 2.97285,-0.59189 1.74566,-0.12319 2.48454,-0.2934 2.81742,-0.649 0.24816,-0.26511 0.93042,-0.57141 1.51612,-0.68068 0.70218,-0.131 1.1105,-0.37302 1.19876,-0.71053 0.0736,-0.28152 0.33992,-0.51186 0.59179,-0.51186 0.84418,0 4.46277,-3.35541 5.76499,-5.34571 0.39243,-0.59979 0.9297,-1.31013 1.19394,-1.57854 0.26423,-0.26841 0.48042,-0.74814 0.48042,-1.06607 0,-0.31794 0.30885,-0.9451 0.68632,-1.39371 0.59094,-0.70229 0.68632,-1.08633 0.68632,-2.76329 0,-1.46856 0.11818,-2.07895 0.48043,-2.4814 0.40978,-0.45525 0.47699,-1.07358 0.4571,-4.20512 -0.0183,-2.88636 -0.1136,-3.77477 -0.44552,-4.15486 -0.23222,-0.26591 -0.48596,-1.08314 -0.56387,-1.81606 -0.0779,-0.73292 -0.40246,-1.68534 -0.72122,-2.11648 -0.31876,-0.43114 -0.57956,-0.9502 -0.57956,-1.15347 0,-0.20326 -0.30884,-0.78819 -0.68632,-1.29983 -0.37748,-0.51164 -0.68632,-1.08871 -0.68632,-1.28238 0,-0.19367 -0.30884,-0.55449 -0.68632,-0.80182 -0.37748,-0.24734 -0.68632,-0.62386 -0.68632,-0.83671 0,-0.21286 -0.29196,-0.49802 -0.6488,-0.63369 -0.35683,-0.13567 -0.71588,-0.50322 -0.79788,-0.81679 -0.082,-0.31356 -0.33176,-0.57012 -0.55501,-0.57012 -0.22326,0 -0.60828,-0.30884 -0.85561,-0.68632 -0.24734,-0.37748 -0.58344,-0.68632 -0.7469,-0.68632 -0.16346,0 -0.66424,-0.30885 -1.11285,-0.68632 -0.44861,-0.37748 -1.03818,-0.68632 -1.31015,-0.68632 -0.27199,0 -0.664,-0.25067 -0.87116,-0.55704 -0.2695,-0.39858 -0.80616,-0.60657 -1.88655,-0.73116 -0.83045,-0.0958 -1.82698,-0.40751 -2.21451,-0.69275 -0.6086,-0.44795 -1.21756,-0.51965 -4.46962,-0.52629 -3.32864,-0.007 -3.87722,0.0585 -4.73303,0.56346 -0.5324,0.31412 -1.37609,0.57114 -1.87485,0.57114 -0.51459,0 -1.34431,0.29686 -1.9182,0.68632 -0.55624,0.37747 -1.17227,0.68632 -1.36895,0.68632 -0.19667,0 -0.65445,0.25886 -1.01729,0.57525 -0.36283,0.31639 -0.99942,0.75194 -1.41464,0.9679 -0.41523,0.21596 -0.75496,0.51607 -0.75496,0.66692 0,0.15085 -0.31201,0.3929 -0.69335,0.53789 -0.38135,0.14498 -0.76991,0.46311 -0.86348,0.70693 -0.0936,0.24383 -0.43013,0.73397 -0.74792,1.0892 -1.34973,1.50876 -2.0877,2.5602 -2.0877,2.97448 0,0.24352 -0.18837,0.44275 -0.41859,0.44275 -0.45643,0 -0.95405,1.05144 -0.95405,2.01582 0,0.3341 -0.23346,0.80733 -0.51879,1.05164 -0.35239,0.30173 -0.58352,1.00201 -0.72064,2.18343 -0.12796,1.10256 -0.36517,1.85866 -0.64796,2.06545 -0.65746,0.48074 -0.65574,6.66328 0.002,7.41074 0.26224,0.298 0.52802,1.28241 0.64069,2.37305 0.12856,1.24452 0.35669,2.01986 0.68661,2.33349 0.27174,0.25833 0.58134,0.87708 0.688,1.375 0.10667,0.49792 0.4299,1.05267 0.7183,1.23278 0.2884,0.18011 0.52437,0.497 0.52437,0.70419 0,0.74685 3.89083,4.96692 4.58869,4.97697 0.18343,0.003 0.46125,0.24352 0.6174,0.53528 0.15614,0.29175 0.56198,0.61832 0.90187,0.7257 0.33989,0.10738 0.77256,0.41481 0.96149,0.68318 0.18892,0.26836 0.72654,0.57206 1.19469,0.67489 0.46816,0.10282 1.06968,0.40543 1.33672,0.67247 0.32863,0.32863 1.14015,0.54812 2.51143,0.67926 1.11426,0.10656 2.64361,0.36131 3.39856,0.56612 1.84247,0.49982 2.91235,0.49527 3.64155,-0.0155 z"
         id="path1945" />
      <path
         style="fill:#ffffff;stroke:none;stroke-width:1.37264"
         d="M 680.69321,248.87732 V 215.9166 h 11.74016 c 11.42799,0 11.76895,0.0154 12.82334,0.58056 0.88134,0.47236 1.72472,0.60656 4.52566,0.72009 2.91217,0.11805 3.53345,0.22239 4.03316,0.67733 0.32489,0.29578 1.12789,0.60888 1.78444,0.69578 0.67919,0.0899 1.34099,0.36551 1.53538,0.63943 0.1879,0.26479 0.86736,0.56985 1.5099,0.67792 0.64254,0.10806 1.51747,0.48965 1.94428,0.84797 0.4268,0.35832 0.93862,0.65149 1.13737,0.65149 0.19875,0 0.43318,0.18716 0.52096,0.41591 0.0878,0.22875 0.47161,0.53454 0.85296,0.67953 0.38134,0.14499 0.69335,0.44365 0.69335,0.6637 0,0.22005 0.21626,0.46873 0.48058,0.55262 0.41678,0.13228 1.26424,0.92356 4.11777,3.8448 0.33973,0.34779 0.61769,0.72755 0.61769,0.84391 0,0.11637 0.31022,0.53458 0.68939,0.92937 0.37916,0.39479 0.92428,0.96801 1.21136,1.27381 0.28709,0.3058 0.61148,1.03307 0.72087,1.61614 0.10939,0.58308 0.41597,1.27723 0.68129,1.54256 0.26533,0.26533 0.56823,0.99031 0.6731,1.61108 0.10488,0.62076 0.40809,1.2824 0.67381,1.47031 0.34812,0.24618 0.52405,0.85697 0.62961,2.18589 0.0925,1.16486 0.36067,2.20724 0.72788,2.82961 0.54964,0.93158 0.58137,1.35355 0.58137,7.73184 0,6.34379 -0.0339,6.80138 -0.56838,7.66614 -0.3126,0.50581 -0.64095,1.63224 -0.72966,2.50316 -0.10908,1.07091 -0.31975,1.69596 -0.65081,1.93089 -0.28862,0.20482 -0.56594,0.88085 -0.6757,1.64717 -0.10239,0.71488 -0.40432,1.54686 -0.67095,1.84884 -0.26663,0.30198 -0.57848,0.8579 -0.69299,1.23538 -0.11451,0.37748 -0.42777,0.8409 -0.69614,1.02982 -0.26836,0.18893 -0.56952,0.71499 -0.66925,1.16903 -0.0997,0.45404 -0.41835,0.95238 -0.70805,1.10743 -0.28971,0.15505 -0.52675,0.44059 -0.52675,0.63453 0,0.19395 -0.30884,0.62116 -0.68632,0.94938 -0.37748,0.32821 -0.68632,0.71277 -0.68632,0.85459 0,0.14181 -0.24076,0.33426 -0.53501,0.42765 -0.29426,0.0934 -0.60942,0.40425 -0.70037,0.69078 -0.0909,0.28653 -0.4061,0.59738 -0.70036,0.69078 -0.29426,0.0934 -0.53502,0.34984 -0.53502,0.56989 0,0.22005 -0.29199,0.51111 -0.64888,0.64679 -0.35688,0.13569 -0.72361,0.44148 -0.81496,0.67953 -0.0914,0.23805 -0.36833,0.43282 -0.61551,0.43282 -0.24717,0 -0.81645,0.30885 -1.26505,0.68632 -0.44861,0.37748 -0.98666,0.68632 -1.19568,0.68632 -0.20902,0 -0.60986,0.24669 -0.89075,0.54819 -0.2809,0.3015 -1.09316,0.657 -1.80503,0.78999 -0.71187,0.13299 -1.51722,0.44354 -1.78968,0.69011 -0.3335,0.30182 -1.36823,0.53089 -3.16654,0.70103 -1.46914,0.13899 -2.94041,0.42786 -3.2695,0.64193 -0.48637,0.31638 -3.25657,0.42589 -14.80517,0.58525 l -14.20685,0.19605 z m 28.2935,27.6772 c 0.36809,-0.24096 1.51373,-0.52841 2.54587,-0.63879 1.33056,-0.14229 2.00735,-0.35335 2.32587,-0.72536 0.24709,-0.28858 0.77697,-0.52469 1.17751,-0.52469 1.43438,0 2.51603,-0.35316 2.64993,-0.86522 0.073,-0.27908 0.34646,-0.50742 0.60773,-0.50742 0.26127,0 0.77189,-0.26162 1.13472,-0.58137 0.36284,-0.31975 0.99438,-0.70068 1.40343,-0.84653 0.40906,-0.14584 0.81888,-0.50191 0.91072,-0.79127 0.0922,-0.29043 0.41618,-0.52611 0.72324,-0.52611 0.32226,0 0.61566,-0.22715 0.69746,-0.53997 0.0777,-0.29698 0.37494,-0.61415 0.66062,-0.70482 0.28568,-0.0907 0.51942,-0.32352 0.51942,-0.51743 0,-0.19392 0.33973,-0.7301 0.75495,-1.19152 1.18896,-1.32123 2.26486,-2.86689 2.26486,-3.25372 0,-0.19467 0.20134,-0.46662 0.44743,-0.60434 0.27429,-0.1535 0.54162,-0.85104 0.69084,-1.80259 0.14423,-0.91975 0.46528,-1.77407 0.78795,-2.09674 0.32757,-0.32757 0.54454,-0.91314 0.54454,-1.46963 0,-0.50879 0.26037,-1.71329 0.57859,-2.67665 0.80706,-2.44318 0.90383,-9.4733 0.15071,-10.94827 -0.26984,-0.52846 -0.55658,-1.82561 -0.63721,-2.88254 -0.0959,-1.25752 -0.32852,-2.18093 -0.67298,-2.67173 -0.28951,-0.41252 -0.60198,-1.30155 -0.69437,-1.97564 -0.1065,-0.77705 -0.40625,-1.44946 -0.81901,-1.83722 -0.35806,-0.33638 -0.65102,-0.83279 -0.65102,-1.10314 0,-0.27035 -0.23703,-0.6184 -0.52674,-0.77345 -0.28971,-0.15505 -0.60833,-0.65339 -0.70806,-1.10743 -0.0997,-0.45404 -0.399,-0.9801 -0.66507,-1.16903 -0.26606,-0.18893 -0.63124,-0.62146 -0.8115,-0.96119 -0.18027,-0.33973 -0.50872,-0.61769 -0.72989,-0.61769 -0.22117,0 -0.40213,-0.18795 -0.40213,-0.41768 0,-0.22972 -0.30647,-0.55731 -0.68105,-0.72798 -0.37457,-0.17067 -0.75351,-0.53863 -0.84208,-0.8177 -0.0886,-0.27907 -0.27708,-0.50739 -0.41889,-0.50739 -0.14181,0 -0.52109,-0.30276 -0.84283,-0.6728 -0.32175,-0.37004 -0.9695,-0.75726 -1.43945,-0.86047 -0.46995,-0.10322 -1.01589,-0.41815 -1.2132,-0.69985 -0.1973,-0.28169 -0.51304,-0.51217 -0.70162,-0.51217 -0.18859,0 -0.73719,-0.2909 -1.2191,-0.64644 -0.64833,-0.47832 -1.38786,-0.68934 -2.8435,-0.81138 -1.08202,-0.0907 -2.04227,-0.28623 -2.1339,-0.43449 -0.29917,-0.48406 -1.67148,-0.85297 -3.17293,-0.85297 -0.80952,0 -2.7472,-0.254 -4.30595,-0.56445 -2.37374,-0.47276 -4.01952,-0.5731 -10.13191,-0.61769 -5.84052,-0.0426 -7.38919,0.022 -7.75543,0.32353 -0.42161,0.34713 -0.45761,2.5514 -0.45761,28.01563 0,21.73903 0.0732,27.71451 0.34316,27.99328 0.27244,0.2814 2.66609,0.33446 11.6159,0.25753 9.74865,-0.0838 11.36322,-0.15614 11.94198,-0.53501 z"
         id="path1984" />
      <path
         style="fill:#ffffff;stroke:none;stroke-width:1.37264"
         d="m 752.41263,281.58527 c -0.27347,-0.18066 -0.32994,-6.9429 -0.27452,-32.87942 l 0.0697,-32.65199 7.21853,-0.0732 c 6.35996,-0.0645 7.48647,-0.01 9.47123,0.46071 1.23899,0.29366 3.21372,0.61942 4.3883,0.72391 1.64286,0.14615 2.19627,0.30334 2.39855,0.6813 0.15123,0.28257 0.73254,0.57065 1.36822,0.67805 0.66898,0.11302 1.21603,0.3937 1.38588,0.71106 0.15433,0.28837 0.41349,0.52432 0.57591,0.52432 0.24963,0 1.69586,1.41687 4.09261,4.00955 0.29385,0.31787 0.53428,0.90468 0.53428,1.30401 0,0.39934 0.27796,1.00394 0.61769,1.34356 0.58386,0.58369 0.61769,0.83581 0.61769,4.60464 0,3.719 -0.0416,4.03998 -0.61769,4.77283 -0.33973,0.43213 -0.61769,1.13327 -0.61769,1.55811 0,0.44341 -0.29233,1.08785 -0.68632,1.51297 -0.37748,0.4073 -0.68632,0.8541 -0.68632,0.99289 0,0.35316 -2.77888,3.08918 -3.36298,3.31111 -0.26423,0.1004 -0.48042,0.35189 -0.48042,0.55888 0,0.20699 -0.31695,0.52076 -0.70433,0.69726 -0.54082,0.24641 -0.68422,0.48921 -0.61769,1.04586 0.0477,0.39872 0.33184,0.86094 0.63152,1.02716 0.29968,0.16622 0.69816,0.50409 0.8855,0.75083 0.18734,0.24674 0.80271,0.5353 1.36748,0.64125 0.56477,0.10595 1.18563,0.41933 1.3797,0.6964 0.19406,0.27706 0.72433,0.58534 1.17837,0.68507 0.45404,0.0997 0.95238,0.41835 1.10743,0.70806 0.15505,0.28971 0.40521,0.52674 0.55592,0.52674 0.36472,0 2.0226,1.67133 2.25271,2.27098 0.1001,0.26087 0.37119,0.4743 0.60242,0.4743 0.23122,0 0.42041,0.18613 0.42041,0.41361 0,0.22749 0.29464,0.6698 0.65476,0.98292 0.37376,0.32498 0.72543,1.01124 0.81942,1.59904 0.0906,0.56635 0.41361,1.25503 0.71788,1.53039 0.51584,0.46682 0.55322,0.83683 0.55322,5.47587 0,4.54388 -0.0451,5.01384 -0.52031,5.42072 -0.28618,0.24503 -0.6107,0.98283 -0.72116,1.63955 -0.18876,1.12224 -0.77769,2.09685 -2.05449,3.39993 -0.30109,0.30729 -0.54744,0.65922 -0.54744,0.78207 0,0.29072 -1.63317,1.81629 -1.9444,1.81629 -0.13154,0 -0.44153,0.30885 -0.68886,0.68632 -0.24734,0.37748 -0.60165,0.68632 -0.78737,0.68632 -0.18572,0 -0.55908,0.24466 -0.8297,0.54369 -0.27062,0.29903 -0.90853,0.62182 -1.41758,0.71732 -0.50905,0.0955 -1.23089,0.41382 -1.6041,0.70739 -0.3732,0.29356 -1.29013,0.63042 -2.03761,0.74858 -0.74749,0.11817 -1.64556,0.40124 -1.99572,0.62907 -0.52718,0.34301 -2.50106,0.44577 -11.48052,0.59769 -5.96413,0.10091 -10.9988,0.0811 -11.18816,-0.044 z m 20.07523,-5.07882 c 0.58466,-0.25747 1.54604,-0.46813 2.13641,-0.46813 1.1627,0 2.97747,-0.63937 2.97747,-1.04902 0,-0.13939 0.49204,-0.33212 1.09342,-0.42829 0.74034,-0.11838 1.23811,-0.39566 1.54148,-0.85867 0.24643,-0.37611 0.61916,-0.68383 0.82828,-0.68383 0.20912,0 0.38022,-0.12915 0.38022,-0.287 0,-0.15786 0.27796,-0.5705 0.61769,-0.91698 1.2383,-1.26292 2.40234,-2.89367 2.41144,-3.37827 0.005,-0.27309 0.248,-0.99068 0.53974,-1.59464 0.74495,-1.54223 0.74495,-5.32098 0,-6.86321 -0.29174,-0.60396 -0.53462,-1.36659 -0.53974,-1.69474 -0.005,-0.32814 -0.31816,-0.96367 -0.69564,-1.41227 -0.37748,-0.44861 -0.68632,-0.91417 -0.68632,-1.03458 0,-0.29438 -2.17595,-2.30983 -2.49377,-2.30983 -0.13833,0 -0.25151,-0.18035 -0.25151,-0.40077 0,-0.23477 -0.48329,-0.5426 -1.16675,-0.74318 -0.64171,-0.18832 -1.3163,-0.54694 -1.49908,-0.79693 -0.18279,-0.24999 -0.76032,-0.52397 -1.28341,-0.60886 -0.52309,-0.0849 -1.20742,-0.41068 -1.52073,-0.72399 -0.52443,-0.52443 -0.89119,-0.57013 -4.61895,-0.57554 -2.22711,-0.003 -5.83958,-0.12141 -8.0277,-0.26261 -3.35717,-0.21665 -4.0752,-0.19331 -4.59835,0.14946 l -0.61995,0.40621 v 13.14858 c 0,7.23172 0.0796,13.35594 0.17682,13.60938 0.16068,0.41871 0.81871,0.45098 7.20637,0.35332 5.86196,-0.0896 7.20612,-0.18523 8.09256,-0.57561 z m -3.21172,-32.83371 c 0.6301,-0.12202 1.34927,-0.42549 1.59815,-0.67437 0.24888,-0.24888 0.84519,-0.45476 1.32513,-0.45751 0.87369,-0.005 2.82203,-1.08275 3.92131,-2.16912 0.31787,-0.31414 0.72201,-0.57117 0.8981,-0.57117 0.17609,0 0.46712,-0.33973 0.64674,-0.75495 0.17963,-0.41522 0.60936,-1.10416 0.95497,-1.53097 0.42165,-0.52073 0.62837,-1.13867 0.62837,-1.8784 0,-0.68669 0.20704,-1.36559 0.54906,-1.80039 0.79071,-1.00523 0.79071,-4.16358 0,-4.87916 -0.36427,-0.32966 -0.54906,-0.84554 -0.54906,-1.53285 0,-0.97535 -0.54357,-1.89876 -1.11772,-1.89876 -0.14021,0 -0.25492,-0.25095 -0.25492,-0.55767 0,-0.30672 -0.21619,-0.63831 -0.48042,-0.73687 -0.26424,-0.0986 -0.64186,-0.40353 -0.83916,-0.67771 -0.1973,-0.27417 -0.48831,-0.4985 -0.64669,-0.4985 -0.15838,0 -0.655,-0.30885 -1.10361,-0.68632 -0.59253,-0.49859 -1.13768,-0.68632 -1.99294,-0.68632 -0.78055,0 -1.42445,-0.19442 -1.91072,-0.57692 -0.68039,-0.5352 -1.17504,-0.5877 -6.84087,-0.72607 -5.52663,-0.13497 -6.15225,-0.10435 -6.5786,0.322 -0.42977,0.42977 -0.47115,1.45396 -0.47115,11.66145 0,6.15467 0.0824,11.27266 0.18302,11.37332 0.25913,0.25913 10.69885,0.20491 12.08101,-0.0627 z"
         id="path2023" />
    </g>
    <g
       id="g1187"
       transform="translate(0,-141.66647)" />
    <text
       id="text73-2"
       y="351.72876"
       x="254.79108"
       style="font-style:normal;font-variant:normal;font-weight:normal;font-stretch:normal;font-size:44.0932px;line-height:68.2135px;font-family:Arial;-inkscape-font-specification:Arial;fill:#ffffff;fill-opacity:1;stroke:none;stroke-width:2.72854;stroke-opacity:1"
       xml:space="preserve"><tspan
         style="stroke-width:2.72854"
         y="351.72876"
         x="254.79108"
         id="tspan71-9"
         sodipodi:role="line">DATABASE BACKUP</tspan></text>
  </g>
</svg>
