<?xml version="1.0" encoding="UTF-8" standalone="no"?>
<!-- @author Natan Felles <natanfelles@gmail.com> -->

<svg
   xmlns:dc="http://purl.org/dc/elements/1.1/"
   xmlns:cc="http://creativecommons.org/ns#"
   xmlns:rdf="http://www.w3.org/1999/02/22-rdf-syntax-ns#"
   xmlns:svg="http://www.w3.org/2000/svg"
   xmlns="http://www.w3.org/2000/svg"
   xmlns:xlink="http://www.w3.org/1999/xlink"
   xmlns:sodipodi="http://sodipodi.sourceforge.net/DTD/sodipodi-0.dtd"
   xmlns:inkscape="http://www.inkscape.org/namespaces/inkscape"
   height="280"
   width="1000"
   version="1.1"
   id="svg2"
   inkscape:version="0.92.2 (5c3e80d, 2017-08-06)"
   sodipodi:docname="php-protect-files.svg"
   inkscape:export-filename="/home/natanfelles/Online/GitHub/natanfelles/natanfelles.github.io/assets/img_posts/php-protect-files.png"
   inkscape:export-xdpi="96"
   inkscape:export-ydpi="96">
  <metadata
     id="metadata8">
    <rdf:RDF>
      <cc:Work
         rdf:about="">
        <dc:format>image/svg+xml</dc:format>
        <dc:type
           rdf:resource="http://purl.org/dc/dcmitype/StillImage" />
        <dc:title></dc:title>
      </cc:Work>
    </rdf:RDF>
  </metadata>
  <defs
     id="defs6">
    <symbol
       id="lock"
       viewBox="0 0 12 16">
      <title
         id="title10357">lock</title>
      <path
         d="M 4,13 H 3 v -1 h 1 z m 8,-6 v 7 c 0,0.55 -0.45,1 -1,1 H 1 C 0.45,15 0,14.55 0,14 V 7 C 0,6.45 0.45,6 1,6 H 2 V 4 C 2,1.8 3.8,0 6,0 c 2.2,0 4,1.8 4,4 v 2 h 1 c 0.55,0 1,0.45 1,1 z M 3.8,6 H 8.21 V 4 C 8.21,2.78 7.23,1.8 6.01,1.8 4.79,1.8 3.81,2.78 3.81,4 V 6 Z M 11,7 H 2 v 7 h 9 z M 4,8 H 3 v 1 h 1 z m 0,2 H 3 v 1 h 1 z"
         id="path10359"
         inkscape:connector-curvature="0" />
    </symbol>
    <symbol
       id="file-text"
       viewBox="0 0 12 16">
      <title
         id="title10167">file-text</title>
      <path
         d="M 6,5 H 2 V 4 H 6 Z M 2,8 H 9 V 7 H 2 Z m 0,2 H 9 V 9 H 2 Z m 0,2 H 9 V 11 H 2 Z M 12,4.5 V 14 c 0,0.55 -0.45,1 -1,1 H 1 C 0.45,15 0,14.55 0,14 V 2 C 0,1.45 0.45,1 1,1 H 8.5 Z M 11,5 8,2 H 1 v 12 h 10 z"
         id="path10169"
         inkscape:connector-curvature="0" />
    </symbol>
  </defs>
  <sodipodi:namedview
     pagecolor="#ffffff"
     bordercolor="#666666"
     borderopacity="1"
     objecttolerance="10"
     gridtolerance="10"
     guidetolerance="10"
     inkscape:pageopacity="0"
     inkscape:pageshadow="2"
     inkscape:window-width="1366"
     inkscape:window-height="713"
     id="namedview4"
     showgrid="false"
     inkscape:showpageshadow="false"
     inkscape:zoom="0.5"
     inkscape:cx="22.912797"
     inkscape:cy="56.402681"
     inkscape:window-x="0"
     inkscape:window-y="27"
     inkscape:window-maximized="1"
     inkscape:current-layer="svg2"
     showguides="false"
     inkscape:guide-bbox="true"
     fit-margin-top="0"
     fit-margin-left="0"
     fit-margin-right="0"
     fit-margin-bottom="0">
    <sodipodi:guide
       position="1000,-60"
       orientation="-400,0"
       id="guide9"
       inkscape:locked="false" />
    <sodipodi:guide
       position="1000,340"
       orientation="0,-1000"
       id="guide11"
       inkscape:locked="false" />
    <sodipodi:guide
       position="0,340"
       orientation="400,0"
       id="guide13"
       inkscape:locked="false" />
    <sodipodi:guide
       position="578,231"
       orientation="0,1"
       id="guide93112"
       inkscape:locked="false" />
    <sodipodi:guide
       position="534,76"
       orientation="0,1"
       id="guide93114"
       inkscape:locked="false" />
  </sodipodi:namedview>
  <rect
     style="fill:#9999cc;fill-opacity:1;stroke:none;stroke-width:1;stroke-opacity:1"
     id="rect4136"
     width="1000"
     height="280"
     x="0"
     y="0" />
  <g
     transform="matrix(11.359332,0,0,11.359332,148.31428,-128.85737)"
     id="g93365"
     style="fill:#8a8ab8;fill-opacity:1;stroke-width:0.08803334">
    <g
       id="g93363"
       style="fill:#8a8ab8;fill-opacity:1;stroke-width:0.08803334">
      <!-- color: #5f88b8 -->
      <g
         id="g93361"
         style="fill:#8a8ab8;fill-opacity:1;stroke-width:0.08803334">
        <path
           inkscape:connector-curvature="0"
           id="path93355"
           style="fill:#8a8ab8;fill-opacity:1;fill-rule:evenodd;stroke:none;stroke-width:0.08803334"
           d="m 10,29.801 2.207,-10.785 h 5.105 c 2.207,0.137 3.309,1.199 3.309,3.063 0,3.195 -2.621,5.05 -4.965,4.926 h -2.484 l -0.555,2.797 H 9.996 m 3.727,-4.793 0.691,-3.992 h 1.793 c 0.969,0 1.656,0.398 1.656,1.199 -0.141,2.262 -1.242,2.66 -2.484,2.793 m -1.656,0" />
        <path
           inkscape:connector-curvature="0"
           id="path93357"
           style="fill:#8a8ab8;fill-opacity:1;fill-rule:nonzero;stroke:none;stroke-width:0.08803334"
           d="m 19.797,27 2.207,-10.781 h 2.621 l -0.551,2.793 h 2.484 c 2.207,0.137 3.035,1.199 2.758,2.531 L 28.351,27 h -2.762 l 0.969,-4.926 c 0.137,-0.664 0.137,-1.066 -0.832,-1.066 H 23.66 l -1.242,5.988 h -2.621 m 0,0.004" />
        <path
           inkscape:connector-curvature="0"
           id="path93359"
           style="fill:#8a8ab8;fill-opacity:1;fill-rule:evenodd;stroke:none;stroke-width:0.08803334"
           d="m 28.13,29.801 2.211,-10.785 h 5.105 c 2.207,0.137 3.309,1.199 3.309,3.063 0,3.195 -2.621,5.05 -4.969,4.926 h -2.484 l -0.551,2.797 m 1.105,-4.793 0.691,-3.992 h 1.793 c 0.965,0 1.652,0.398 1.652,1.199 -0.137,2.262 -1.238,2.66 -2.484,2.793 m -1.652,0" />
      </g>
    </g>
  </g>
  <g
     style="stroke-width:0.08803334"
     id="g47"
     transform="matrix(11.359332,0,0,11.359332,142.31428,-134.85737)">
    <g
       style="stroke-width:0.08803334"
       id="g45">
      <!-- color: #5f88b8 -->
      <g
         style="stroke-width:0.08803334"
         id="g43">
        <path
           d="m 10,29.801 2.207,-10.785 h 5.105 c 2.207,0.137 3.309,1.199 3.309,3.063 0,3.195 -2.621,5.05 -4.965,4.926 h -2.484 l -0.555,2.797 H 9.996 m 3.727,-4.793 0.691,-3.992 h 1.793 c 0.969,0 1.656,0.398 1.656,1.199 -0.141,2.262 -1.242,2.66 -2.484,2.793 m -1.656,0"
           style="fill:#ffffff;fill-opacity:1;fill-rule:evenodd;stroke:none;stroke-width:0.08803334"
           id="path37"
           inkscape:connector-curvature="0" />
        <path
           d="m 19.797,27 2.207,-10.781 h 2.621 l -0.551,2.793 h 2.484 c 2.207,0.137 3.035,1.199 2.758,2.531 L 28.351,27 h -2.762 l 0.969,-4.926 c 0.137,-0.664 0.137,-1.066 -0.832,-1.066 H 23.66 l -1.242,5.988 h -2.621 m 0,0.004"
           style="fill:#ffffff;fill-opacity:1;fill-rule:nonzero;stroke:none;stroke-width:0.08803334"
           id="path39"
           inkscape:connector-curvature="0" />
        <path
           d="m 28.13,29.801 2.211,-10.785 h 5.105 c 2.207,0.137 3.309,1.199 3.309,3.063 0,3.195 -2.621,5.05 -4.969,4.926 h -2.484 l -0.551,2.797 m 1.105,-4.793 0.691,-3.992 h 1.793 c 0.965,0 1.652,0.398 1.652,1.199 -0.137,2.262 -1.238,2.66 -2.484,2.793 m -1.652,0"
           style="fill:#ffffff;fill-opacity:1;fill-rule:evenodd;stroke:none;stroke-width:0.08803334"
           id="path41"
           inkscape:connector-curvature="0" />
      </g>
    </g>
  </g>
  <g
     style="fill:#8a8ab8;fill-opacity:1;stroke-width:0.98262858"
     transform="matrix(1.0665533,0,0,0.97104328,29.216888,-7.275557)"
     id="g93393">
    <use
       id="use93381"
       style="fill:#8a8ab8;fill-opacity:1;stroke:none;stroke-width:1.66128826"
       xlink:href="#lock"
       x="0"
       y="0"
       width="100%"
       height="100%"
       transform="matrix(0.57293314,0,0,0.61063954,318.88828,63.207809)" />
    <path
       id="path93383"
       style="opacity:1;fill:#8a8ab8;fill-opacity:1;stroke:none;stroke-width:0.09826285;stroke-miterlimit:4;stroke-dasharray:none;stroke-opacity:1"
       d="m 558.9373,136.20224 h 99.70206 v 77.78174 H 558.9373 Z"
       inkscape:connector-curvature="0" />
    <g
       transform="translate(-70.89577,-92.592062)"
       id="g93391"
       style="fill:#8a8ab8;fill-opacity:1;stroke-width:0.98262858">
      <rect
         y="241.97939"
         x="642.4696"
         height="10.591883"
         width="10.341883"
         id="rect93385"
         style="opacity:1;fill:#8a8ab8;fill-opacity:1;stroke:none;stroke-width:0.09826286;stroke-miterlimit:4;stroke-dasharray:none;stroke-opacity:1" />
      <rect
         style="opacity:1;fill:#8a8ab8;fill-opacity:1;stroke:none;stroke-width:0.09826286;stroke-miterlimit:4;stroke-dasharray:none;stroke-opacity:1"
         id="rect93387"
         width="10.341883"
         height="10.591883"
         x="642.4696"
         y="263.10437" />
      <rect
         y="284.22937"
         x="642.4696"
         height="10.591883"
         width="10.341883"
         id="rect93389"
         style="opacity:1;fill:#8a8ab8;fill-opacity:1;stroke:none;stroke-width:0.09826286;stroke-miterlimit:4;stroke-dasharray:none;stroke-opacity:1" />
    </g>
  </g>
  <g
     id="g92936"
     transform="matrix(1.0665533,0,0,0.97104328,23.216888,-13.275557)"
     style="stroke-width:0.98262858">
    <use
       transform="matrix(0.57293314,0,0,0.61063954,318.88828,63.207809)"
       height="100%"
       width="100%"
       y="0"
       x="0"
       xlink:href="#lock"
       style="fill:#ffffff;stroke:none;stroke-width:1.66128826"
       id="use84185" />
    <path
       inkscape:connector-curvature="0"
       d="m 558.9373,136.20224 h 99.70206 v 77.78174 H 558.9373 Z"
       style="opacity:1;fill:#ffffff;fill-opacity:1;stroke:none;stroke-width:0.09826285;stroke-miterlimit:4;stroke-dasharray:none;stroke-opacity:1"
       id="rect92673" />
    <g
       style="fill:#8a8ab8;fill-opacity:1;stroke-width:0.98262858"
       id="g92647"
       transform="translate(-70.89577,-92.592062)">
      <rect
         style="opacity:1;fill:#8a8ab8;fill-opacity:1;stroke:none;stroke-width:0.09826286;stroke-miterlimit:4;stroke-dasharray:none;stroke-opacity:1"
         id="rect92638"
         width="10.341883"
         height="10.591883"
         x="642.4696"
         y="241.97939" />
      <rect
         y="263.10437"
         x="642.4696"
         height="10.591883"
         width="10.341883"
         id="rect92640"
         style="opacity:1;fill:#8a8ab8;fill-opacity:1;stroke:none;stroke-width:0.09826286;stroke-miterlimit:4;stroke-dasharray:none;stroke-opacity:1" />
      <rect
         style="opacity:1;fill:#8a8ab8;fill-opacity:1;stroke:none;stroke-width:0.09826286;stroke-miterlimit:4;stroke-dasharray:none;stroke-opacity:1"
         id="rect92642"
         width="10.341883"
         height="10.591883"
         x="642.4696"
         y="284.22937" />
    </g>
  </g>
  <g
     transform="matrix(11.359332,0,0,11.359332,142.31428,-134.85737)"
     id="g93405"
     style="stroke-width:0.08803334">
    <g
       id="g93403"
       style="stroke-width:0.08803334">
      <!-- color: #5f88b8 -->
      <g
         id="g93401"
         style="stroke-width:0.08803334">
        <path
           inkscape:connector-curvature="0"
           id="path93395"
           style="fill:#ffffff;fill-opacity:1;fill-rule:evenodd;stroke:none;stroke-width:0.08803334"
           d="m 10,29.801 2.207,-10.785 h 5.105 c 2.207,0.137 3.309,1.199 3.309,3.063 0,3.195 -2.621,5.05 -4.965,4.926 h -2.484 l -0.555,2.797 H 9.996 m 3.727,-4.793 0.691,-3.992 h 1.793 c 0.969,0 1.656,0.398 1.656,1.199 -0.141,2.262 -1.242,2.66 -2.484,2.793 m -1.656,0" />
        <path
           inkscape:connector-curvature="0"
           id="path93397"
           style="fill:#ffffff;fill-opacity:1;fill-rule:nonzero;stroke:none;stroke-width:0.08803334"
           d="m 19.797,27 2.207,-10.781 h 2.621 l -0.551,2.793 h 2.484 c 2.207,0.137 3.035,1.199 2.758,2.531 L 28.351,27 h -2.762 l 0.969,-4.926 c 0.137,-0.664 0.137,-1.066 -0.832,-1.066 H 23.66 l -1.242,5.988 h -2.621 m 0,0.004" />
        <path
           inkscape:connector-curvature="0"
           id="path93399"
           style="fill:#ffffff;fill-opacity:1;fill-rule:evenodd;stroke:none;stroke-width:0.08803334"
           d="m 28.13,29.801 2.211,-10.785 h 5.105 c 2.207,0.137 3.309,1.199 3.309,3.063 0,3.195 -2.621,5.05 -4.969,4.926 h -2.484 l -0.551,2.797 m 1.105,-4.793 0.691,-3.992 h 1.793 c 0.965,0 1.652,0.398 1.652,1.199 -0.137,2.262 -1.238,2.66 -2.484,2.793 m -1.652,0" />
      </g>
    </g>
  </g>
</svg>
