<?xml version="1.0" encoding="UTF-8" standalone="no"?>
<!-- @author Natan Felles <natanfelles@gmail.com> -->

<svg
   xmlns:dc="http://purl.org/dc/elements/1.1/"
   xmlns:cc="http://creativecommons.org/ns#"
   xmlns:rdf="http://www.w3.org/1999/02/22-rdf-syntax-ns#"
   xmlns:svg="http://www.w3.org/2000/svg"
   xmlns="http://www.w3.org/2000/svg"
   xmlns:xlink="http://www.w3.org/1999/xlink"
   xmlns:sodipodi="http://sodipodi.sourceforge.net/DTD/sodipodi-0.dtd"
   xmlns:inkscape="http://www.inkscape.org/namespaces/inkscape"
   height="400"
   width="1000"
   version="1.1"
   id="svg2"
   inkscape:version="0.92.2 (5c3e80d, 2017-08-06)"
   sodipodi:docname="phpbs.svg"
   inkscape:export-filename="/home/natanfelles/Repositório/Jekyll/natanfelles.github.io/assets/img_posts/post.png"
   inkscape:export-xdpi="90"
   inkscape:export-ydpi="90">
  <metadata
     id="metadata8">
    <rdf:RDF>
      <cc:Work
         rdf:about="">
        <dc:format>image/svg+xml</dc:format>
        <dc:type
           rdf:resource="http://purl.org/dc/dcmitype/StillImage" />
        <dc:title />
      </cc:Work>
    </rdf:RDF>
  </metadata>
  <defs
     id="defs6">
    <linearGradient
       inkscape:collect="always"
       xlink:href="#linearGradient918"
       id="linearGradient920"
       x1="201.69492"
       y1="245.18828"
       x2="201.69492"
       y2="396.61014"
       gradientUnits="userSpaceOnUse"
       gradientTransform="matrix(2.5,0,0,1,2e-5,0)" />
    <linearGradient
       inkscape:collect="always"
       id="linearGradient918">
      <stop
         style="stop-color:#563d7c;stop-opacity:1;"
         offset="0"
         id="stop914" />
      <stop
         style="stop-color:#5a68a3;stop-opacity:1"
         offset="1"
         id="stop916" />
    </linearGradient>
  </defs>
  <sodipodi:namedview
     pagecolor="#ffffff"
     bordercolor="#666666"
     borderopacity="1"
     objecttolerance="10"
     gridtolerance="10"
     guidetolerance="10"
     inkscape:pageopacity="0"
     inkscape:pageshadow="2"
     inkscape:window-width="1366"
     inkscape:window-height="713"
     id="namedview4"
     showgrid="false"
     inkscape:showpageshadow="false"
     inkscape:zoom="0.59"
     inkscape:cx="-132.39405"
     inkscape:cy="200"
     inkscape:window-x="0"
     inkscape:window-y="27"
     inkscape:window-maximized="1"
     inkscape:current-layer="svg2" />
  <rect
     y="-4.2871093e-07"
     x="300"
     height="400"
     width="400"
     id="rect1139"
     style="opacity:1;fill:#563d7c;fill-opacity:1;stroke-width:1.26770258" />
  <g
     id="g834"
     transform="matrix(0.74999998,0,0,0.74999998,350.00001,50.000003)"
     style="stroke-width:1.33333337">
    <text
       id="text824"
       y="147.81952"
       x="-15.931435"
       style="font-style:normal;font-weight:normal;font-size:206.50366211px;line-height:129.06478882px;font-family:sans-serif;letter-spacing:0px;word-spacing:0px;fill:#ffffff;fill-opacity:1;stroke:none;stroke-width:1.33333325"
       xml:space="preserve"><tspan
         style="font-style:normal;font-variant:normal;font-weight:normal;font-stretch:normal;font-family:Arial;-inkscape-font-specification:Arial;fill:#ffffff;stroke-width:1.33333325"
         y="147.81952"
         x="-15.931435"
         id="tspan822"
         sodipodi:role="line">PHP</tspan></text>
    <text
       xml:space="preserve"
       style="font-style:normal;font-weight:normal;font-size:330.72265625px;line-height:206.7016449px;font-family:sans-serif;letter-spacing:0px;word-spacing:0px;fill:#ffffff;fill-opacity:1;stroke:none;stroke-width:1.33333337"
       x="-24.222855"
       y="395.96286"
       id="text828"><tspan
         sodipodi:role="line"
         id="tspan826"
         x="-24.222855"
         y="395.96286"
         style="font-style:normal;font-variant:normal;font-weight:normal;font-stretch:normal;font-family:Arial;-inkscape-font-specification:Arial;fill:#ffffff;stroke-width:1.33333337">BS</tspan></text>
  </g>
  <path
     style="fill:#ffffff;stroke-width:0.70365477"
     d="m 497.30665,340.55436 c -4.89631,-0.60462 -10.06867,-3.17083 -14.05516,-6.97331 -3.97661,-3.79304 -6.33462,-8.21058 -7.17839,-13.44815 -0.3354,-2.08198 -1.241,-22.61681 -2.01244,-45.63295 -0.77145,-23.01615 -1.68341,-43.4366 -2.02659,-45.37878 -0.68611,-3.88295 -3.40212,-8.59885 -5.14325,-8.9304 -1.23798,-0.23574 -3.67878,2.00366 -8.27235,7.58974 -9.25423,11.25373 -14.29089,22.81971 -15.43511,35.44464 -0.41139,4.5393 -0.71426,5.69732 -1.78901,6.84136 -2.70335,2.87759 -7.86282,2.85446 -10.58904,-0.0475 -3.39847,-3.61748 -1.23227,-19.09138 4.43338,-31.66975 3.72672,-8.27366 10.05133,-17.42081 17.44847,-25.23538 2.39731,-2.5326 4.35315,-5.07301 4.34634,-5.64535 -0.0274,-2.31187 -1.82087,-3.49889 -7.8324,-5.18436 -11.81636,-3.31298 -27.54361,-10.18681 -41.53531,-18.15363 -14.97656,-8.52758 -35.1242,-22.75372 -40.39978,-28.52606 -5.27508,-5.77173 -7.9974,-12.86205 -7.99696,-20.82813 2.8e-4,-5.73562 1.85117,-11.88379 6.48113,-21.52893 13.26137,-27.625914 32.54316,-43.16953 58.92697,-47.502748 7.38118,-1.212267 22.27428,-0.746135 29.29992,0.917042 6.50271,1.53938 7.06185,1.527217 9.33027,-0.203006 2.84108,-2.166999 8.79042,-4.700198 14.26658,-6.074644 4.49009,-1.126954 6.23795,-1.221178 22.99342,-1.239563 15.48511,-0.01702 18.82174,0.128333 22.84265,0.9949 5.59592,1.206007 10.31935,3.043717 14.61066,5.684447 l 3.13831,1.931224 4.95221,-1.14107 c 7.11745,-1.639977 21.96915,-2.059105 29.50276,-0.832587 22.08013,3.594775 39.82282,15.802211 52.43127,36.074085 5.17142,8.3146 10.53163,19.98919 12.01926,26.17805 0.99056,4.12097 0.86112,10.9286 -0.2826,14.86288 -2.94583,10.13326 -8.04101,15.38609 -28.53767,29.42059 -18.93725,12.96676 -42.76899,24.92878 -58.50691,29.36678 -4.79938,1.3534 -7.53256,3.508 -7.53256,5.938 0,0.68508 0.68393,1.77163 1.53441,2.43768 2.62527,2.05598 9.52836,10.09711 12.92892,15.06037 7.76266,11.32992 12.58028,24.62283 13.24532,36.54686 0.29148,5.22601 0.22722,5.70219 -1.01384,7.51274 -0.75101,1.09563 -2.2277,2.27662 -3.40867,2.72609 -1.84865,0.70362 -2.36165,0.68686 -4.5491,-0.14853 -3.41108,-1.3027 -4.30165,-2.93442 -4.87912,-8.93962 -0.95875,-9.97016 -4.45307,-19.30906 -10.75168,-28.73484 -4.29438,-6.42648 -11.13142,-13.9844 -12.65055,-13.9844 -1.38079,0 -4.1793,4.33092 -5.22784,8.09052 -0.56428,2.02323 -1.17177,14.44215 -2.2108,45.19534 -0.788,23.32304 -1.69471,44.1557 -2.01492,46.29482 -0.32498,2.171 -1.33939,5.42739 -2.29607,7.37068 -3.17303,6.44534 -11.21551,12.47677 -17.72571,13.29334 -1.4019,0.17584 -3.17662,0.39371 -3.94383,0.48416 -0.76721,0.0904 -2.98777,-0.0322 -4.93459,-0.27265 z m 7.22269,-14.5195 c 2.84304,-0.95189 5.40043,-3.07407 6.64548,-5.5146 1.03615,-2.03101 1.22609,-5.22195 2.79326,-46.92643 1.17851,-31.36151 1.91873,-45.76365 2.47451,-48.14502 1.54579,-6.62329 2.90763,-8.94476 11.32184,-19.29985 5.7661,-7.09614 7.51037,-10.26731 8.54149,-15.52888 1.016,-5.18433 0.37341,-13.75635 -1.47103,-19.62305 -0.82009,-2.6085 -1.59468,-5.99815 -1.72131,-7.53256 -0.25673,-3.11086 -0.086,-3.44611 5.11459,-10.04341 5.85457,-7.4269 9.0507,-15.33974 9.57834,-23.71361 0.39733,-6.30592 -0.78221,-11.75575 -3.92486,-18.13393 -2.18558,-4.43576 -2.51444,-5.603 -2.81839,-10.00352 -1.12905,-16.3459 -7.25432,-24.642198 -20.2223,-27.389841 -4.60265,-0.975203 -32.42125,-1.150746 -38.12857,-0.240601 -12.76122,2.03503 -20.1202,11.210773 -21.00625,26.192262 -0.27948,4.72506 -0.57889,5.88269 -2.74269,10.60475 -1.33588,2.91537 -2.816,6.79718 -3.28915,8.62622 -1.11231,4.29993 -1.09987,12.35251 0.0263,17.00462 1.33258,5.50488 5.27238,13.11031 9.67252,18.67187 2.18449,2.76117 4.06843,5.73394 4.24318,6.69561 0.20644,1.13612 -0.27532,3.54837 -1.40408,7.03027 -2.246,6.92831 -3.2024,14.87235 -2.39999,19.93465 1.0629,6.70556 2.49736,9.4539 9.43317,18.07338 6.64919,8.26329 8.88144,11.91943 10.5202,17.23073 0.9781,3.17003 1.51509,13.67768 3.07961,60.26046 1.04588,31.14021 1.30954,34.70193 2.74026,37.01688 2.57543,4.16711 8.35548,6.28984 12.94383,4.7536 z m -34.62352,-183.0455 c -2.87624,-0.80489 -10.41849,-8.52868 -10.91558,-11.17828 -0.50719,-2.70352 0.52711,-5.64228 2.59945,-7.38605 1.35413,-1.13943 2.27718,-1.41318 4.76494,-1.41318 3.07402,0 3.10102,0.015 7.26432,4.04526 2.29835,2.22489 4.53136,4.72328 4.96223,5.55196 2.9039,5.585 -2.53895,12.0975 -8.67536,10.38029 z m 54.26272,-0.42607 c -3.32559,-2.02774 -4.39852,-6.08127 -2.60825,-9.85398 1.32956,-2.80184 8.27238,-9.03135 10.53951,-9.45666 2.84024,-0.53284 5.07953,0.20527 6.89466,2.27258 3.60726,4.10845 3.09776,6.81088 -2.34392,12.43235 -2.20005,2.27274 -4.6781,4.48478 -5.50679,4.91566 -2.10648,1.09526 -4.87215,0.97236 -6.97521,-0.30995 z m -72.89187,38.12121 c 0.37167,-3.71951 1.16905,-8.84557 1.77194,-11.39124 l 1.09618,-4.62849 -3.02546,-4.31772 c -3.74407,-5.34317 -7.65062,-13.49116 -9.24502,-19.28263 -0.99179,-3.60254 -1.21374,-5.971 -1.24745,-13.30985 -0.0457,-9.93971 0.67225,-13.53879 4.37709,-21.94501 1.23864,-2.81037 2.49322,-7.344157 3.65463,-13.206924 0.97271,-4.910112 1.90462,-9.613586 2.07101,-10.45216 0.45703,-2.303596 -1.48408,-2.797341 -12.09662,-3.077005 -7.67618,-0.202281 -10.09848,-0.05857 -14.57332,0.864603 -21.89346,4.516717 -39.35817,21.505606 -49.36743,48.022416 -2.2865,6.05755 -1.66833,11.91202 1.78387,16.89352 3.8016,5.48575 32.34246,24.62587 49.60262,33.2646 8.15112,4.07965 22.21067,9.69014 23.69943,9.45731 0.62816,-0.0982 0.98253,-1.72788 1.49853,-6.89142 z m 109.55113,3.31829 c 16.32651,-6.39197 40.477,-20.75334 57.57646,-34.23852 5.76554,-4.54689 7.73538,-7.78773 8.1359,-13.38547 0.33894,-4.7372 -0.56134,-7.71306 -5.24379,-17.33312 -4.6049,-9.46074 -9.34923,-16.35165 -15.54082,-22.572268 -5.54464,-5.570645 -9.76312,-8.650083 -16.32179,-11.914716 -8.77123,-4.365955 -16.2225,-5.825251 -28.31894,-5.546111 -10.74365,0.247916 -10.72662,0.237203 -9.17738,5.778509 0.6006,2.148175 1.61004,6.793255 2.2432,10.322393 0.72493,4.040569 1.85494,8.001283 3.05166,10.696073 3.70141,8.33492 4.43509,11.99187 4.40277,21.94501 -0.0241,7.40552 -0.23666,9.67458 -1.24712,13.30985 -1.52314,5.47969 -5.35929,13.64241 -8.55806,18.21023 -3.92533,5.60534 -3.78341,4.95578 -2.41391,11.04848 0.67841,3.01814 1.41778,7.8569 1.64304,10.75277 0.22527,2.89588 0.52784,5.46375 0.67239,5.7064 0.33701,0.5657 1.31621,0.2665 9.09639,-2.77951 z"
     id="path4185"
     inkscape:connector-curvature="0" />
  <rect
     style="opacity:1;fill:url(#linearGradient920);fill-opacity:1;stroke-width:1.26770258"
     id="rect912"
     width="1000"
     height="400"
     x="0"
     y="-4.2871093e-07" />
  <text
     xml:space="preserve"
     style="font-style:normal;font-weight:normal;font-size:199.1987915px;line-height:124.49923706px;font-family:sans-serif;letter-spacing:0px;word-spacing:0px;fill:#ffffff;fill-opacity:1;stroke:none;stroke-width:1"
     x="159.52376"
     y="251.29526"
     id="text844"><tspan
       sodipodi:role="line"
       id="tspan842"
       x="159.52376"
       y="251.29526"
       style="font-style:normal;font-variant:normal;font-weight:normal;font-stretch:normal;font-family:Arial;-inkscape-font-specification:Arial;fill:#ffffff;stroke-width:1">PHPBS</tspan></text>
  <text
     id="text868"
     y="595.05066"
     x="-362.12817"
     style="font-style:normal;font-weight:normal;font-size:161.29353333px;line-height:100.80845642px;font-family:sans-serif;letter-spacing:0px;word-spacing:0px;fill:#ffffff;fill-opacity:1;stroke:none;stroke-width:1"
     xml:space="preserve"><tspan
       style="font-style:normal;font-variant:normal;font-weight:normal;font-stretch:normal;font-family:Arial;-inkscape-font-specification:Arial;fill:#ffffff;stroke-width:1"
       y="595.05066"
       x="-362.12817"
       id="tspan866"
       sodipodi:role="line">PHP Bootstrap Helpers</tspan></text>
</svg>
